<?xml version="1.0" standalone="no"?>
<!DOCTYPE svg PUBLIC "-//W3C//DTD SVG 1.1//EN" "http://www.w3.org/Graphics/SVG/1.1/DTD/svg11.dtd" >
<svg xmlns="http://www.w3.org/2000/svg" xmlns:xlink="http://www.w3.org/1999/xlink" version="1.1">
<metadata>
Created by FontForge 20170731 at Fri Jan  1 02:30:17 1904
 By Aleksey,,,
(c)Copyright ParaGraph International, 1992.
</metadata>
<defs>
<font id="JakobCTT-Regular" horiz-adv-x="414" >
  <font-face 
    font-family="JakobCTT"
    font-weight="400"
    font-stretch="normal"
    units-per-em="1000"
    panose-1="0 0 0 0 0 0 0 0 0 0"
    ascent="800"
    descent="-200"
    x-height="511"
    cap-height="784"
    bbox="-285 -495 1117 1161"
    underline-thickness="40"
    underline-position="-140"
    unicode-range="U+0020-2219"
  />
<missing-glyph horiz-adv-x="105" 
d="M5 0v100h95v-100h-95zM10 5h85v90h-85v-90z" />
    <glyph glyph-name=".notdef" horiz-adv-x="105" 
d="M5 0v100h95v-100h-95zM10 5h85v90h-85v-90z" />
    <glyph glyph-name="glyph1" horiz-adv-x="0" 
 />
    <glyph glyph-name="glyph2" horiz-adv-x="202" 
 />
    <glyph glyph-name="space" unicode=" " horiz-adv-x="202" 
 />
    <glyph glyph-name="space" unicode="&#x45d;" horiz-adv-x="202" 
 />
    <glyph glyph-name="space" unicode="&#x40d;" horiz-adv-x="202" 
 />
    <glyph glyph-name="space" unicode="&#xa0;" horiz-adv-x="202" 
 />
    <glyph glyph-name="exclam" unicode="!" horiz-adv-x="202" 
d="M71 689l9 83q5 53 41 51t36 -45q-1 -250 -19.5 -320.5t-18.5 -131.5q0 -26 11.5 -37t11.5 -51q0 -6 -1.5 -8t-6.5 -1q-44 -1 -67.5 29.5t-22.5 81.5q0 39 8.5 151t18.5 198zM162 49q0 -25 -29.5 -51.5t-51.5 -26.5q-14 0 -27 13t-14 32q-1 1 -1 2t1 2q3 18 35 44t54 26
q13 0 23 -12t10 -29z" />
    <glyph glyph-name="quotedbl" unicode="&#x22;" horiz-adv-x="390" 
d="M235 859q-17 10 -21 16.5t-4 14.5q0 10 9.5 19.5t20.5 9.5q29 0 69.5 -48.5t40.5 -102.5q0 -30 -13 -78.5t-26 -48.5q-5 0 -7.5 3t-2.5 10q0 6 5.5 29t5.5 43q0 38 -22.5 75t-54.5 58zM178 631q-6 -11 -16 -22t-15 -11q-4 -1 -6 4t-2 13q0 4 1.5 13.5t1.5 14.5
q0 98 -51 121.5t-51 96.5q0 13 12 25.5t30 13.5q42 -1 76.5 -71.5t34.5 -142.5q-1 -13 -4.5 -27t-10.5 -28z" />
    <glyph glyph-name="numbersign" unicode="#" horiz-adv-x="776" 
d="M246 514l57 32q6 24 10.5 43.5t24.5 139.5q5 21 41.5 40.5t34.5 -26.5q-2 -27 -7 -53.5t-19 -91.5q41 7 73 18t56 27q7 32 15.5 65t19.5 67q0 14 7.5 22t17.5 8q24 0 33 -38t-14 -92q52 9 64.5 12t20.5 6q27 9 44 14t26 5q3 0 6.5 -3.5t3.5 -5.5q0 -5 -17.5 -8.5
t-24.5 -6.5l-54 -24q-10 -5 -26.5 -13.5t-45.5 -19.5l-15 -71q-13 -60 -16 -87t-2 -52q26 13 60 26.5t54 17.5q9 6 15 6.5t12 -5.5q4 -5 0 -7t-16 -1q-12 -3 -21.5 -6.5t-112.5 -60.5q-21 -67 -45 -167t-35 -163q-1 -38 -2.5 -47.5t-4.5 -9.5q-10 0 -16.5 17.5t-6.5 48.5
q0 58 9 128t29 158q-29 -7 -59.5 -22.5t-84.5 -48.5q-10 -59 -9.5 -114t10.5 -101q4 -13 2 -19.5t-10 -9.5q-7 -3 -12 -1t-9 10q-26 28 -36 82.5t-4 116.5q-74 -24 -127.5 -54.5t-101.5 -50.5q-14 -9 -9 8.5t21 26.5q25 16 48.5 28.5t91.5 45.5l75 36q3 49 9.5 99.5
t16.5 102.5q-50 -20 -106 -54t-95 -41q-10 -4 -13.5 -2t-4.5 8q-2 10 2.5 16.5t16.5 12.5q33 16 62 31.5t93 51.5zM344 319q33 17 68 34.5l71 35.5q4 38 12.5 87.5t19.5 119.5q-33 -16 -66.5 -32t-66.5 -32q-19 -51 -29 -104t-9 -109z" />
    <glyph glyph-name="dollar" unicode="$" horiz-adv-x="600" 
d="M234 734v15q0 95 11.5 144.5t28.5 49.5l13 -1h1q0 4 -3.5 -32t-3.5 -93v-64q33 14 75.5 26.5t61.5 12.5q16 0 26.5 -6t10.5 -14q0 -13 -11.5 -21.5t-36.5 -12.5l-51 -10q-39 -8 -49.5 -12.5t-22.5 -11.5q-3 -34 -3.5 -66t-2.5 -68q130 9 130.5 9.5t11.5 0.5q79 0 117 -22
t38 -65q0 -71 -104 -192.5t-214 -204.5q-18 -159 -24 -198t-11 -39q-7 0 -9.5 17.5t-2.5 71.5q0 22 0.5 45.5t6.5 91.5l-48 -26l-78 -31q-68 -28 -71 -28h-5q-10 0 -15 3.5t-5 10.5q0 10 15.5 24.5t147.5 79.5l61 30q7 84 10.5 175.5t9.5 185.5q-87 -9 -129 12.5t-42 59.5
q0 20 35 54.5t89 70.5zM239 681l-31 -26q-29 -25 -39.5 -39t-10.5 -25q-1 -11 23.5 -17.5t53.5 -5.5q1 27 2 55t2 58zM282 512l-20 -336q76 60 162.5 162t86.5 140q0 25 -18 37.5t-48 12.5q-29 0 -50 -2t-113 -14z" />
    <glyph glyph-name="percent" unicode="%" horiz-adv-x="849" 
d="M458 789q0 -54 -53.5 -117.5t-109.5 -63.5q-39 0 -65.5 24t-26.5 55q0 13 29.5 53.5t66.5 66.5q-15 21 15.5 45.5t61.5 24.5q27 0 54 -25t28 -63zM805 916q-118 -182 -216.5 -321t-106.5 -152q-34 -52 -69 -112.5t-113 -178.5q-48 -72 -73 -112t-50 -83
q-50 -131 -61.5 -129t-11.5 10q0 23 15 60t45 94q441 720 518.5 836t107.5 116q19 0 21.5 -1t2.5 -3q0 -5 -2.5 -11.5t-6.5 -12.5zM773 217q0 -52 -46 -99t-101 -46q-50 0 -73 26.5t-23 75.5q0 56 39.5 106t75.5 50q30 -1 78.5 -39t49.5 -74zM335 764q-25 -21 -39.5 -43.5
t-13.5 -38.5q0 -16 1.5 -20.5t5.5 -4.5q41 0 92.5 40t51.5 74q-1 22 -22 47.5t-40 25.5q-11 0 -27.5 -11t-16.5 -21q0 -9 6.5 -16t6.5 -25q0 -2 -1 -3.5t-4 -3.5zM739 219q-4 25 -28 39t-53 14q-27 -1 -48 -34t-21 -71l-1 -1h1q0 -22 17.5 -44.5t37.5 -22.5q31 -1 60 33
t35 87z" />
    <glyph glyph-name="ampersand" unicode="&#x26;" horiz-adv-x="764" 
d="M455 254l35 14q84 33 140 48t70 20q29 10 36.5 8.5t7.5 -8.5t-10 -12t-259 -96q9 -17 65 -99t56 -100q0 -6 -13.5 -11t-22.5 -4q-6 0 -12 18.5t-13 28.5q-8 11 -19 24.5t-30 42.5q-24 38 -33 50t-21 29l-184 -109l-27 -15q-36 -20 -46.5 -26t-18.5 -12
q-51 -36 -49.5 -35.5t0.5 0.5q-16 0 -31.5 20.5t-15.5 39.5q0 10 1.5 17t52.5 41q14 9 59.5 90.5t147.5 186.5q-50 58 -89 120t-39 87q0 51 69.5 100t133.5 49q68 0 116.5 -30t48.5 -66q0 -45 -43.5 -104.5t-133.5 -140.5l-20 -18l23 -38q3 -6 9.5 -15.5t9.5 -11.5
q2 -4 4.5 -8t5.5 -10q1 0 1 -0.5t10 -16.5q4 -9 13.5 -25t14.5 -23zM302 495l43 -60q72 57 121.5 118.5t49.5 99.5q-1 33 -35 57t-81 24q-65 0 -115 -39.5t-50 -80.5q0 -11 5 -26t62 -93zM410 251l-24 42q-16 26 -26.5 41t-24.5 31q-48 -64 -93 -132.5t-86 -139.5
q251 138 254 145t0 13z" />
    <glyph glyph-name="quotesingle" unicode="'" horiz-adv-x="155" 
d="M77 661q-4 19 -14.5 51.5t-13.5 47.5q-5 17 -7 30t-2 21q0 17 10 29t22 12q18 -1 30.5 -34.5t12.5 -91.5q-1 -67 -4.5 -89t-11.5 -22q-6 0 -11 5.5t-11 40.5z" />
    <glyph glyph-name="parenleft" unicode="(" 
d="M320 114l24 -15q23 -15 30.5 -26.5t7.5 -23.5q0 -17 -7.5 -23t-26.5 -6q-98 0 -205.5 117.5t-107.5 262.5q0 98 67.5 215t147.5 180l33 26q36 28 59.5 41.5t37.5 13.5q9 -1 16.5 -5.5t7.5 -8.5q0 -2 -1 -4t-44 -34l-32 -24q-88 -66 -140 -170.5t-52 -217.5
q0 -95 47 -168.5t138 -129.5z" />
    <glyph glyph-name="parenright" unicode=")" 
d="M94 781l-24 16q-25 16 -31.5 26t-6.5 24q0 16 7 22.5t27 6.5q95 0 204 -119t109 -261q0 -91 -62 -205.5t-153 -189.5l-33 -27q-32 -26 -57.5 -40t-39.5 -14q-11 -1 -18 3.5t-6 10.5q0 2 1.5 5t43.5 33l32 23q85 61 138.5 170t53.5 218q0 84 -40.5 156t-144.5 142z" />
    <glyph glyph-name="asterisk" unicode="*" horiz-adv-x="403" 
d="M233 616q25 -13 62.5 -50.5t37.5 -59.5q0 -19 -37 -6.5t-55 31.5q2 -5 4 -11.5t3 -58.5q0 -15 -30.5 18.5t-36.5 65.5q-30 -50 -47 -74t-22 -24q-3 0 -4 5t-1 15q0 17 9.5 44t30.5 66q-39 -19 -83 -17.5t-44 12.5q0 7 53.5 23t97.5 21q-48 17 -66 48t0 53q13 15 34.5 12
t41.5 -28q-7 32 2 51.5t25 19.5q22 0 32 -19.5t3 -51.5q14 23 37.5 39.5t43.5 18.5h0.5h1.5q2 -1 2 -4.5t-2 -10.5q-6 -16 -25.5 -46.5t-32.5 -45.5q36 9 75.5 8.5t39.5 -6.5t-55 -20.5t-95 -17.5z" />
    <glyph glyph-name="plus" unicode="+" horiz-adv-x="550" 
d="M320 375l67 26q52 20 66 24.5t28 8.5l24 6q19 4 24.5 3t5.5 -5q0 -3 -3.5 -6t-18.5 -11l-15 -8q-15 -8 -67 -32t-105 -47q-4 -13 -6 -25t-4 -51l-5 -68q-3 -28 -11 -39t-23 -11q-20 0 -33.5 37t-16.5 108l-67 -31q-31 -15 -63.5 -27t-41.5 -11q-7 0 -11 3t-4 9q0 7 5 13
t18 13l56 28q28 14 55.5 28.5t53.5 30.5l6 51q14 123 26.5 156t30.5 33q12 0 21 -10t10 -30q0 -18 -1 -44.5t-1 -44.5v-77z" />
    <glyph glyph-name="comma" unicode="," horiz-adv-x="115" 
d="M36 -100l2 11q3 22 5.5 39t2.5 29q0 16 -3 26t-11 23q-7 11 -9.5 19.5t-2.5 17.5q0 13 9.5 21.5t25.5 8.5q15 0 27.5 -19.5t12.5 -55.5q0 -43 -10.5 -79t-33.5 -81l-14 -26q-5 -8 -8.5 -12.5t-4.5 -5.5h-1v0q-1 1 -1.5 2t1.5 4q4 15 5 30.5t2 18.5q0 5 2.5 15z" />
    <glyph glyph-name="hyphen" unicode="-" horiz-adv-x="486" 
d="M189 393l36 10q29 8 72.5 15.5t64.5 7.5q30 0 58.5 -6.5t28.5 -16.5q-1 -6 -4 -10.5t-81 -25.5l-36 -10q-45 -13 -55.5 -23t-69.5 -23l-52 -12q-56 -13 -85 -8.5t-29 30.5q0 15 22 28.5t130 43.5z" />
    <glyph glyph-name="hyphen" unicode="&#xad;" horiz-adv-x="486" 
d="M189 393l36 10q29 8 72.5 15.5t64.5 7.5q30 0 58.5 -6.5t28.5 -16.5q-1 -6 -4 -10.5t-81 -25.5l-36 -10q-45 -13 -55.5 -23t-69.5 -23l-52 -12q-56 -13 -85 -8.5t-29 30.5q0 15 22 28.5t130 43.5z" />
    <glyph glyph-name="period" unicode="." horiz-adv-x="140" 
d="M119 74q4 -16 -12.5 -37t-39.5 -21q-15 0 -31 11.5t-16 25.5q0 16 24.5 30.5t43.5 15.5q10 0 18.5 -7t12.5 -18z" />
    <glyph glyph-name="slash" unicode="/" horiz-adv-x="546" 
d="M522 871q-26 -58 -195.5 -386t-246.5 -544q-60 -124 -63 -123.5t-2 1.5q0 44 12 80.5t37 69.5q90 203 214 492.5t204 484.5q4 12 13.5 18.5t25.5 6.5q14 0 21.5 -6.5t7.5 -17.5q0 -8 -3.5 -18t-24.5 -58z" />
    <glyph glyph-name="zero" unicode="0" horiz-adv-x="674" 
d="M244 683l-8 -8q-50 -50 -78.5 -115t-28.5 -138q0 -118 68 -213.5t156 -95.5t147 108.5t60 261.5q0 74 -33 134.5t-84 87.5q-17 8 -32 15t-20 9q-6 1 -8.5 3t-3.5 6l-2 2v1q-1 0 -1 -0.5t1 -0.5q-1 0 1 3.5t7 4.5q1 1 4.5 0.5t4.5 0.5q2 0 6.5 1.5t7.5 1.5q75 0 153 -76
t78 -201q0 -204 -98.5 -327.5t-221.5 -123.5q-105 -1 -194.5 96t-89.5 247q0 103 60 230.5t125 127.5q10 0 25.5 -8.5t15.5 -13.5q0 -2 -3 -5.5t-14 -14.5z" />
    <glyph glyph-name="one" unicode="1" horiz-adv-x="418" 
d="M241 37l-1 63q-3 142 -7.5 274t-12.5 269q-5 -5 1.5 1.5t-125.5 -152.5l-29 -35q-4 -5 -12 -10t-12 -5q-7 0 -10.5 5t-3.5 15q0 5 2 10t20 24l56 58q32 33 64.5 71.5t37.5 51.5q19 56 31 65.5t27 9.5q17 0 25.5 -9.5t8.5 -52.5v-52q-1 -70 9 -171t38 -314l7 -54
q6 -48 -19.5 -76t-73.5 -28q-11 0 -16 7t-5 35z" />
    <glyph glyph-name="two" unicode="2" horiz-adv-x="488" 
d="M165 126l172 79q172 79 166.5 76t-0.5 0l65 33q4 2 12.5 5t13.5 3q4 -1 7 -3t3 -5q0 -4 -2.5 -7.5t-6.5 -5.5l-19 -13q-39 -27 -130 -80t-155 -87l-202 -107q-34 -17 -51 6t2 61l65 130q94 189 148 315.5t54 170.5q0 21 -13 32.5t-40 11.5q-33 0 -92.5 -62.5t-61.5 -62.5
q-6 -1 -10.5 2t-4.5 8q0 34 72.5 95.5t142.5 61.5q38 0 60.5 -22t22.5 -56q0 -24 -12.5 -62.5t-140.5 -355.5z" />
    <glyph glyph-name="three" unicode="3" horiz-adv-x="582" 
d="M127 580l-47 -33q-18 -13 -33 -9t-15 22q0 13 -0.5 13t225.5 110q22 10 39 19.5t68 47.5q4 3 8.5 5t8.5 2q12 0 26.5 -10.5t14.5 -17.5q-1 -4 -0.5 -3t-188.5 -316q43 39 97 63.5t105 24.5q59 0 95.5 -40.5t36.5 -111.5q0 -148 -104.5 -239.5t-241.5 -91.5q-73 0 -134 29
t-61 59q0 3 3 6t9 3q8 -1 29.5 -12.5t39.5 -17.5q30 -12 50 -15.5t46 -3.5q122 -1 197.5 70.5t75.5 172.5q0 58 -24 88t-63 30q-25 0 -64.5 -14.5t-98.5 -42.5q-73 -35 -70 -34.5l3 0.5q-8 -1 -14.5 6t-6.5 16q0 4 1 9t11 20l46 76q71 117 87 150.5t34 74.5
q-49 -20 -90.5 -42t-99.5 -63z" />
    <glyph glyph-name="four" unicode="4" horiz-adv-x="482" 
d="M262 403l3 174q0 20 9 32.5t24 12.5q16 0 22.5 -17t12.5 -168q42 25 84.5 48t99.5 51l31 15q21 10 19.5 10t-0.5 0t3 -1.5t2 -2.5q0 -3 -2 -5t-29 -20l-46 -31q-14 -9 -29 -20t-128 -95q37 -299 37 -298.5t0 -14.5q0 -33 -9.5 -46.5t-28.5 -13.5q-37 0 -53.5 30
t-14.5 150v21.5v18.5q-1 11 -1.5 39t-1.5 68q-135 -90 -160 -104t-33 -14q-3 0 -6 2.5t-5 7.5q-3 4 -3 9.5t3 19.5q5 27 8.5 59.5t4.5 70.5v28.5v36.5q-1 38 -1 50.5t1 23.5q4 117 18.5 172t35.5 55q15 0 22 -9.5t4 -25.5l-12 -61q-5 -21 -9 -67.5t-4 -62.5q0 -25 7.5 -76
t12.5 -121q13 4 24.5 9.5t66.5 44.5z" />
    <glyph glyph-name="five" unicode="5" horiz-adv-x="450" 
d="M266 717l123 44q16 5 26.5 8.5t17.5 3.5t9.5 -9t-3.5 -11l-24 -10q-59 -25 -152 -66t-156 -71q-1 -25 -1 -47t2 -48l3 -77q90 44 129 58t69 14q57 0 91.5 -45.5t34.5 -132.5q0 -143 -86.5 -228t-201.5 -85q-36 0 -61 9t-25 23q0 3 1.5 5t7.5 2q5 0 31 -6t47 -6
q83 0 145.5 83.5t62.5 199.5q0 52 -23.5 83.5t-68.5 31.5q-15 0 -33.5 -5t-121.5 -59l-23 -12q-31 -16 -31.5 -16.5t-0.5 0.5q-6 0 -8 5.5t-2 22.5v51q0 23 -1 45.5t-2 34.5q-2 26 -9.5 46.5t-7.5 33.5q0 20 13 36t51 32l27 11q31 12 73.5 25t77.5 26z" />
    <glyph glyph-name="six" unicode="6" horiz-adv-x="510" 
d="M347 679l-26 -17q-66 -43 -123.5 -136.5t-70.5 -185.5q28 0 50.5 3.5t52.5 13.5q51 18 70.5 21.5t40.5 3.5q74 0 115.5 -33.5t41.5 -95.5q0 -95 -66.5 -168.5t-178.5 -73.5q-96 0 -154 56t-58 153q0 150 106.5 327t188.5 177q14 0 23 -11t10 -21q-1 -1 -0.5 0t-21.5 -13z
M125 316q-9 -100 33 -169.5t133 -69.5q68 0 114.5 44.5t46.5 115.5q0 52 -42.5 81.5t-109.5 30.5q-11 0 -20 -1.5t-63 -15.5q-21 -6 -46 -10.5t-46 -5.5z" />
    <glyph glyph-name="seven" unicode="7" horiz-adv-x="519" 
d="M381 637l16 40q-131 -44 -238 -101t-134 -56q-8 0 -11.5 2.5t-3.5 7.5q0 23 99.5 68t178.5 63q74 16 105 33t43 38q6 11 13.5 16t18.5 5q13 0 22 -5.5t9 -11.5q0 -8 -44.5 -94t-78.5 -199q38 1 84.5 10.5t49.5 9.5q2 -1 3.5 -1.5t2.5 -2.5q2 -3 -1 -5t-13 -4
q-12 -3 -19.5 -5t-14.5 -4l-28 -10q-11 -4 -24 -10.5t-47 -18.5q-18 -54 -42.5 -139t-30.5 -118l-14 -74q-5 -22 -33 -39t-50 -17q-9 0 -12 5.5t3 26.5l12 49q6 27 13 53.5t30 99.5l38 125l-66 -35q-25 -13 -52.5 -35.5t-40.5 -22.5q-8 0 -11.5 4t-3.5 10q0 10 16 25t168 91
q25 61 37 95t51 131z" />
    <glyph glyph-name="eight" unicode="8" horiz-adv-x="423" 
d="M278 442l-18 -20q75 -88 109 -147.5t34 -108.5q0 -63 -67 -109t-158 -46q-73 0 -115.5 34t-42.5 88q0 42 28 91.5t130 160.5l-22 35q-20 31 -30 62.5t-9 65.5q0 78 44 122.5t106 44.5q49 0 77.5 -28t28.5 -72q0 -36 -18 -71.5t-77 -101.5zM252 446q36 35 57 76.5t22 82.5
q0 35 -18 54t-45 20q-40 -1 -62 -20.5t-22 -55.5q0 -27 20 -74t48 -83zM227 323l-33 42q-61 -73 -94 -131t-33 -87q0 -30 34.5 -54t92.5 -24q43 -1 84.5 21.5t41.5 55.5q0 29 -20.5 69.5t-72.5 107.5z" />
    <glyph glyph-name="nine" unicode="9" horiz-adv-x="493" 
d="M376 445l-74 -14q-39 -8 -68 -10.5t-58 -2.5q-77 0 -119 40t-42 105q-1 21 7 40t98 109q12 12 24.5 16t21.5 -1l19 -12q20 -14 40.5 -2.5t47.5 11.5q102 0 148 -35t46 -100q0 -33 -5.5 -56.5t-7.5 -74.5l-2 -45q-6 -120 -57 -197t-176 -202l-17 -17q-19 -18 -29.5 -26
t-15.5 -8q-2 0 -2.5 1t-0.5 2v2t8 11l10 14q137 193 168.5 274t35.5 178zM396 599q-1 34 -35.5 61t-77.5 27q-5 0 -6 -0.5t-87 -34.5q-1 -1 -2 -1t-2 1q-4 0 -7.5 0.5t-7.5 0.5q-44 0 -65.5 -22t-21.5 -58q0 -46 39 -70.5t107 -23.5q88 -1 127 28t39 92z" />
    <glyph glyph-name="colon" unicode=":" horiz-adv-x="166" 
d="M110 446v-8q0 -54 -8.5 -66.5t-25.5 -11.5q-24 0 -40 22.5t-16 45.5q0 25 19 57t42 32q14 0 21.5 -13.5t7.5 -57.5zM146 91q0 -28 -14 -51.5t-34 -23.5q-26 0 -42 11.5t-16 36.5q-1 38 21.5 59.5t48.5 22.5q17 0 26.5 -14t9.5 -41z" />
    <glyph glyph-name="semicolon" unicode=";" horiz-adv-x="206" 
d="M176 371q0 -26 -17 -41t-39 -15q-21 0 -30.5 11.5t-11.5 43.5q-1 0 -1 0.5t1 1.5q1 15 22.5 33.5t42.5 20.5h2h2q9 -2 19 -19t10 -36zM79 88l1 30q0 24 17 43t35 20q11 0 19.5 -16t8.5 -41q0 -31 -11 -61t-67 -117l-58 -90q-24 -36 -26.5 -35t-2.5 2q0 3 3 13t7 17l8 18
q48 110 56 140t10 77z" />
    <glyph glyph-name="less" unicode="&#x3c;" horiz-adv-x="434" 
d="M353 204l32 -24q1 -2 1 -1.5t0 -38.5q0 -13 -57.5 13t-148.5 89q-63 42 -100.5 77t-39.5 56q-1 2 -1 4t1 4q0 4 2 8t145 161q84 105 109 131t45 26q9 -1 16 -7t9 -15v-1.5v-0.5q-3 -16 -67.5 -101t-122.5 -147q-19 -18 -17 -45.5t19 -48.5q13 -14 24 -24.5t151 -114.5z
" />
    <glyph glyph-name="equal" unicode="=" horiz-adv-x="699" 
d="M499 547l-57 -21q-26 -9 -49.5 -18.5t-109.5 -50.5q-49 -24 -89.5 -41t-74.5 -28q-23 -6 -42 1t-18 29q0 17 9 29t27 17q28 14 64.5 29t77.5 30q76 26 81 28.5t12 6.5q75 29 158 49.5t133 21.5q23 -1 35.5 -7t21.5 -20q4 -5 5 -8.5t-43 -7.5l-36 -4q-6 -1 -13.5 -2.5
t-91.5 -32.5zM635 443q-57 -29 -65 -26.5t-52 -17.5q-24 -10 -75.5 -35t-77.5 -39q-123 -62 -188.5 -90.5t-103.5 -34.5q-29 0 -35 26.5t24 46.5q19 17 94.5 39t165.5 65q102 46 185.5 74.5t122.5 28.5t39.5 -0.5t0.5 -4.5q0 -8 -5.5 -14t-29.5 -18z" />
    <glyph glyph-name="greater" unicode="&#x3e;" horiz-adv-x="423" 
d="M238 450l-34 23q-85 57 -120.5 83.5t-47.5 45.5v0.5v1.5q-1 1 -1 4.5v5.5q0 21 23.5 31.5t50.5 -3.5q20 -5 89.5 -61t152.5 -112q15 -12 23 -30t9 -37q0 -8 -4 -15.5t-35 -39.5l-29 -30q-15 -15 -28.5 -30t-71.5 -79q-8 -9 -14.5 -16t-20.5 -21q-1 -1 -0.5 -0.5
t-9.5 -9.5q-15 -38 -22 -44.5t-10 8.5q-3 13 0.5 23.5t14.5 22.5q86 137 94 147.5t18 23.5q21 28 13 59t-40 49z" />
    <glyph glyph-name="question" unicode="?" horiz-adv-x="573" 
d="M488 395l55 33q4 2 8 2.5t4 -0.5q0 -8 -3.5 -12t-10.5 -9l-10 -7q-118 -83 -240 -144.5t-175 -61.5q-29 0 -42 11.5t-12 33.5q0 14 7.5 29.5t122.5 149.5l156 182q63 73 55.5 100t-70.5 27q-24 0 -60 -15.5t-101 -54.5l-51 -31q-37 -23 -49.5 -30t-14.5 -7q-5 0 -11 5
t-6 8q0 19 140 91t252 89h7.5h5.5q9 -4 14.5 -19t5.5 -34q0 -30 -39 -92.5t-94 -128.5l-82 -97q-88 -104 -98.5 -123t-18.5 -36q88 16 175.5 51t179.5 90zM285 70q0 -15 -16 -38.5t-19 -34.5q-20 7 -35.5 29.5t-14.5 41.5q0 16 13 36t24 20q18 0 33 -17t15 -37z" />
    <glyph glyph-name="at" unicode="@" horiz-adv-x="676" 
d="M606 358v-191q21 6 36 -2t15 -21q0 -35 -134 -80t-185 -44q-56 0 -96.5 25.5t-39.5 76.5q-1 101 118 168.5t216 12.5v94q0 38 -24.5 57.5t-67.5 19.5q-116 0 -227.5 -92.5t-110.5 -226.5q0 -113 68.5 -179t208.5 -66q79 0 142.5 32.5t84.5 32.5q22 1 34.5 -9.5
t13.5 -28.5q0 -36 -81 -66t-196 -30q-177 0 -268 78t-91 215q-1 178 134.5 286.5t301.5 109.5q74 0 111 -33.5t37 -138.5zM529 128v31q-1 66 -22.5 90t-72.5 24q-60 0 -109.5 -44t-49.5 -86q0 -27 18.5 -48t52.5 -21q36 0 89 14.5t94 39.5z" />
    <glyph glyph-name="A" unicode="A" horiz-adv-x="634" 
d="M664 577l103 43q36 15 35.5 15t0.5 0l2 -2l2 -2q0 -6 -12 -15t-89 -50l-209 -112l40 -125q45 -141 61.5 -198t16.5 -74q0 -24 -14 -35.5t-35 -11.5q-15 0 -30 12.5t-86 261.5l-37 129q-218 -127 -216.5 -126.5t-1.5 -0.5l-71 -43q-11 -28 -20.5 -62t-11.5 -56l-4 -31
q-5 -38 -20 -53.5t-39 -15.5q-14 0 -22 15t-8 41q0 19 25 98.5t79 232.5l99 281q50 143 69 165t41 22q17 0 33.5 -19.5t98.5 -244.5l42 -117q73 29 111 47.5t67 30.5zM139 304l261 153l-47 150q-15 46 -30 73t-28 27q-17 0 -35 -29t-49 -133z" />
    <glyph glyph-name="B" unicode="B" horiz-adv-x="613" 
d="M119 43l-1 659q-105 -61 -125 -71.5t-29 -10.5q-10 0 -16.5 7t-6.5 19q1 43 208.5 138.5t287.5 95.5q30 0 48 -17.5t18 -47.5q0 -46 -41 -113t-157 -187q40 17 91 31.5t78 14.5q53 0 84.5 -32.5t31.5 -87.5q0 -111 -172.5 -296t-254.5 -185q-24 0 -34 16.5t-10 66.5z
M187 736l2 -274q101 92 171 180t70 128q0 18 -11 29.5t-32 11.5q-21 -1 -70.5 -20t-129.5 -55zM188 370l-4 -335q186 135 257.5 224.5t71.5 166.5q0 32 -17.5 44.5t-50.5 12.5q-59 -1 -125 -29.5t-132 -83.5z" />
    <glyph glyph-name="C" unicode="C" horiz-adv-x="622" 
d="M641 259q-43 -110 -127.5 -172.5t-187.5 -62.5q-127 0 -206 91.5t-79 254.5q0 196 120.5 336.5t271.5 140.5q52 -1 97.5 -17.5t45.5 -39.5q0 -13 -4.5 -18t-11.5 -4q-30 0 -43.5 6.5t-66.5 6.5q-130 -1 -219.5 -103t-89.5 -260q0 -145 66.5 -224t174.5 -78q66 0 124 34
t105 93q12 15 18 21t9 6q1 0 2 -1l2 -2q0 -4 -0.5 -5.5t-0.5 -2.5z" />
    <glyph glyph-name="D" unicode="D" horiz-adv-x="628" 
d="M150 -15l35 44q-2 86 -5 233.5t-3 228.5q0 63 1 135t3 127q-93 -50 -155.5 -115.5t-76.5 -65.5q-5 0 -8.5 6t-3.5 16q0 16 10 32.5t60 57.5l37 30q90 73 172 109.5t158 36.5q110 0 171.5 -67t61.5 -187q-1 -127 -63 -249t-197 -255l-136 -134q-22 -20 -31 -24t-18 -5
q-11 0 -17 7t-5 18q0 4 1 8t9 13zM251 317l6 -224q143 130 210 252.5t67 255.5q0 151 -91 193t-199 -18q-1 -92 0.5 -188t6.5 -271z" />
    <glyph glyph-name="E" unicode="E" horiz-adv-x="537" 
d="M140 308v-234q61 46 150 104t143 86l108 56q23 11 34.5 10.5t11.5 -12.5q0 -5 -2.5 -9t-6.5 -6l-33 -21q-22 -14 -90.5 -62t-183.5 -130l-119 -85q-29 -20 -44.5 -28t-26.5 -8q-14 1 -20.5 10.5t-5.5 38.5l6 190q2 71 6.5 193t6.5 164l9 195q0 17 8 25.5t24 8.5
q21 0 31 -18t2 -51q65 33 136.5 63.5t143.5 55.5l66 23q33 11 42.5 8t9.5 -13q0 -6 -3.5 -11t-28.5 -15l-39 -17q-180 -79 -232.5 -109t-97.5 -62q-5 -59 -6.5 -122t-0.5 -143q62 42 123.5 80t204.5 122l48 28q14 8 23 7t9 -12q0 -6 -5.5 -14.5t-11.5 -12.5l-22 -17
q-10 -8 -33.5 -24.5t-333.5 -231.5z" />
    <glyph glyph-name="F" unicode="F" horiz-adv-x="470" 
d="M558 883l-109 -55q-167 -85 -195.5 -100.5t-62.5 -34.5q-1 -58 -5.5 -122t-10.5 -125q122 91 238.5 140.5t183.5 49.5q11 0 13 -1t2 -3q-1 -6 -9 -13.5t-25 -14.5l-91 -41q-80 -36 -160.5 -84t-150.5 -100q-8 -94 -7.5 -180t10.5 -146l3 -20q4 -32 -15 -52.5t-48 -20.5
q-41 0 -52.5 91t9.5 243q-32 8 -33 32.5t33 41.5q7 60 12 124.5t6 110.5l1 48q2 126 13.5 143t31.5 17q16 0 31 -15t19 -29q70 21 141.5 47.5t159.5 65.5l64 28q21 9 26.5 7.5t5.5 -7.5q0 -5 -7.5 -11.5t-21.5 -13.5z" />
    <glyph glyph-name="G" unicode="G" horiz-adv-x="578" 
d="M272 427l23 16q84 58 175 94t152 36q7 0 10.5 -1.5t4.5 -2.5q0 -7 -9 -15t-85 -42l-49 -22q-9 -107 -14 -187t-4 -136q0 -41 4.5 -63t15.5 -38q15 -24 15 -23.5v0.5q0 -19 -31.5 -37.5t-49.5 -19.5q-19 1 -28.5 16.5t-8.5 53.5v51q-146 -32 -252 48t-106 242
q-1 192 96.5 330t238.5 139q26 0 39 -11t13 -31q-1 -13 -6 -19.5t-16 -6.5q-21 0 -25 3.5t-26 3.5q-94 0 -164.5 -108.5t-70.5 -248.5q-1 -133 80 -212t207 -67q5 82 8.5 139t10.5 144q-57 -27 -108.5 -67.5t-53.5 -40.5q-10 0 -22.5 9.5t-11.5 21.5q0 9 12 22t36 30z" />
    <glyph glyph-name="H" unicode="H" horiz-adv-x="632" 
d="M152 406l129 57q123 54 145 67t45 30q-2 147 10.5 220t48.5 73q21 -1 30 -9.5t9 -30.5q0 -2 0 -1.5t-10 -68.5q-3 -15 -4 -40.5t-2 -35.5l-7 -68q19 10 35.5 6t16.5 -14q0 -8 -12.5 -19t-26.5 -14q7 -201 14 -308.5t7 -126.5q-1 -42 -14 -64t-39 -22q-28 0 -41 24.5
t-13 72.5l-2 216q-2 126 -2.5 131t-0.5 11q-118 -35 -214 -93t-95 -105q0 -16 10 -73t10 -148q0 -35 -14.5 -48.5t-41.5 -12.5q-23 0 -31 12t-8 43q0 7 1 19.5t1 19.5q0 57 -10.5 175t-10.5 145q0 253 17 304t53 51q15 0 23.5 -14t8.5 -43q-1 -17 -5 -56t-5 -61
q-3 -40 -4.5 -95.5t-0.5 -105.5z" />
    <glyph glyph-name="I" unicode="I" horiz-adv-x="244" 
d="M90 654l2 49q1 39 16 60t38 21q21 0 34 -13t13 -34q-1 -64 -21.5 -318.5t0.5 -327.5l5 -18q9 -33 -7.5 -55t-46.5 -22q-31 0 -44 27.5t-13 116.5q0 62 9.5 233.5t14.5 280.5z" />
    <glyph glyph-name="J" unicode="J" horiz-adv-x="468" 
d="M76 87l24 -10q12 -6 35 -9.5t47 -2.5q77 0 118.5 40t41.5 141q0 34 -2 68t-7 77q-7 72 -8.5 99t-1.5 50q0 38 7.5 94.5t19.5 109.5q-45 -7 -87.5 -21.5t-79.5 -35.5l-90 -53q-19 -11 -26 -13.5t-13 -2.5q-12 0 -18.5 6t-6.5 18q0 15 10.5 29.5t176.5 92.5q82 38 143 61
t88 23q19 -1 25.5 -6.5t6.5 -16.5q-1 -4 -1.5 -8.5t-37.5 -82.5q-23 -49 -33 -102t-10 -145q0 -23 1 -59.5t2 -71.5q1 -23 4 -59t3 -53q0 -114 -61.5 -172.5t-154.5 -57.5q-55 -1 -108.5 18.5t-59.5 38.5q-1 2 -1 4.5t1 6.5q3 12 15.5 13.5t37.5 -8.5z" />
    <glyph glyph-name="K" unicode="K" horiz-adv-x="605" 
d="M177 784l3 -327q69 68 69.5 68.5t197.5 258.5l45 59q16 22 38 17.5t22 -24.5q0 -31 -72 -131.5t-222 -272.5q132 -58 268 -189.5t136 -213.5q-1 -17 -8.5 -24.5t-24.5 -7.5q-3 0 -6.5 1t-74.5 83l-66 76q-72 82 -144.5 130t-153.5 69q5 -119 7.5 -188t2.5 -96
q0 -32 -16.5 -47t-49.5 -15q-30 0 -38.5 23.5t-8.5 71.5v49t6 363l4 233q0 39 11.5 56.5t34.5 18.5q18 0 28.5 -9.5t11.5 -31.5z" />
    <glyph glyph-name="L" unicode="L" horiz-adv-x="512" 
d="M84 315v247q0 168 16 229t52 61q16 -1 25 -12.5t10 -65.5q0 -80 -6 -154.5t-6 -109.5q-1 -57 6 -174t8 -185q18 9 75.5 37.5t91.5 45.5q8 4 32.5 16t38.5 19q47 23 85 41.5t52 26.5l81 41q24 12 29 13.5t10 1.5q6 -1 9.5 -2.5t3.5 -5.5q0 -8 -10 -16.5t-38 -25.5l-28 -17
q-130 -79 -196 -121.5t-120 -79.5l-126 -87q-51 -35 -83 -28t-32 58q0 42 10 89.5t10 157.5z" />
    <glyph glyph-name="M" unicode="M" horiz-adv-x="823" 
d="M193 789l254 -331q230 323 226.5 313.5t-2.5 -6.5l11 36q13 42 33 67t40 25q14 0 26 -16t12 -41q0 -14 -20.5 -169t-20.5 -274q0 -105 12 -192.5t12 -93.5q-1 -31 -15.5 -50.5t-39.5 -19.5q-31 0 -45 43t-14 145q0 58 11.5 203t3.5 265q-81 -58 -149.5 -199.5
t-105.5 -141.5q-15 0 -93.5 118t-161.5 194q-15 -145 -17.5 -226.5t-2.5 -237.5q0 -49 5.5 -67.5t5.5 -67.5q0 -20 -17.5 -35.5t-34.5 -14.5q-22 -1 -34 18t-12 58q0 43 7.5 169t9.5 217l3 237q0 61 18 89t51 28q11 0 17.5 -2.5t15.5 -18.5z" />
    <glyph glyph-name="N" unicode="N" horiz-adv-x="717" 
d="M172 756l2 -18q1 -11 4 -21.5t154 -259.5l59 -98q75 -126 110.5 -169.5t79.5 -81.5q-3 312 -7 414t-4 188v81q-1 29 14.5 49.5t35.5 20.5q14 0 23 -12.5t8 -164.5l-5 -548q-1 -26 1.5 -44.5t18.5 -58.5q8 -22 11.5 -33t3.5 -19q0 -13 -20 -25.5t-35 -12.5
q-35 0 -121 101.5t-134 179.5l-52 84q-36 57 -74.5 114.5t-77.5 111.5q-6 -46 -12 -149.5t-6 -179.5q0 -83 16 -113.5t16 -20.5q0 -16 -21 -34t-46 -18q-36 0 -50 35t-2 105q4 25 7.5 76t4.5 93l7 392q0 32 17 47.5t51 15.5q9 0 14.5 -3t8.5 -24z" />
    <glyph glyph-name="O" unicode="O" horiz-adv-x="676" 
d="M282 816l6 -5q18 -16 55.5 -4t59.5 12q99 -1 168.5 -101.5t69.5 -233.5q0 -207 -113 -335.5t-244 -128.5q-111 -1 -180 98.5t-69 257.5q0 123 76 286t144 163q8 0 14.5 -2.5t12.5 -6.5zM303 753l-8 -11q-9 -3 -19.5 -1.5t-31.5 7.5q-60 -77 -90.5 -170.5t-29.5 -168.5
q-1 -135 53 -218t137 -83q107 -1 185.5 100.5t78.5 243.5q-1 142 -68.5 232.5t-151.5 90.5q-16 0 -32 -6.5t-23 -15.5z" />
    <glyph glyph-name="P" unicode="P" horiz-adv-x="509" 
d="M32 707l118 90q80 61 189.5 103.5t194.5 42.5q43 0 67 -21.5t24 -62.5q0 -95 -151 -242.5t-300 -229.5q1 -82 0 -137t0 -92q0 -27 1 -43.5t3 -32.5q6 -39 6.5 -39.5t0.5 -3.5q0 -16 -10 -22t-28 -6q-33 0 -45 16.5t-11 51.5q0 69 6.5 91t6.5 53v36q0 24 -0.5 35t-2.5 27
q-2 17 -2.5 27t-0.5 25q-9 5 -14.5 14t-5.5 17t6 15.5t17 11.5l3 279q-20 -20 -41.5 -33t-35.5 -12q-6 0 -9 2.5t-3 9.5q0 9 2 14.5t15 15.5zM178 469q136 79 254.5 194.5t118.5 183.5q0 20 -13.5 33.5t-38.5 13.5q-61 0 -141 -36.5t-170 -112.5q-9 -59 -11.5 -126t1.5 -150
z" />
    <glyph glyph-name="Q" unicode="Q" horiz-adv-x="665" 
d="M285 796l23 -21q91 19 92 19.5t4 0.5q97 0 161.5 -84t64.5 -218q0 -97 -28.5 -186.5t-80.5 -151.5q45 -57 70 -104.5t25 -83.5q0 -21 -4 -36t-11 -15q-5 0 -9.5 4t-9.5 14q-18 30 -48.5 68.5t-62.5 70.5l-17 -12q-37 -26 -68.5 -37t-65.5 -8q-131 -3 -208 87.5t-77 246.5
q0 168 86.5 316.5t138.5 148.5q1 -1 3 -1.5t22 -17.5zM437 124l-66 74q-29 32 -45.5 57.5t-16.5 38.5q0 15 11.5 27t28.5 12q12 0 24 -7t36 -36l25 -31l50 -59q43 64 66 145t24 180q0 100 -53 164t-137 64q-117 0 -185.5 -101t-68.5 -277q0 -143 58.5 -214.5t160.5 -70.5
q28 -1 48.5 7.5t39.5 26.5z" />
    <glyph glyph-name="R" unicode="R" horiz-adv-x="588" 
d="M117 540l3 203q-7 -25 -30.5 -56t-40.5 -31q-11 0 -17.5 8.5t-6.5 25.5q0 74 139.5 132.5t279.5 58.5q66 0 97.5 -20t31.5 -58q0 -67 -88.5 -136t-290.5 -147q178 -95 312 -248.5t134 -252.5q0 -22 -10.5 -32t-28.5 -10q-15 0 -23.5 6.5t-31.5 54.5l-26 54
q-47 96 -131.5 186t-197.5 158q-1 -145 -7.5 -232t-5.5 -85q0 -14 1.5 -19t9.5 -19q13 -22 15 -27t2 -9q0 -13 -10.5 -18t-42.5 -5q-31 0 -38 17t-5 67l1 43q5 225 4.5 250t-1.5 51q-40 18 -45 24.5t-5 14.5q0 14 17 29.5t36 21.5zM191 754v-184q151 66 229 120t79 94
q-1 16 -20.5 28t-49.5 12q-46 0 -112 -19.5t-126 -50.5z" />
    <glyph glyph-name="S" unicode="S" horiz-adv-x="555" 
d="M252 597l30 -15q154 -78 204 -138t50 -130q0 -126 -136.5 -214.5t-389.5 -88.5q-7 -1 -8.5 0t-2.5 2q-3 2 -0.5 4.5t8.5 3.5l36 5q215 29 308.5 93t93.5 152q0 50 -35.5 99t-90.5 82l-111 64q-128 73 -147 96.5t-19 53.5q0 85 135.5 165.5t225.5 80.5q11 0 16.5 -7
t5.5 -21q0 -15 -7 -24t-26 -12l-23 -4q-84 -15 -151 -63t-67 -92q0 -22 18 -41t83 -51z" />
    <glyph glyph-name="T" unicode="T" horiz-adv-x="524" 
d="M-68 661l77 33q269 115 478.5 181.5t309.5 66.5q2 0 3.5 -0.5t2.5 -1.5q0 -3 -1.5 -5t-13.5 -4l-37 -8q-51 -11 -196 -65t-249 -99q6 -170 9.5 -269.5t3.5 -142.5q0 -225 -14 -273.5t-40 -48.5q-14 -1 -24.5 19t-9.5 382v303q-17 -6 -28.5 -11t-194.5 -93l-64 -31
q-25 -13 -39.5 -3.5t-14.5 28.5q0 12 7.5 21t34.5 21z" />
    <glyph glyph-name="U" unicode="U" horiz-adv-x="619" 
d="M490 848l23 -82q41 -147 52.5 -213t11.5 -115q0 -175 -73 -300.5t-212 -125.5q-125 0 -185.5 91t-59.5 270q0 142 38.5 311t79.5 170q11 0 17 -6.5t6 -32.5q0 -129 -30.5 -211t-30.5 -213q-1 -144 50 -224.5t140 -80.5q96 0 145 93t49 257q0 63 -13.5 139.5t-34.5 142.5
l-31 95q-17 52 -10.5 66t32.5 14q12 0 20 -8.5t16 -36.5z" />
    <glyph glyph-name="V" unicode="V" horiz-adv-x="500" 
d="M466 707l49 125q10 25 14 31t8 6q7 -1 7.5 -9t-7.5 -32l-46 -131q-13 -36 -42 -142t-60 -230l-64 -253l-7 -25l-10 -1l-17 -3l-6 -1.5t-32 -18.5l-10 -6q-18 -11 -28 -6.5t-20 48.5l-28 116q-3 9 -21 95.5t-90 280.5q-16 40 -32.5 98.5t-16.5 80.5q0 21 14.5 36.5
t30.5 15.5q12 0 21.5 -11t22.5 -49l17 -54q39 -127 71 -196t55 -168l31 -139q64 166 117 321t79 221z" />
    <glyph glyph-name="W" unicode="W" horiz-adv-x="704" 
d="M522 15l-217 362q-34 -192 -68.5 -278.5t-78.5 -86.5q-21 0 -32 15t-13 57q-2 21 -6.5 52.5t-24.5 145.5q-23 124 -31 205t-6 160l1 73q0 30 8 41.5t23 11.5q10 0 15.5 -9t9.5 -33l9 -71q20 -160 35 -235t51 -233q33 58 58 119.5t25 97.5q0 11 -1.5 20t-2.5 17
q-4 12 -4 15v6q0 13 16.5 32t27.5 19q9 0 15.5 -5.5t11.5 -14.5l32 -72q34 -79 81.5 -159.5t95.5 -142.5q37 152 61.5 342.5t28.5 330.5l2 85q0 18 7 30.5t17 12.5q7 -1 11 -9t4 -48q0 -47 -10.5 -194.5t-34.5 -453.5q-6 -76 -14.5 -123t-22.5 -71q-15 -28 -39.5 -32
t-39.5 21z" />
    <glyph glyph-name="X" unicode="X" horiz-adv-x="428" 
d="M188 431l-69 149q-77 165 -89.5 195.5t-12.5 43.5q0 16 10.5 26.5t30.5 10.5q15 0 24 -5.5t21 -35.5l20 -52q23 -63 47.5 -118t54.5 -112q49 76 96 160t51 90l17 26q2 3 7.5 4.5t22.5 2.5q5 0 5.5 -5.5t-2.5 -11.5l-63 -139q-56 -123 -70.5 -151t-30.5 -59
q164 -405 164.5 -406.5t0.5 -3.5q0 -16 -9 -25.5t-20 -8.5q-8 0 -15.5 6t-99.5 203l-65 138l-47 -98q-155 -321 -165.5 -325t-11.5 -5h-0.5h-0.5q0 16 89 240t110 266z" />
    <glyph glyph-name="Y" unicode="Y" horiz-adv-x="440" 
d="M107 740l49 -81q82 -136 82 -136.5t38 -41.5q16 50 22.5 72.5t12.5 41.5q40 143 38.5 139t0.5 0l30 92q8 27 15 32.5t18 5.5q9 0 14.5 -3t6.5 -7v-1v-3q-1 -3 0.5 -7.5t1.5 -6.5q-1 -5 -2 -12t-71 -286l-34 -135q6 -7 12 -18.5t7 -17.5q0 -7 -7.5 -14t-16.5 -10
q-36 -58 -63.5 -125.5t-59.5 -172.5l-45 -144q-11 -34 -20.5 -44.5t-23.5 -16.5q-10 -4 -12 1t9 38l56 175q10 34 30 113t47 199l-62 90q-76 108 -121.5 182.5t-44.5 90.5q0 18 13 32.5t35 14.5q11 0 19.5 -4.5t25.5 -31.5z" />
    <glyph glyph-name="Z" unicode="Z" horiz-adv-x="480" 
d="M525 235l54 20q18 7 26 5.5t9 -8.5q0 -6 -6.5 -13t-14.5 -11l-181 -97q-42 -23 -150 -83.5t-140 -80.5l-66 -40q-27 -16 -40 -22.5t-19 -6.5q-2 0 -3 0.5t-2 0.5v2.5v3.5q1 2 3.5 12.5t129.5 314.5l38 91q46 111 97 220t110 221q-346 -171 -339 -159.5l7 11.5
q0 47 -1 46.5t2 1.5l146 70q294 141 301 140.5t8 -1.5q0 -4 -58.5 -114t-117.5 -233l-70 -145q-81 -168 -103 -222t-38 -111q114 63 160 85.5t258 101.5z" />
    <glyph glyph-name="bracketleft" unicode="[" horiz-adv-x="332" 
d="M238 808l37 -1q4 -5 5.5 -7t1.5 -4q-1 -25 -70.5 -21t-69.5 -70q0 -6 5.5 -87.5t5.5 -178.5q0 -25 -3 -74t-2 -71q0 -196 34.5 -226t125.5 -30q4 0 12.5 2.5t8.5 0.5q0 -11 -6 -15t-23 -4q-15 0 -37 2.5t-30 3.5q-9 0 -26.5 0.5t-24.5 1.5q-65 3 -61.5 2t3.5 0
q-29 7 -39 87t-13 318l-2 133q-2 80 -1.5 127.5t0.5 33.5q0 15 2.5 27.5t166.5 49.5z" />
    <glyph glyph-name="backslash" unicode="\" horiz-adv-x="590" 
d="M63 871q-22 48 -25.5 58t-2.5 18q0 11 7 17t22 7q15 0 24.5 -6.5t14.5 -18.5q79 -195 203 -484.5t215 -492.5q24 -33 36.5 -69.5t12.5 -80.5q-1 -1 -3.5 -1.5t-61.5 123.5q-78 216 -247.5 544t-194.5 386z" />
    <glyph glyph-name="bracketright" unicode="]" horiz-adv-x="332" 
d="M94 22l-37 1q-5 4 -6 6t-1 5q0 24 70 20t70 71q0 5 -5.5 86.5t-5.5 179.5q-1 24 2 73t3 72q-1 195 -35.5 225t-124.5 31q-5 0 -13.5 -3t-7.5 0q0 10 5.5 14.5t23.5 4.5q14 0 36 -3t31 -3q8 -1 25.5 -1.5t25.5 -0.5q64 -4 60.5 -3t-2.5 1q28 -8 38 -88t14 -317l2 -133
q1 -81 1 -128.5t0 -32.5v-38z" />
    <glyph glyph-name="asciicircum" unicode="^" horiz-adv-x="444" 
d="M298 679l-23 28q-4 4 -18 24.5t-38 44.5q-72 -45 -101 -84.5t-48 -41.5q-3 -1 -4 -1t-2 1q-3 0 -6 4.5t-3 7.5q0 2 1 4.5t11 12.5l6 6q77 77 86.5 87.5t26.5 32.5l18 23q19 24 27.5 27.5t20.5 3.5t30.5 -23.5t25.5 -29.5q57 -61 69 -78t12 -28q-1 -17 -13 -28.5
t-33 -11.5q-16 -1 -27 4t-18 15z" />
    <glyph glyph-name="underscore" unicode="_" horiz-adv-x="777" 
d="M723 -249q-307 -16 -417.5 -15.5t-244.5 4.5q-27 -4 -40 2.5t-19 22.5q-5 15 4 21.5t42 2.5q83 5 303 6.5t370 -0.5q29 7 42.5 1t13.5 -27q0 -7 -8 -11t-46 -7z" />
    <glyph glyph-name="grave" unicode="`" horiz-adv-x="177" 
d="M100 660l-51 25l-10 2t-15 1q-2 0 -5.5 -0.5t-4.5 -0.5q-1 -1 -2.5 -1h-1.5q-3 0 -5.5 -0.5l-2.5 -0.5q-1 0 -1.5 0.5t-0.5 3.5v4.5v7.5q2 23 11.5 31.5t25.5 8.5q51 -1 95.5 -32t44.5 -75q-1 -15 -6.5 -26t-9.5 -11q-1 0 -0.5 -0.5t0.5 17.5q-1 8 -6 14.5t-55 31.5z" />
    <glyph glyph-name="a" unicode="a" horiz-adv-x="495" 
d="M423 106v-31q-1 -54 -10 -69.5t-29 -15.5q-30 1 -37.5 25t2.5 69q-46 -31 -94.5 -47.5t-96.5 -16.5q-56 0 -96 25.5t-40 76.5q0 101 118.5 168.5t215.5 12.5v94q-1 44 -19 62.5t-51 19.5q-33 0 -75 -21t-96 -65q-21 -17 -34 -15t-13 21q0 42 86 87.5t147 46.5
q61 0 93 -34.5t32 -140.5v-191q21 6 36 -2t15 -21q-1 -11 -14.5 -21t-39.5 -17zM349 128v31q0 66 -22 90t-73 24q-62 0 -111 -43.5t-48 -86.5q-1 -27 18.5 -48t52.5 -21q36 0 89 14.5t94 39.5z" />
    <glyph glyph-name="b" unicode="b" horiz-adv-x="469" 
d="M171 6l-57 -44q-13 -9 -16 -9.5t-6 0.5t-4 3.5t-1 9.5q-1 13 6.5 33t17.5 39q-28 -8 -42 -1t-14 37q0 15 1 48t2 50q0 34 -9 149t-9 294q0 113 11.5 147.5t38.5 34.5q15 0 21 -10t6 -27q0 -10 -3.5 -40.5t-3.5 -77.5q0 -6 -0.5 14t16.5 -424q30 101 91 174t128 74
q49 0 76.5 -37t27.5 -91q0 -74 -53.5 -144t-224.5 -202zM160 63q93 61 153.5 139t60.5 147q0 31 -15.5 48.5t-42.5 18.5q-57 0 -116.5 -114.5t-59.5 -172.5q0 -19 4.5 -35t15.5 -31z" />
    <glyph glyph-name="c" unicode="c" horiz-adv-x="399" 
d="M400 78q-48 -38 -96 -54t-97 -16q-83 0 -133.5 61.5t-50.5 146.5q0 123 87.5 215t174.5 92q35 0 54 -19t19 -45q0 -9 -2 -11.5t-6 -1.5q-2 -1 -3.5 -0.5t-14.5 9.5q-6 3 -14 5t-18 2q-87 0 -145 -73t-58 -161q0 -76 47.5 -123t125.5 -46q23 0 46.5 6.5t55.5 24.5
q23 13 27 13.5t8 1.5q6 -1 7.5 -2t1.5 -4q0 -5 -2.5 -8.5t-13.5 -12.5z" />
    <glyph glyph-name="d" unicode="d" horiz-adv-x="496" 
d="M432 427v-41q0 -166 12 -264.5t12 -113.5q0 -19 -11 -28.5t-29 -9.5q-19 1 -27.5 12.5t-15.5 96.5l-5 59l-28 -32q-42 -48 -79.5 -69t-76.5 -21q-69 0 -115 54.5t-46 135.5q0 101 60 158t171 58q27 0 52 -4.5t51 -13.5q9 76 5 160t-2 131q1 35 12.5 55t31.5 20
q16 0 23.5 -13t8.5 -50q0 -56 -2 -144t-2 -136zM357 346q-25 7 -58 11t-68 4q-57 0 -95.5 -37.5t-38.5 -106.5q0 -57 29 -95t81 -38q47 0 83 28t72 92q-3 36 -4.5 71.5t-0.5 70.5z" />
    <glyph glyph-name="e" unicode="e" horiz-adv-x="365" 
d="M396 113q-55 -47 -108 -71t-103 -24q-74 0 -116.5 47t-42.5 136q0 127 75.5 220t156.5 93q27 -1 46.5 -15t19.5 -38q0 -45 -55 -119t-164 -176q9 -44 34.5 -67.5t69.5 -23.5q37 0 91.5 20t88.5 44q10 7 16 5t6 -10q0 -5 -3 -9t-12 -12zM216 346l21 26q10 12 17.5 28
t7.5 25q-1 12 -8.5 20t-21.5 8q-51 0 -99.5 -75.5t-38.5 -163.5q30 29 63.5 65.5t58.5 66.5z" />
    <glyph glyph-name="f" unicode="f" horiz-adv-x="295" 
d="M84 251q-9 334 36 436.5t138 102.5q47 0 82 -34.5t35 -78.5q0 -19 -7.5 -29.5t-19.5 -9.5q-11 0 -17.5 5.5t-14.5 31.5q-11 36 -27.5 50.5t-37.5 14.5q-60 0 -85.5 -114.5t-15.5 -340.5q85 49 123 69.5t52 20.5q5 0 7 -2.5t2 -6.5q0 -8 -4 -17t-173 -118q4 -146 19 -310
t15 -193q0 -50 -7 -60.5t-22 -10.5q-23 0 -35 36.5t-38 502.5q-25 -16 -59 -33.5t-51 -20.5q-1 -1 -2 -1t-2 1q-1 0 -1.5 1.5t-0.5 4.5q1 8 15.5 22.5t95.5 80.5z" />
    <glyph glyph-name="g" unicode="g" horiz-adv-x="486" 
d="M-23 -315l50 -35q27 -18 65.5 -27.5t101.5 -9.5q101 0 137.5 47.5t37.5 195.5q0 50 -6 120t-7 171q-55 -67 -98 -94t-86 -27q-69 0 -107 48.5t-38 126.5q-1 101 70 167t159 66q33 0 59.5 -17.5t44.5 -48.5q20 36 36.5 53t33.5 17q25 0 28 -20.5t-16 -144.5
q-5 -29 -7.5 -60.5t-2.5 -201.5q-1 -27 0.5 -59t4.5 -93q3 -69 3.5 -81t0.5 -22q0 -98 -61.5 -152.5t-159.5 -55.5q-85 0 -203.5 46.5t-119.5 79.5q0 10 7.5 20t15.5 10q19 0 30.5 -3.5t26.5 -15.5zM350 189l1 29q2 82 -19.5 121t-70.5 39q-58 0 -108.5 -53.5t-50.5 -129.5
q0 -52 28.5 -80t71.5 -28q36 0 74.5 27t73.5 75z" />
    <glyph glyph-name="h" unicode="h" horiz-adv-x="437" 
d="M313 95v121q-1 119 -14 137t-36 18q-20 0 -48.5 -32.5t-66.5 -93.5q11 -188 11 -181t0 5q0 -33 -11.5 -47.5t-34.5 -14.5q-20 0 -29 10t-13 86q-3 49 -3 94t-5 129q-24 335 -23.5 317.5t0.5 -11.5q0 55 10.5 80t33.5 25q14 0 23.5 -18t12.5 -70l6 -112q2 -46 7.5 -107.5
t12.5 -117.5q42 58 93 108t75 50q27 0 43 -35t21 -174q2 -94 3 -104t3 -20q12 -87 11.5 -85.5t0.5 -0.5q0 -28 -9.5 -38t-27.5 -10q-24 0 -35 19.5t-11 72.5z" />
    <glyph glyph-name="i" unicode="i" horiz-adv-x="182" 
d="M156 647l-35 -31q-17 -16 -29.5 -21t-25.5 -5q-15 0 -24.5 8t-9.5 24q0 15 9.5 26t67.5 30l28 9q6 2 13.5 5t26.5 14q8 4 12.5 6.5t9.5 3.5h3.5h2.5q2 -2 4.5 -6.5t2.5 -7.5t-1 -5.5t-55 -49.5zM56 238l13 169q3 39 14.5 61t33.5 22q11 0 16 -8t5 -28q0 -26 -9 -106
t-9 -163q0 -55 5.5 -93t5.5 -39q-1 -20 -12 -31t-30 -11q-24 0 -32.5 17t-8.5 57q-1 25 0.5 55.5t7.5 97.5z" />
    <glyph glyph-name="j" unicode="j" horiz-adv-x="242" 
d="M62 506l41 11q16 4 35 11.5t27 7.5q15 0 23.5 -9.5t8.5 -27.5q0 -10 -4.5 -25.5t-6.5 -42.5q-2 -21 -4 -48.5t-2 -36.5q0 -56 8 -198t8 -196q0 -140 -68 -218t-212 -78q-58 0 -129.5 24.5t-71.5 54.5q0 12 8.5 18.5t21.5 6.5q11 0 22.5 -3t41.5 -19q29 -14 57 -21.5
t55 -7.5q101 0 151 60t50 155q-1 52 -5 235t-7 307q-30 -23 -62.5 -21t-32.5 24q-1 13 7.5 20.5t39.5 16.5zM79 758q7 7 17 11t21 5q29 0 45 -15.5t16 -38.5q0 -15 -13 -25.5t-34 -10.5q-32 -1 -48.5 13t-16.5 32q0 7 3 15t10 14z" />
    <glyph glyph-name="k" unicode="k" horiz-adv-x="486" 
d="M117 384l5 -117q125 68 217 164.5t108 96.5q7 0 10 -4t4 -11q0 -46 -88.5 -126.5t-188.5 -128.5q121 6 206.5 -54t85.5 -150q-1 -21 -10 -30.5t-27 -8.5q-14 -1 -18.5 5t-6.5 23q-13 72 -97 123.5t-189 52.5q24 -164 24.5 -167t0.5 -4q0 -27 -14 -40t-40 -13
q-13 0 -21.5 3.5t-18.5 259.5l-10 232q-4 81 -7.5 120.5t-5.5 116.5q-1 27 5 39t23 12q25 0 32 -12t11 -47q5 -46 6 -161.5t4 -173.5z" />
    <glyph glyph-name="l" unicode="l" horiz-adv-x="296" 
d="M124 290l1 -117q0 -51 14 -73t44 -22q29 0 62 20t57 52q25 34 39.5 49t22.5 15q4 -1 6 -3.5t2 -10.5q0 -55 -87 -121t-162 -65q-38 0 -54.5 20t-16.5 76q-1 28 -1 35t1 13q1 165 8.5 329t9.5 222q0 43 14.5 64t38.5 21q9 0 13.5 -6t5.5 -15q0 -1 -10 -172.5t-8 -310.5z
" />
    <glyph glyph-name="m" unicode="m" horiz-adv-x="660" 
d="M175 295l-39 -41q-1 -23 -1.5 -45t1.5 -110q0 -51 -13 -70t-36 -19q-17 0 -23.5 15t-5.5 51q0 16 3.5 88t5.5 155q0 19 -0.5 52.5t0.5 44.5q0 34 7.5 47.5t29.5 13.5q18 0 28 -7.5t12 -28.5q0 -2 0 -1t0 -107q42 41 110.5 88.5t90.5 47.5q7 0 11 -4.5t4 -11.5
q0 -60 -0.5 -60.5t-0.5 -35.5q154 111 172.5 121t32.5 10q26 -1 35.5 -15t9.5 -57q0 -3 -0.5 -4.5t-11.5 -140.5q-3 -27 -3.5 -46t-0.5 -40q0 -32 1.5 -48.5t6.5 -27.5l6 -16q9 -26 -2.5 -44.5t-36.5 -18.5q-29 -1 -40 16.5t-11 60.5q-1 14 0 32t8 118q1 25 3 61t2 53
q0 22 -8 34t-22 12q-21 0 -64.5 -37t-73.5 -75q2 -104 1.5 -98.5t0.5 4.5q0 -21 3 -49t3 -54q0 -39 -14 -61t-33 -22t-26.5 14.5t-7.5 51.5q0 2 -0.5 1.5t8.5 148.5q1 20 4 49.5t3 43.5q0 19 -7.5 27.5t-19.5 9.5q-15 0 -45 -24t-57 -52z" />
    <glyph glyph-name="n" unicode="n" horiz-adv-x="485" 
d="M138 305l46 53q46 53 99.5 91t93.5 38q23 0 35 -16t17 -148l3 -82q2 -59 7.5 -83.5t5.5 -67.5q0 -30 -13 -44t-35 -14q-25 0 -34.5 19.5t-9.5 81.5q0 30 3.5 82.5t3.5 99.5q0 62 -8.5 81.5t-26.5 19.5q-23 0 -52 -25t-96 -103l-36 -42q-1 -96 6.5 -106t7.5 -101
q0 -23 -18 -36t-39 -14q-20 0 -30 12.5t-6 121.5l2 66q2 74 -11 148.5t-13 85.5q0 24 13.5 36.5t36.5 13.5q22 0 31.5 -15.5t12.5 -65.5z" />
    <glyph glyph-name="o" unicode="o" horiz-adv-x="409" 
d="M379 257q0 -102 -54.5 -174t-132.5 -72q-76 0 -119 76t-43 191q0 111 44 180t131 69q79 0 126.5 -66t47.5 -204zM320 260q0 105 -28 164t-75 59q-48 0 -81 -55.5t-32 -155.5q0 -84 32.5 -139.5t81.5 -55.5q42 0 72 50.5t30 132.5z" />
    <glyph glyph-name="p" unicode="p" horiz-adv-x="583" 
d="M63 -154v539q-1 104 7.5 124.5t40.5 20.5q21 0 27.5 -10.5t6.5 -46.5q0 -69 -7 -94.5t-3 -123.5q106 137 199 210t174 73q32 0 45 -13.5t13 -46.5q0 -160 -131.5 -313.5t-213.5 -153.5q-7 0 -10.5 2t-3.5 9q-1 9 2.5 15.5t20.5 18.5l47 33q71 49 141 156.5t70 172.5
q0 35 -21.5 45t-47.5 -9l-46 -34q-116 -86 -181 -184t-65 -202q0 -176 3.5 -273.5t11.5 -125.5l8 -31q9 -36 -11.5 -67.5t-46.5 -31.5q-17 1 -25.5 16.5t-8.5 44.5q0 15 2 43t3 64v10v23q-1 4 -0.5 2t0.5 138z" />
    <glyph glyph-name="q" unicode="q" horiz-adv-x="521" 
d="M393 364l-5 120q-2 35 5.5 44.5t27.5 9.5q17 0 24 -10t34 -529l8 -158q5 -103 5 -107t1 -7q0 -6 3 -31t3 -42q0 -32 -7.5 -41.5t-21.5 -9.5q-40 0 -53 143t-6 425q-19 -74 -73 -113.5t-138 -39.5q-77 0 -123 54.5t-46 153.5q0 91 62 151t162 60q42 0 77 -18.5t61 -54.5z
M373 246q-1 61 -36.5 101t-92.5 40q-60 0 -99.5 -46.5t-39.5 -116.5q-1 -64 35.5 -107.5t96.5 -42.5q64 0 100 41.5t36 130.5z" />
    <glyph glyph-name="r" unicode="r" horiz-adv-x="331" 
d="M53 259l-4 58q-1 11 -3 32.5t-2 31.5q-4 52 -4 57.5v11.5q-1 36 6.5 44t24.5 8q27 0 38 -16.5t11 -64.5q-1 -86 0 -101t3 -35q38 75 92.5 140t90.5 66q22 -1 34.5 -20t12.5 -55q-1 -23 -5.5 -31t-15.5 -7q-6 0 -13 2.5t-11 7.5q-13 13 -19.5 15.5t-15.5 2.5
q-35 0 -81 -78t-46 -136q0 -18 1.5 -51.5t1.5 -55.5q0 -43 -10.5 -62t-38.5 -19q-20 0 -27 4t-10 12q-4 8 -4 77t-6 162z" />
    <glyph glyph-name="s" unicode="s" horiz-adv-x="339" 
d="M194 208l-52 32q-54 33 -80.5 71t-26.5 83q0 57 63 105t133 48q17 0 26.5 -8t10.5 -22q-1 -10 -7.5 -17t-58.5 -25q-66 -24 -81.5 -40t-15.5 -39q0 -21 16.5 -45.5t44.5 -40.5l56 -35q74 -47 92.5 -68t19.5 -42q0 -61 -108 -138t-212 -77q-11 1 -16 3t-5 6q0 5 5.5 8.5
t20.5 7.5l45 13q83 23 141.5 68t58.5 84q0 12 -10.5 24.5t-59.5 43.5z" />
    <glyph glyph-name="t" unicode="t" horiz-adv-x="304" 
d="M70 595l-5 110q-2 25 9 42t31 17q18 0 27 -10t9 -58v-67l104 49q8 4 21.5 14t54.5 22q4 1 5.5 0.5t2.5 -0.5q0 -1 0.5 -1.5l0.5 -0.5q0 -6 -18 -19.5t-45 -28.5l-125 -70l17 -132q10 -80 9.5 -169.5t0.5 -99.5l2 -41q3 -73 60.5 -17.5t76.5 55.5q6 -1 10.5 -3.5t4.5 -6.5
q0 -1 -0.5 -1.5l-25.5 -25.5l-29 -29q-9 -9 -26 -30t-50 -65q-14 -18 -29.5 -25.5t-33.5 -7.5q-14 0 -21 11t-7 30q0 17 0.5 50t0.5 50q0 38 -2.5 83t-8.5 135l-15 203q-35 -17 -67.5 -47t-42.5 -29q-14 0 -16.5 2.5t-2.5 11.5q0 5 4.5 12t118.5 87z" />
    <glyph glyph-name="u" unicode="u" horiz-adv-x="448" 
d="M401 148l12 -49q9 -39 -2.5 -60t-35.5 -20q-18 0 -28.5 19t-14.5 105q-25 -54 -69 -92t-85 -37q-56 0 -88.5 56.5t-39.5 218.5q-3 54 -3 87t3 60q4 56 13 65.5t30 9.5q19 0 27 -11.5t7 -100.5q0 -192 21 -251t69 -59q44 0 70.5 44.5t27.5 137.5v55q-1 26 -1 37v21
q-2 33 -2 36.5v7.5q-1 34 8.5 50.5t29.5 16.5q15 -1 24 -17t9 -54v-85q0 -63 4.5 -109.5t13.5 -81.5z" />
    <glyph glyph-name="v" unicode="v" horiz-adv-x="318" 
d="M71 499l13 -64q27 -137 40.5 -189.5t36.5 -128.5q3 11 3 10.5t81 251.5l41 128q2 6 9 18t7 9q-1 -25 -1.5 -36t-1.5 -17l-19 -91q-44 -208 -76.5 -295.5t-66.5 -87.5q-12 0 -18.5 7.5t-14.5 44.5l-9 37q-50 203 -66.5 282.5t-16.5 110.5q0 17 9 27.5t25 11.5
q10 0 15.5 -7t9.5 -22z" />
    <glyph glyph-name="w" unicode="w" horiz-adv-x="506" 
d="M278 195l-24 50q-30 -91 -71 -165.5t-65 -74.5q-30 0 -49.5 93t-19.5 202q0 98 12 141t49 43q11 0 14.5 -5t3.5 -19q0 -10 -8 -58t-8 -113q0 -47 7 -86t25 -81q25 32 41.5 65.5t32.5 89.5l16 57q4 16 12 23.5t23 7.5q8 0 12 -4t9 -19l10 -38q10 -41 39.5 -98.5
t58.5 -97.5q10 41 15 78.5t5 116.5q-1 5 -1 11t1 23q0 104 6 149t26 48h3.5h3.5q4 -2 6.5 -6t2.5 -18q0 1 -4 -40.5t-3 -110.5q-1 -16 1 -46t2 -45q0 -145 -18.5 -183t-55.5 -38q-22 0 -44.5 29t-65.5 119z" />
    <glyph glyph-name="x" unicode="x" 
d="M123 469l19 -39q21 -45 34 -67t29 -45q42 54 115 114.5t100 60.5q16 0 21 -13t-10 -28l-194 -192q17 -27 37 -51t42 -43l43 -39q10 -10 16.5 -24t7.5 -26q0 -16 -14.5 -26.5t-32.5 -10.5q-19 0 -40 16t-67 79l-43 58q-25 -32 -51 -70t-42 -68l-45 -81q-5 -8 -13 -10
t-15 3q-6 4 -6 13.5t14 42.5l30 72q21 50 41.5 88t45.5 74q-44 62 -83 129t-38 86q0 15 14 30.5t31 15.5q14 0 28.5 -13.5t25.5 -35.5z" />
    <glyph glyph-name="y" unicode="y" horiz-adv-x="357" 
d="M98 476l29 -64q-9 19 17.5 -40t60.5 -121q39 83 55 124.5t38 89.5l25 55q2 6 12.5 6.5t17.5 -2.5q5 -1 5.5 -6.5t-1.5 -12.5l-65 -188q-75 -216 -135.5 -369t-114.5 -274l-26 -57q-7 -13 -11 -16t-9 -4q-6 1 -10.5 5.5t-5.5 11.5q0 3 0 2t138 389l52 147
q-35 59 -95.5 178.5t-60.5 139.5q0 15 12.5 28t31.5 13q13 0 21.5 -7t18.5 -28z" />
    <glyph glyph-name="z" unicode="z" horiz-adv-x="360" 
d="M208 502l63 33q24 12 36.5 -0.5t0.5 -37.5l-31 -65q-71 -148 -109.5 -232.5t-75.5 -171.5q128 67 209.5 126t96.5 59q8 0 11.5 -3t3.5 -9q0 -42 -164 -150t-210 -108q-28 1 -34 16.5t6 39.5l65 129q30 61 67.5 146t69.5 164q-131 -77 -136.5 -78t-9.5 -1q-16 0 -25.5 9
t-9.5 24q0 11 6.5 19.5t31.5 20.5q16 7 62.5 31t75.5 39z" />
    <glyph glyph-name="braceleft" unicode="{" horiz-adv-x="366" 
d="M324 15l30 -4q2 -1 4.5 -2t2.5 -2q0 -3 -3 -4t-27 -1q-142 0 -166.5 26t-28.5 176q-1 43 -4.5 100.5t-5.5 73.5q-4 18 -12 31t-20 20q-45 22 -45 23.5v3.5q0 10 4 16.5t19 8.5q35 4 51.5 24.5t19.5 117.5v4.5v50.5q-1 136 25.5 164.5t99.5 28.5q13 -1 17.5 -2t5.5 -6v-3
v-1l-2 -2l-1 -1q-1 -1 -2 -1t-3 1q-36 4 -61 -19t-25 -74q0 -26 3 -80t3 -71q-1 -85 -26 -110.5t-95 -44.5q45 -10 71.5 -24t46.5 -243q10 -119 27 -142t97 -33z" />
    <glyph glyph-name="bar" unicode="|" horiz-adv-x="166" 
d="M131 888q-25 -558 -26 -638.5t-1 -157.5q-2 -354 -11.5 -359.5l-9.5 -5.5q-9 0 -13 17.5t-3 133.5v154.5v63.5q-3 284 -3 290.5t1 14.5q5 420 5 422t-5 114q-2 20 8 31.5t28 11.5q14 0 21 -8t9 -29v-24v-31z" />
    <glyph glyph-name="braceright" unicode="}" horiz-adv-x="366" 
d="M42 858l-30 4q-3 0 -5 1t-2 3t2.5 3.5t27.5 1.5q141 0 165.5 -26.5t28.5 -176.5q1 -43 4.5 -100.5t5.5 -73.5q4 -18 12 -31t21 -19q44 -23 44.5 -24.5t0.5 -2.5q0 -11 -4.5 -17.5t-18.5 -7.5q-36 -5 -52.5 -25.5t-18.5 -116.5q-1 -3 -1 -5.5t1 -49.5q0 -137 -26.5 -165
t-98.5 -28q-14 0 -18.5 1t-4.5 7q-1 1 -1 2t1 2l1 1l2 2h1h4q35 -5 60.5 18t25.5 75q-1 25 -3.5 79t-2.5 72q0 84 25 109.5t96 45.5q-46 9 -72.5 23t-46.5 243q-10 119 -27 142t-96 34z" />
    <glyph glyph-name="asciitilde" unicode="~" horiz-adv-x="482" 
d="M230 755l19 -13q34 -24 58.5 -20.5t51.5 26.5l44 37q12 10 22.5 9t11.5 -12q0 -51 -81.5 -96t-139.5 -16q-32 15 -43.5 18t-23.5 3q-24 0 -41.5 -6t-36.5 -6q-13 0 -19.5 9.5t-6.5 23.5q0 30 71.5 50.5t113.5 -7.5z" />
    <glyph glyph-name="afii10051" horiz-adv-x="756" 
d="M-68 661l77 33q269 115 478.5 181.5t309.5 66.5q2 0 3.5 -0.5t2.5 -1.5q0 -3 -1.5 -5t-13.5 -4l-37 -8q-51 -11 -196 -65t-249 -99q2 -80 5 -156.5t6 -149.5q48 31 109 52.5t108 21.5q80 0 129.5 -55t53.5 -134q12 -133 -53.5 -239.5t-163.5 -106.5q-41 0 -67 14t-26 37
q0 8 2.5 11.5t14.5 3.5q17 0 37 -5t32 -5q66 0 108.5 76.5t42.5 192.5q0 53 -39.5 94t-94.5 41q-31 -1 -81 -20.5t-110 -59.5q0 -254 -14.5 -300.5t-39.5 -46.5q-14 -1 -24 19t-10 382v303q-17 -6 -28.5 -11t-194.5 -93l-64 -31q-25 -13 -39.5 -3.5t-14.5 28.5q0 12 7.5 21
t34.5 21z" />
    <glyph glyph-name="afii10052" horiz-adv-x="404" 
d="M536 879l-39 -17q-197 -86 -247.5 -118t-83.5 -62q-10 -163 -11.5 -252.5t6.5 -181.5l7 -92q7 -100 -8.5 -121t-47.5 -20q-18 -1 -26 10t-7 49l4 171q3 152 8 244.5t5 167.5q-13 8 -31.5 28.5t-18.5 27.5q0 6 18 16t33 13q-4 33 4 51.5t30 18.5q14 -1 29.5 -11.5
t26.5 -25.5q55 27 122 55t139 53l58 20q18 6 30 9.5t19 3.5q6 0 10.5 -4t4.5 -8q0 -5 -11 -12.5t-23 -12.5zM250 950l28 36q60 77 92.5 116.5t37.5 39.5q2 0 9.5 -12t7.5 -17q-1 -8 -13.5 -22t-66.5 -64l-52 -48q-19 -17 -34 -45.5t-22 -28.5q-3 0 -5.5 2.5t-2.5 5.5t7.5 16
t13.5 21z" />
    <glyph glyph-name="afii10061" horiz-adv-x="585" 
d="M154 777l16 -328q36 41 69.5 81t155.5 215l42 60q14 21 36.5 19.5t23.5 -23.5q0 -33 -59.5 -123t-190.5 -249q152 -62 285.5 -190.5t133.5 -199.5q0 -17 -8.5 -25t-23.5 -8h-6t-78 81l-69 73q-66 69 -140 119t-171 97q5 -82 7.5 -107t5.5 -45q14 -124 14 -128.5t1 -7.5
q0 -52 -19.5 -69.5t-56.5 -17.5q-29 0 -36.5 44t-12.5 462l-3 233q-1 43 10 59t33 17q21 0 30.5 -10t10.5 -29zM258 916l28 36q60 77 92.5 116.5t37.5 39.5q2 0 9.5 -12t7.5 -17q-1 -8 -13.5 -22t-66.5 -64l-52 -48q-19 -17 -34 -45.5t-22 -28.5q-3 0 -5.5 2.5t-2.5 5.5
t7.5 16t13.5 21z" />
    <glyph glyph-name="afii10060" horiz-adv-x="747" 
d="M-68 661l77 33q269 115 478.5 181.5t309.5 66.5q2 0 3.5 -0.5t2.5 -1.5q0 -3 -1.5 -5t-13.5 -4l-37 -8q-51 -11 -196 -65t-249 -99q2 -80 5 -156.5t6 -149.5q48 31 109 52.5t108 21.5q88 -1 130 -48.5t42 -134.5q0 -218 -17.5 -254t-46.5 -36q-22 -1 -29 19t1 105l11 121
q5 63 -24 108t-91 45q-37 0 -87 -22t-104 -58q0 -254 -14.5 -300.5t-39.5 -46.5q-14 -1 -24 19t-10 382v303q-17 -6 -28.5 -11t-194.5 -93l-64 -31q-25 -13 -39.5 -3.5t-14.5 28.5q0 12 7.5 21t34.5 21z" />
    <glyph glyph-name="afii10145" horiz-adv-x="602" 
d="M602 91l-39 -16q-26 -11 -104 -38.5t-120 -40.5q5 -8 8 -17.5t3 -31.5q-1 -35 -7.5 -65.5t-67.5 -133.5l-18 -30q-10 -15 -12.5 -16.5t-5.5 -2.5q-1 0 -1 0.5v4.5t1 8t10 20l12 24q10 22 20.5 70.5t10.5 74.5q0 10 -4.5 30.5t-11.5 44.5q-113 -40 -183.5 -52t-88.5 6
q-14 15 12.5 40.5t21.5 89.5q-2 15 -0.5 42t1.5 36q0 306 -6.5 386t-19.5 140l-4 18q-9 42 3.5 61.5t42.5 19.5q45 0 60.5 -122t15.5 -534v-49q0 -19 -4 -44t-10 -48q103 35 180.5 65t153.5 64q-8 86 -13.5 190.5t-5.5 171.5q0 200 14.5 265t44.5 65q13 0 22.5 -18.5
t10.5 -341.5v-308l41 25l26 15q21 12 36.5 2t16.5 -27q0 -14 -9.5 -24t-32.5 -19z" />
    <glyph glyph-name="afii10099" horiz-adv-x="482" 
d="M127 649l2 -34q144 36 165.5 39t48.5 5l75 -10h1q0 -3 13 16.5t-301 -120.5q4 -58 9.5 -116t12.5 -117q63 83 103 120.5t66 37.5q63 0 99 -72t36 -196q0 -152 -77.5 -266.5t-201.5 -114.5q-42 0 -67.5 15t-25.5 37q0 9 2 12t15 3q11 0 31.5 -5.5t37.5 -5.5q92 0 152 81.5
t61 220.5q0 83 -30.5 140t-62.5 57q-29 0 -63 -31.5t-73 -99.5q9 -142 9.5 -154.5t0.5 -21.5q0 -35 -11 -49t-34 -13q-23 0 -31.5 13t-11.5 83q-15 331 -18.5 363.5t-6.5 62.5l-61 -10q-24 -7 -36 -2.5t-17 20.5q-5 17 5 25t44 8l62 18q-7 74 3.5 111.5t38.5 37.5
q16 -1 24.5 -21t11.5 -67z" />
    <glyph glyph-name="afii10109" horiz-adv-x="484" 
d="M358 446l31 44q12 18 31.5 21.5t19.5 -14.5q0 -62 -91 -137t-211 -111q145 37 240 -34t95 -175q0 -20 -9 -29.5t-27 -9.5q-13 0 -18.5 5t-7.5 23q-16 94 -101.5 148t-189.5 30q5 -33 12 -86t7 -74q-1 -28 -13 -40t-35 -12t-30 10.5t-8 89.5q-4 184 -5 212.5t-2 52.5
q-4 54 -4 62v16q-1 6 -0.5 5.5t0.5 0.5q-1 26 4.5 38.5t23.5 12.5q23 -1 28 -8.5t7 -25.5q1 -18 3 -73.5t6 -117.5q81 31 144 77t100 99zM203 587l28 36q66 85 95.5 120.5t34.5 35.5q4 -1 10.5 -13t6.5 -16q0 -6 -7.5 -15.5t-72.5 -70.5l-52 -49q-18 -17 -33.5 -45
t-22.5 -28q-3 0 -5.5 2.5t-2.5 5.5t7.5 16t13.5 21z" />
    <glyph glyph-name="afii10108" horiz-adv-x="447" 
d="M320 95v121q0 118 -14 136.5t-37 18.5q-20 0 -51 -35t-63 -91q9 -142 9.5 -154.5t0.5 -21.5q0 -35 -11 -49t-34 -13q-23 0 -31.5 13t-11.5 83q-15 331 -18.5 363.5t-6.5 62.5l-61 -10q-24 -7 -36 -2.5t-17 20.5q-5 17 5 25t44 8l62 18q-10 66 2.5 107.5t39.5 41.5
q16 -1 24.5 -21t11.5 -67l2 -34q212 52 225.5 53.5t28.5 2.5q72 -8 73.5 -9t1.5 -2q0 -17 -141 -56t-186 -59q4 -58 9.5 -116t11.5 -117q54 71 100 114.5t69 43.5q27 0 42.5 -33t21.5 -176q4 -109 4.5 -115t1.5 -9q1 -17 6 -45t6 -41q0 -23 -10 -35.5t-27 -12.5
q-25 0 -35.5 18.5t-10.5 73.5z" />
    <glyph glyph-name="afii10062" unicode="&#xa1;" horiz-adv-x="447" 
d="M107 740l49 -81q82 -136 82 -136.5t38 -41.5q16 50 22.5 72.5t12.5 41.5q40 143 38.5 139t0.5 0l30 92q8 27 15 32.5t18 5.5q9 0 14.5 -3t6.5 -7v-1v-3q-1 -3 0.5 -7.5t1.5 -6.5q-1 -5 -2 -12t-71 -286l-34 -135q6 -7 12 -18.5t7 -17.5q0 -7 -7.5 -14t-16.5 -10
q-36 -58 -63.5 -125.5t-59.5 -172.5l-45 -144q-11 -34 -20.5 -44.5t-23.5 -16.5q-10 -4 -12 1t9 38l56 175q10 34 30 113t47 199l-62 90q-76 108 -121.5 182.5t-44.5 90.5q0 18 13 32.5t35 14.5q11 0 19.5 -4.5t25.5 -31.5zM360 1061q0 -20 -58 -67t-110 -47q-53 0 -87 26.5
t-34 57.5q0 7 4 14.5t7 7.5q-8 0 17.5 -27t100.5 -27q27 -1 53 7.5t68 36.5q35 23 35 23.5t1 0.5l1.5 -2.5t1.5 -3.5z" />
    <glyph glyph-name="afii10110" unicode="&#xa2;" horiz-adv-x="348" 
d="M86 464l23 -72q16 -52 39 -89t56 -68q86 226 84.5 223t0.5 1l24 56q9 22 23 12.5t10 -27.5l-49 -184q-46 -171 -114.5 -342.5t-145.5 -313.5l-31 -57q-11 -21 -13.5 -22t-6.5 -1q-8 0 -12.5 4.5t-4.5 11.5q0 11 45.5 113t116.5 309l41 120q-55 61 -111 163t-56 148
q0 20 13 33.5t30 14.5q13 -1 22.5 -8t15.5 -25zM312 722q0 -23 -60.5 -69t-107.5 -46q-53 0 -87 27t-34 58q0 8 3.5 14.5t7.5 6.5q-3 -1 19 -27.5t99 -26.5q26 0 53 8.5t68 36.5l35 24h1q1 -1 1.5 -3t1.5 -3z" />
    <glyph glyph-name="afii10057" unicode="&#xa3;" horiz-adv-x="468" 
d="M76 87l24 -10q12 -6 35 -9.5t47 -2.5q77 0 118.5 40t41.5 141q0 34 -2 68t-7 77q-7 72 -8.5 99t-1.5 50q0 38 7.5 94.5t19.5 109.5q-45 -7 -87.5 -21.5t-79.5 -35.5l-90 -53q-19 -11 -26 -13.5t-13 -2.5q-12 0 -18.5 6t-6.5 18q0 15 10.5 29.5t176.5 92.5q82 38 143 61
t88 23q19 -1 25.5 -6.5t6.5 -16.5q-1 -4 -1.5 -8.5t-37.5 -82.5q-23 -49 -33 -102t-10 -145q0 -23 1 -59.5t2 -71.5q1 -23 4 -59t3 -53q0 -114 -61.5 -172.5t-154.5 -57.5q-55 -1 -108.5 18.5t-59.5 38.5q-1 2 -1 4.5t1 6.5q3 12 15.5 13.5t37.5 -8.5z" />
    <glyph glyph-name="afii10050" unicode="&#xa5;" 
d="M536 879l-40 -17q-140 -60 -210.5 -97.5t-119.5 -82.5q-9 -109 -11 -234.5t5 -199.5l8 -92q7 -90 -6.5 -115.5t-49.5 -25.5q-18 -1 -26 10t-7 49l4 171q3 154 8 251.5t5 160.5q-13 8 -31.5 28.5t-18.5 27.5q0 6 18 16t33 13q-4 39 5 54.5t29 15.5q14 0 29.5 -11t26.5 -26
q59 28 121 54t140 54l63 22l24 41q31 53 29.5 52.5t-0.5 0.5q7 0 10.5 -2.5t4.5 -11.5q0 -60 -6 -76.5t-37 -29.5z" />
    <glyph glyph-name="brokenbar" unicode="&#xa6;" horiz-adv-x="168" 
d="M133 887q-1 -19 -0.5 -62t0.5 -66q-2 -55 -11.5 -162.5t-15.5 -107.5q-3 0 -2.5 -1t-36.5 450q-1 20 8.5 31t27.5 11q14 0 21 -8t9 -29v-13v-43zM131 183q-8 -171 -19 -313.5t-18 -142.5q-8 1 -12.5 13t-3.5 138q-3 87 -6 175t-7 179q-1 20 9 32t27 12q14 0 21 -9t9 -29
v-23v-32z" />
    <glyph glyph-name="section" unicode="&#xa7;" horiz-adv-x="416" 
d="M150 494l-29 32q-24 25 -41 65.5t-17 79.5q0 68 40.5 116.5t102.5 48.5q57 0 98 -39.5t41 -82.5q0 -18 -6 -28t-12 -10q-9 0 -16.5 7t-16.5 29l-14 32q-11 24 -34 40t-49 16q-34 0 -54.5 -21.5t-20.5 -54.5q0 -28 19 -64t60 -79l94 -101q69 -75 85 -108.5t16 -68.5
q0 -54 -39 -97t-124 -76l36 -39q36 -40 54 -79.5t18 -78.5q0 -65 -44.5 -112t-108.5 -48q-56 0 -103.5 42.5t-47.5 82.5q0 16 5.5 25.5t13.5 8.5q8 0 8 0.5t24 -35.5l25 -38q15 -23 35.5 -37t45.5 -14q40 0 63 22t23 52q0 28 -22.5 68t-55.5 78l-79 89q-61 67 -82 109
t-21 79q0 18 3 31t127 158zM216 152q35 27 59.5 68t24.5 75q0 32 -28.5 74t-89.5 93q-40 -24 -63.5 -62t-23.5 -72q-1 -37 33 -84.5t88 -91.5z" />
    <glyph glyph-name="afii10023" unicode="&#xa8;" horiz-adv-x="550" 
d="M143 351l-1 -243q102 73 168 112t122 59l75 26q36 12 39 12t7 1q7 0 13 -2t6 -4q-1 -4 -10 -13t-15 -12l-34 -19q-169 -95 -289 -175.5t-134 -80.5q-15 0 -23.5 7.5t-7.5 22.5l8 230q0 14 3.5 191t8.5 226l4 39q3 35 27.5 47t64.5 3q71 34 137 60.5t149 55.5l67 23
q11 3 23 6.5t17 3.5q3 0 6.5 -2t5.5 -6q4 -7 3 -11.5t-34 -18.5l-39 -17q-206 -90 -253.5 -118.5t-108.5 -70.5q-7 -80 -8.5 -138.5t2.5 -119.5q71 52 148.5 97t177.5 91l33 15q19 8 26 8t7 -5q0 -11 -4.5 -20t-11.5 -14l-22 -17q-38 -29 -99 -62t-125 -77zM412 1142
q0 -33 -15.5 -92t-27.5 -59q-13 0 -18.5 8t-5.5 47q0 72 9 93.5t30 21.5q6 0 16.5 -6.5t11.5 -12.5zM215 1119q-1 -61 -9.5 -82.5t-28.5 -21.5q-18 0 -25.5 15.5t-6.5 56.5q-1 25 10.5 46t23.5 23v0h1q17 -2 25.5 -9.5t9.5 -27.5z" />
    <glyph glyph-name="copyright" unicode="&#xa9;" horiz-adv-x="846" 
d="M768 475q0 -91 -122 -226.5t-279 -135.5q-119 0 -205 88t-86 185q0 65 42.5 172.5t85.5 126.5q30 13 107 30t119 17q130 0 234 -81t104 -176zM144 399q-1 -112 72.5 -165.5t193.5 -52.5q117 0 210.5 93t94.5 188q0 84 -95.5 152t-234.5 68q-106 0 -173.5 -74t-67.5 -209z
M310 402q-1 -51 30 -75t92 -23h5.5h1.5q2 -1 6.5 -1.5t8.5 -0.5q6 0 15.5 3.5t26.5 5.5h2h2q3 -1 5 -4t3 -6q-1 -17 -51 -33.5t-89 -16.5q-45 0 -82.5 46t-37.5 94q0 86 61.5 151t113.5 65q19 0 43 -17.5t25 -30.5q0 -4 -5.5 -5.5t-17.5 -1.5q-6 0 -15 1t-13 1
q-58 -1 -94 -48t-36 -104z" />
    <glyph glyph-name="afii10053" unicode="&#xaa;" horiz-adv-x="622" 
d="M256 442l-113 -59q0 -112 68 -189.5t171 -77.5q102 -1 180.5 77t74.5 77h0.5h1.5q0 -1 1.5 -2l1.5 -1q0 -64 -96.5 -153.5t-219.5 -89.5q-127 0 -206 91t-79 255q0 196 120.5 336.5t271.5 140.5q52 -1 97.5 -17.5t45.5 -39.5q0 -13 -4.5 -17.5t-11.5 -4.5
q-30 0 -43.5 6.5t-66.5 6.5q-128 0 -217 -99.5t-93 -234.5l90 43q37 17 85.5 37t113.5 44l50 18q11 4 21 2.5t10 -8.5q0 -15 -10 -18.5t-13 -5.5l-37 -21q-65 -37 -125.5 -64.5t-68.5 -31.5z" />
    <glyph glyph-name="guillemotleft" unicode="&#xab;" horiz-adv-x="673" 
d="M501 629l24 31q4 6 13 10.5t17 4.5q4 0 6 -3.5t2 -10.5q-1 -23 -68 -103t-97 -135q96 -52 160 -121.5t65 -112.5q0 -2 -3 -3.5t-34 30.5l-28 28q-8 7 -26 18.5t-33 19.5l-31 15q-17 7 -32 13.5t-76 30.5l-24 9q-15 5 -21 10.5t-6 16.5q-1 27 13 53.5t71 74.5l25 21
q3 2 7 6t76 97zM363 204l33 -24q19 -15 10 -30.5t-9 -9.5q0 -14 -51.5 11t-155.5 91q-60 41 -99 77.5t-41 55.5q-1 2 -1 4t1 4q1 6 5 13.5t142 155.5q125 145 135.5 151t18.5 6q9 0 19 -5.5t10 -11.5q0 -15 -79 -116t-115 -139q-19 -18 -17 -45.5t19 -48.5q19 -20 36 -35.5
t139 -103.5z" />
    <glyph glyph-name="logicalnot" unicode="&#xac;" horiz-adv-x="740" 
d="M701 342q-5 -16 -14.5 -26.5t-19.5 -10.5q-16 0 -27 9.5t-11 20.5q0 1 3 4.5t3 6.5q0 28 -30.5 39.5t-69.5 -6.5q-96 -21 -179.5 -36.5t-263.5 -42.5q-27 -9 -41 -3t-14 33q0 17 249 64.5t327 51.5q43 -3 66.5 -28t23.5 -62q0 -4 -1 -7.5t-1 -6.5z" />
    <glyph glyph-name="registered" unicode="&#xae;" horiz-adv-x="936" 
d="M124 602q0 181 86.5 263.5t269.5 83.5q128 0 232 -82.5t104 -175.5q0 -121 -129.5 -241t-271.5 -120q-127 -1 -209 86.5t-82 185.5zM383 647q9 14 45.5 46.5t36.5 49.5t-36 11.5t-54 -18.5q-1 -14 1 -37.5t7 -51.5zM385 573v-38q-1 -45 -14.5 -57.5t-38.5 -11.5
q-9 0 -13.5 26t-0.5 55q0 8 1.5 13.5t1.5 9.5q0 20 -4.5 59.5t-8.5 60.5q-20 -8 -49.5 -14.5t-55.5 -9.5q-46 -104 40 -186.5t215 -82.5q117 0 211 93.5t94 187.5q0 86 -93.5 155.5t-229.5 70.5q-92 0 -148.5 -51.5t-79.5 -150.5l46 9q44 8 96 49.5t145 41.5q39 0 48 -6.5
t9 -20.5q0 -11 -4.5 -22t-122.5 -123q8 -4 14 -6.5t79 -26.5l57 -19q35 -12 41.5 -18.5t6.5 -16.5t-17.5 -23t-27.5 -13q-44 0 -89.5 37t-107.5 29z" />
    <glyph glyph-name="afii10056	" unicode="&#xaf;" horiz-adv-x="271" 
d="M90 654l2 49q1 39 16 60t38 21q21 0 34 -13t13 -34q-1 -64 -21.5 -318.5t0.5 -327.5l5 -18q9 -33 -7.5 -55t-46.5 -22q-31 0 -44 27.5t-13 116.5q0 62 9.5 233.5t14.5 280.5zM187 968q0 64 6.5 76.5t20.5 13.5q12 0 20 -12.5t8 -34.5q-1 -24 -14.5 -54.5t-27.5 -30.5
q-7 0 -10 4t-3 38zM90 1011q0 -38 -7 -59t-20 -21t-18.5 13.5t-5.5 39.5q0 18 8 35t21 19q18 -15 20 -18.5t2 -8.5z" />
    <glyph glyph-name="degree" unicode="&#xb0;" horiz-adv-x="320" 
d="M291 770q0 -68 -43 -115.5t-93 -46.5q-39 0 -73 36.5t-34 91.5q0 46 35.5 104t80.5 59q46 0 86.5 -35t40.5 -94zM254 759q0 42 -22 76t-49 34q-22 0 -41 -31t-19 -71q0 -32 21.5 -59t45.5 -27q26 0 45 20.5t19 57.5z" />
    <glyph glyph-name="plusminus" unicode="&#xb1;" horiz-adv-x="550" 
d="M320 542l67 25q71 26 78.5 28.5t15.5 4.5l24 6q23 5 26.5 3.5t3.5 -5.5t-5 -8t-17 -9l-15 -7q-163 -76 -164 -76.5t-8 -3.5q-4 -13 -6 -25t-4 -51l-5 -68q-2 -26 -11 -38t-23 -12q-21 0 -34 37.5t-16 108.5l-67 -31q-46 -21 -70 -29.5t-35 -8.5q-8 0 -11.5 2.5t-3.5 8.5
q0 8 6 14.5t17 12.5l56 27q21 10 51.5 27t57.5 33l6 51q14 123 26.5 155.5t30.5 32.5q13 -1 22 -11t9 -29q0 -15 -1 -40t-1 -49v-76zM331 275l58 22q20 7 50.5 17.5t41.5 13.5l24 6q19 4 24.5 3t5.5 -5q0 -3 -3.5 -6t-18.5 -11l-15 -8q-14 -8 -54 -26t-82 -37
q-97 -46 -117.5 -56t-38.5 -18q-25 -13 -32.5 -16.5t-13.5 -5.5q-46 -21 -70.5 -29.5t-34.5 -8.5q-7 0 -11.5 3t-3.5 9q0 6 4 11.5t19 14.5l75 41q47 26 93.5 46.5t99.5 39.5z" />
    <glyph glyph-name="afii10055" unicode="&#xb2;" horiz-adv-x="244" 
d="M90 654l2 49q1 39 16 60t38 21q21 0 34 -13t13 -34q-1 -64 -21.5 -318.5t0.5 -327.5l5 -18q9 -33 -7.5 -55t-46.5 -22q-31 0 -44 27.5t-13 116.5q0 62 9.5 233.5t14.5 280.5z" />
    <glyph glyph-name="afii10103" unicode="&#xb3;" horiz-adv-x="182" 
d="M156 647l-35 -31q-17 -16 -29.5 -21t-25.5 -5q-15 0 -24.5 8t-9.5 24q0 15 9.5 26t67.5 30l28 9q6 2 13.5 5t26.5 14q8 4 12.5 6.5t9.5 3.5h3.5h2.5q2 -2 4.5 -6.5t2.5 -7.5t-1 -5.5t-55 -49.5zM56 238l13 169q3 39 14.5 61t33.5 22q11 0 16 -8t5 -28q0 -26 -9 -106
t-9 -163q0 -55 5.5 -93t5.5 -39q-1 -20 -12 -31t-30 -11q-24 0 -32.5 17t-8.5 57q-1 25 0.5 55.5t7.5 97.5z" />
    <glyph glyph-name="afii10098" unicode="&#xb4;" horiz-adv-x="292" 
d="M43 475l48 20q59 24 128.5 45.5t138.5 37.5q-1 20 8.5 38t23.5 18q8 0 11.5 -3t3.5 -12q0 -20 -10.5 -39.5t-265.5 -124.5q12 -122 17.5 -204.5t5.5 -144.5q0 -105 -7 -123t-21 -19q-15 0 -26 14t-22 320l-5 138l-38 -17q-17 -8 -24.5 -5t-7.5 15q0 14 7.5 24t34.5 22z
" />
    <glyph glyph-name="paragraph" unicode="&#xb6;" horiz-adv-x="613" 
d="M517 805l-12 -84q-12 -80 -44.5 -395t-32.5 -380q0 -28 0.5 -48.5t2.5 -37.5q3 -36 2.5 -50.5t-2.5 -30.5q-6 -37 -12 -51.5t-14 -14.5q-6 0 -10.5 22.5t-4.5 57.5q0 141 12.5 362.5t45.5 621.5l7 87q1 20 10.5 29.5t25.5 10.5q21 -1 28.5 -15t-2.5 -84zM308 851l-11 -86
q-14 -106 -27.5 -241t-38.5 -446q-28 -338 -31 -352t-7 -14q-1 0 -7 3t-6 193q0 78 2.5 144.5t53.5 639.5q-65 15 -106 56.5t-40 85.5q0 42 39.5 70.5t102.5 28.5q48 0 66 -9.5t10 -72.5z" />
    <glyph glyph-name="afii10071" unicode="&#xb8;" horiz-adv-x="366" 
d="M268 635q0 61 7 75.5t21 14.5q9 0 15 -6t6 -15q0 -20 -13 -65.5t-23 -45.5q-7 0 -10 4t-3 38zM185 676q0 -38 -6.5 -58.5t-20.5 -20.5t-19 11t-5 42q0 17 8 34.5t21 19.5q19 -15 20.5 -19t1.5 -9zM411 114l-47 -35q-38 -29 -84 -46t-88 -17q-75 0 -117.5 50t-42.5 144
q0 116 71 195.5t146 79.5q33 0 50 -14t17 -36q0 -56 -55.5 -124.5t-159.5 -149.5q7 -42 36 -69.5t75 -27.5q34 0 83 16t91 39l31 17q5 2 8.5 3.5t7.5 1.5v-0.5v-0.5q-1 -6 -7 -12.5t-15 -13.5zM90 195q64 51 120.5 114t56.5 94q0 11 -11.5 18t-28.5 7q-54 0 -99.5 -75.5
t-37.5 -157.5z" />
    <glyph glyph-name="afii61352" unicode="&#xb9;" horiz-adv-x="1073" 
d="M172 756l2 -18q2 -23 2.5 -23.5t155.5 -257.5l59 -98q74 -124 108.5 -167t81.5 -84q-1 228 -6 334t-5 268v81q0 29 15 49.5t35 20.5q14 0 23 -13t8 -164l-6 -548q-1 -66 16.5 -74t18.5 -81q0 -13 -19 -25.5t-36 -12.5q-34 0 -120 101t-134 180l-52 84q-38 60 -75.5 115.5
t-77.5 110.5q-9 -74 -13.5 -139.5t-4.5 -189.5q0 -33 3.5 -57t12.5 -44q4 -10 10.5 -20t6.5 -13q0 -16 -21.5 -34t-46.5 -18q-37 0 -50 34.5t-2 105.5q4 31 8 81t5 88l7 392q0 31 16.5 47t50.5 16q11 -1 16 -3.5t8 -23.5zM993 558q0 -68 -43 -115t-93 -47q-39 0 -73 36.5
t-34 91.5q0 46 35.5 104.5t80.5 58.5q46 -1 86.5 -35.5t40.5 -93.5zM956 547q0 42 -21.5 76t-49.5 34q-22 0 -41 -29t-18 -73q0 -30 19.5 -58t46.5 -28q27 -1 45.5 20t18.5 58zM853 279l36 9q46 11 81.5 17t55.5 7q30 0 58.5 -7t28.5 -17q0 -8 -6 -13t-79 -23l-36 -9
q-21 -6 -58.5 -22t-70.5 -24q-54 -14 -84 -7t-29 30q0 16 29 31.5t74 27.5z" />
    <glyph glyph-name="afii10101" unicode="&#xba;" horiz-adv-x="399" 
d="M389 295l-15 -7q-16 -8 -87 -28t-117 -30q-41 -9 -51 -12t-21 -6q4 -69 52.5 -111t119.5 -42q24 0 47 6.5t55 24.5q23 13 27 14t8 1q6 -1 7.5 -2t1.5 -4q-1 -31 -73.5 -61t-135.5 -30q-83 0 -134 61.5t-50 146.5q0 123 87.5 215t174.5 92q35 0 54 -19t19 -45q0 -9 -2 -11
t-6 -2h-3.5t-14.5 9q-6 3 -14 5t-18 2q-74 0 -134 -60t-69 -148l56 17q36 11 104 23.5t105 17.5l27 3q11 1 17 -0.5t7 -6.5q0 -2 -0.5 -2t-23.5 -11z" />
    <glyph glyph-name="guillemotright" unicode="&#xbb;" horiz-adv-x="662" 
d="M467 450l-34 23q-85 57 -120.5 83.5t-47.5 45.5v0.5v1.5q-1 1 -1 4.5v5.5q0 21 23.5 31.5t50.5 -3.5q20 -5 89.5 -61t152.5 -112q24 -19 30.5 -47.5t-11.5 -46.5l-55 -58q-21 -22 -36.5 -39t-63.5 -70q-8 -9 -14.5 -16t-20.5 -21q-1 -1 -0.5 -0.5t-9.5 -9.5
q-15 -38 -22 -44.5t-10 8.5q-3 13 0.5 23.5t14.5 22.5q86 137 94 147.5t18 23.5q20 27 13 58.5t-40 49.5zM231 507l86 -64l37 -29l1 -7q0 -4 -3 -9t-15 -21l-36 -48q-72 -95 -89 -116.5t-34 -43.5l-25 -32q-30 -39 -34 -41.5t-7 -2.5t-4.5 0.5t-1.5 2.5q-1 2 2 8t18 31
l11 19q52 90 78 130t56 81q-93 60 -157.5 112t-63.5 70q0 16 13.5 32t29.5 16q11 0 30 -11.5t108 -76.5z" />
    <glyph glyph-name="afii10105" unicode="&#xbc;" horiz-adv-x="242" 
d="M62 506l41 11q16 4 35 11.5t27 7.5q15 0 23.5 -9.5t8.5 -27.5q0 -10 -4.5 -25.5t-6.5 -42.5q-2 -21 -4 -48.5t-2 -36.5q0 -56 8 -198t8 -196q0 -140 -68 -218t-212 -78q-58 0 -129.5 24.5t-71.5 54.5q0 12 8.5 18.5t21.5 6.5q11 0 22.5 -3t41.5 -19q29 -14 57 -21.5
t55 -7.5q101 0 151 60t50 155q-1 52 -5 235t-7 307q-30 -23 -62.5 -21t-32.5 24q-1 13 7.5 20.5t39.5 16.5zM79 758q7 7 17 11t21 5q29 0 45 -15.5t16 -38.5q0 -15 -13 -25.5t-34 -10.5q-32 -1 -48.5 13t-16.5 32q0 7 3 15t10 14z" />
    <glyph glyph-name="afii10054" unicode="&#xbd;" horiz-adv-x="555" 
d="M252 597l30 -15q154 -78 204 -138t50 -130q0 -126 -136.5 -214.5t-389.5 -88.5q-7 -1 -8.5 0t-2.5 2q-3 2 -0.5 4.5t8.5 3.5l36 5q215 29 308.5 93t93.5 152q0 50 -35.5 99t-90.5 82l-111 64q-128 73 -147 96.5t-19 53.5q0 85 135.5 165.5t225.5 80.5q11 0 16.5 -7
t5.5 -21q0 -15 -7 -24t-26 -12l-23 -4q-84 -15 -151 -63t-67 -92q0 -22 18 -41t83 -51z" />
    <glyph glyph-name="afii10102" unicode="&#xbe;" horiz-adv-x="339" 
d="M194 208l-52 32q-54 33 -80.5 71t-26.5 83q0 57 63 105t133 48q17 0 26.5 -8t10.5 -22q-1 -10 -7.5 -17t-58.5 -25q-66 -24 -81.5 -40t-15.5 -39q0 -21 16.5 -45.5t44.5 -40.5l56 -35q74 -47 92.5 -68t19.5 -42q0 -61 -108 -138t-212 -77q-11 1 -16 3t-5 6q0 5 5.5 8.5
t20.5 7.5l45 13q83 23 141.5 68t58.5 84q0 12 -10.5 24.5t-59.5 43.5z" />
    <glyph glyph-name="afii10104" unicode="&#xbf;" horiz-adv-x="188" 
d="M41 238l13 169q3 43 14 63t33 20q12 0 17 -9t5 -27q0 -22 -9.5 -120t-8.5 -149q-1 -18 0 -36.5t2 -34.5q2 -15 5 -33.5t3 -27.5q0 -20 -10 -31t-31 -11q-24 0 -33 16t-9 58q0 19 1.5 47t7.5 106zM131 635q0 62 6.5 76t20.5 14q12 0 19.5 -13t8.5 -35q0 -25 -14 -54.5
t-28 -29.5q-7 0 -10 4t-3 38zM34 677q0 -38 -6.5 -58.5t-20.5 -20.5q-13 0 -18.5 11t-5.5 42q0 24 9.5 39t19.5 15q6 0 14 -8.5t8 -19.5z" />
    <glyph glyph-name="afii10017" unicode="&#xc0;" horiz-adv-x="634" 
d="M664 577l103 43q36 15 35.5 15t0.5 0l2 -2l2 -2q0 -6 -12 -15t-89 -50l-209 -112l40 -125q45 -141 61.5 -198t16.5 -74q0 -24 -14 -35.5t-35 -11.5q-15 0 -30 12.5t-86 261.5l-37 129q-218 -127 -216.5 -126.5t-1.5 -0.5l-71 -43q-11 -28 -20.5 -62t-11.5 -56l-4 -31
q-5 -38 -20 -53.5t-39 -15.5q-14 0 -22 15t-8 41q0 19 25 98.5t79 232.5l99 281q50 143 69 165t41 22q17 0 33.5 -19.5t98.5 -244.5l42 -117q73 29 111 47.5t67 30.5zM139 304l261 153l-47 150q-15 46 -30 73t-28 27q-17 0 -35 -29t-49 -133z" />
    <glyph glyph-name="afii10017" unicode="&#x410;" horiz-adv-x="634" 
d="M664 577l103 43q36 15 35.5 15t0.5 0l2 -2l2 -2q0 -6 -12 -15t-89 -50l-209 -112l40 -125q45 -141 61.5 -198t16.5 -74q0 -24 -14 -35.5t-35 -11.5q-15 0 -30 12.5t-86 261.5l-37 129q-218 -127 -216.5 -126.5t-1.5 -0.5l-71 -43q-11 -28 -20.5 -62t-11.5 -56l-4 -31
q-5 -38 -20 -53.5t-39 -15.5q-14 0 -22 15t-8 41q0 19 25 98.5t79 232.5l99 281q50 143 69 165t41 22q17 0 33.5 -19.5t98.5 -244.5l42 -117q73 29 111 47.5t67 30.5zM139 304l261 153l-47 150q-15 46 -30 73t-28 27q-17 0 -35 -29t-49 -133z" />
    <glyph glyph-name="afii10018" unicode="&#xc1;" horiz-adv-x="599" 
d="M105 43l-1 659q-37 -24 -72 -43.5t-45 -18.5q-11 -1 -17 6.5t-6 19.5q0 9 4 15.5t24 19.5l95 57q85 51 189 86.5t172 35.5q24 -1 46 -6.5t22 -15.5q0 -18 -12.5 -29t-52.5 -18l-97 -19q-31 -6 -85.5 -25.5t-101.5 -40.5q9 -67 11 -136.5t-4 -140.5q66 47 147.5 79.5
t138.5 32.5q53 0 84.5 -32.5t31.5 -87.5q0 -111 -172.5 -296t-254.5 -185q-24 0 -34 16.5t-10 66.5zM174 370l-4 -335q186 135 257.5 224.5t71.5 166.5q0 32 -17.5 44.5t-50.5 12.5q-59 -1 -125 -29.5t-132 -83.5z" />
    <glyph glyph-name="afii10018" unicode="&#x411;" horiz-adv-x="599" 
d="M105 43l-1 659q-37 -24 -72 -43.5t-45 -18.5q-11 -1 -17 6.5t-6 19.5q0 9 4 15.5t24 19.5l95 57q85 51 189 86.5t172 35.5q24 -1 46 -6.5t22 -15.5q0 -18 -12.5 -29t-52.5 -18l-97 -19q-31 -6 -85.5 -25.5t-101.5 -40.5q9 -67 11 -136.5t-4 -140.5q66 47 147.5 79.5
t138.5 32.5q53 0 84.5 -32.5t31.5 -87.5q0 -111 -172.5 -296t-254.5 -185q-24 0 -34 16.5t-10 66.5zM174 370l-4 -335q186 135 257.5 224.5t71.5 166.5q0 32 -17.5 44.5t-50.5 12.5q-59 -1 -125 -29.5t-132 -83.5z" />
    <glyph glyph-name="afii10019" unicode="&#xc2;" horiz-adv-x="586" 
d="M109 24l-13 664q-60 -43 -89 -62t-37 -18q-7 0 -12.5 7t-5.5 18q0 51 199 158.5t259 107.5q35 0 50.5 -17t15.5 -50q0 -56 -44.5 -127t-152.5 -191q39 24 101 47.5t93 23.5q46 0 71 -34.5t25 -85.5q-1 -107 -157.5 -312.5t-262.5 -205.5q-23 1 -31.5 16.5t-8.5 60.5z
M164 727l7 -273q104 101 168.5 189t65.5 130q0 25 -10 38.5t-34 13.5q-19 0 -73.5 -28t-123.5 -70zM171 361l3 -338q175 152 246.5 248t72.5 167q-1 27 -17.5 45.5t-51.5 18.5q-54 -1 -124.5 -41.5t-128.5 -99.5z" />
    <glyph glyph-name="afii10019" unicode="&#x412;" horiz-adv-x="586" 
d="M109 24l-13 664q-60 -43 -89 -62t-37 -18q-7 0 -12.5 7t-5.5 18q0 51 199 158.5t259 107.5q35 0 50.5 -17t15.5 -50q0 -56 -44.5 -127t-152.5 -191q39 24 101 47.5t93 23.5q46 0 71 -34.5t25 -85.5q-1 -107 -157.5 -312.5t-262.5 -205.5q-23 1 -31.5 16.5t-8.5 60.5z
M164 727l7 -273q104 101 168.5 189t65.5 130q0 25 -10 38.5t-34 13.5q-19 0 -73.5 -28t-123.5 -70zM171 361l3 -338q175 152 246.5 248t72.5 167q-1 27 -17.5 45.5t-51.5 18.5q-54 -1 -124.5 -41.5t-128.5 -99.5z" />
    <glyph glyph-name="afii10020" unicode="&#xc3;" horiz-adv-x="405" 
d="M536 879l-39 -17q-197 -86 -247.5 -118t-83.5 -62q-10 -163 -11.5 -252.5t6.5 -181.5l7 -92q7 -100 -8.5 -121t-47.5 -20q-18 -1 -26 10t-7 49l4 171q3 152 8 244.5t5 167.5q-13 8 -31.5 28.5t-18.5 27.5q0 6 18 16t33 13q-4 33 4 51.5t30 18.5q14 -1 29.5 -11.5
t26.5 -25.5q55 27 122 55t139 53l58 20q18 6 30 9.5t19 3.5q6 0 10.5 -4t4.5 -8q0 -5 -11 -12.5t-23 -12.5z" />
    <glyph glyph-name="afii10020" unicode="&#x413;" horiz-adv-x="405" 
d="M536 879l-39 -17q-197 -86 -247.5 -118t-83.5 -62q-10 -163 -11.5 -252.5t6.5 -181.5l7 -92q7 -100 -8.5 -121t-47.5 -20q-18 -1 -26 10t-7 49l4 171q3 152 8 244.5t5 167.5q-13 8 -31.5 28.5t-18.5 27.5q0 6 18 16t33 13q-4 33 4 51.5t30 18.5q14 -1 29.5 -11.5
t26.5 -25.5q55 27 122 55t139 53l58 20q18 6 30 9.5t19 3.5q6 0 10.5 -4t4.5 -8q0 -5 -11 -12.5t-23 -12.5z" />
    <glyph glyph-name="afii10021" unicode="&#xc4;" horiz-adv-x="611" 
d="M427 630l105 -293q9 -28 25 -75t35 -106l82 8q33 3 54 0.5t21 -9.5q0 -11 -15 -18.5t-125 -22.5q19 -33 3.5 -65.5t-45.5 -32.5q-25 0 -42.5 18t-18.5 55q-189 -39 -321.5 -76t-183.5 -45l-60 -9q-38 -5 -48.5 1.5t-10.5 20.5q0 10 14 17t39 12q20 3 36.5 7t32.5 11
q-10 32 0 84.5t130 448.5q82 272 103.5 297t43.5 25q30 -1 63 -58t83 -195zM99 119l-8 -73q409 92 398 89.5t1 0.5q-9 23 -16 43.5t-34 108.5l-59 186q-50 156 -72 199t-37 44q-2 0 -22 -6t-107 -368l-29 -120q-4 -14 -6.5 -28t-8.5 -76z" />
    <glyph glyph-name="afii10021" unicode="&#x414;" horiz-adv-x="611" 
d="M427 630l105 -293q9 -28 25 -75t35 -106l82 8q33 3 54 0.5t21 -9.5q0 -11 -15 -18.5t-125 -22.5q19 -33 3.5 -65.5t-45.5 -32.5q-25 0 -42.5 18t-18.5 55q-189 -39 -321.5 -76t-183.5 -45l-60 -9q-38 -5 -48.5 1.5t-10.5 20.5q0 10 14 17t39 12q20 3 36.5 7t32.5 11
q-10 32 0 84.5t130 448.5q82 272 103.5 297t43.5 25q30 -1 63 -58t83 -195zM99 119l-8 -73q409 92 398 89.5t1 0.5q-9 23 -16 43.5t-34 108.5l-59 186q-50 156 -72 199t-37 44q-2 0 -22 -6t-107 -368l-29 -120q-4 -14 -6.5 -28t-8.5 -76z" />
    <glyph glyph-name="afii10022" unicode="&#xc5;" horiz-adv-x="563" 
d="M149 196l4 -95q265 201 264.5 200.5t7.5 4.5l112 64q14 8 33 16t26 8q6 0 9 -3t3 -8q-1 -6 -3.5 -11t-23.5 -19l-32 -22q-35 -24 -147 -111t-235 -178l-39 -29q-26 -18 -39.5 -10.5t-13.5 38.5l-4 222q-3 154 -2.5 238.5t0.5 97.5q-1 16 -2.5 62.5t-0.5 74.5
q0 43 10.5 63t36.5 21q14 0 21 -7t10 -21q160 48 195 61.5t73 32.5l56 27q14 7 23 9.5t20 2.5q10 -1 14.5 -3.5t4.5 -7.5q0 -7 -5 -13t-26 -17l-56 -29q-9 -5 -41 -18.5t-65 -30.5q-8 -5 -24 -13l-22 -11l-37 -18.5t-113 -54.5l-4 -59q-4 -47 -3 -110.5t6 -120.5
q80 58 174 117t142 85l34 18q16 8 19 8.5t6 1.5q4 0 6.5 -3t2.5 -8q0 -8 -5 -16.5t-11 -13.5l-23 -18q-17 -13 -94.5 -65.5t-120.5 -85.5l-126 -96v-30.5t1 -28.5v-19v-3q0 -19 1.5 -37.5t2.5 -28.5z" />
    <glyph glyph-name="afii10022" unicode="&#x415;" horiz-adv-x="563" 
d="M149 196l4 -95q265 201 264.5 200.5t7.5 4.5l112 64q14 8 33 16t26 8q6 0 9 -3t3 -8q-1 -6 -3.5 -11t-23.5 -19l-32 -22q-35 -24 -147 -111t-235 -178l-39 -29q-26 -18 -39.5 -10.5t-13.5 38.5l-4 222q-3 154 -2.5 238.5t0.5 97.5q-1 16 -2.5 62.5t-0.5 74.5
q0 43 10.5 63t36.5 21q14 0 21 -7t10 -21q160 48 195 61.5t73 32.5l56 27q14 7 23 9.5t20 2.5q10 -1 14.5 -3.5t4.5 -7.5q0 -7 -5 -13t-26 -17l-56 -29q-9 -5 -41 -18.5t-65 -30.5q-8 -5 -24 -13l-22 -11l-37 -18.5t-113 -54.5l-4 -59q-4 -47 -3 -110.5t6 -120.5
q80 58 174 117t142 85l34 18q16 8 19 8.5t6 1.5q4 0 6.5 -3t2.5 -8q0 -8 -5 -16.5t-11 -13.5l-23 -18q-17 -13 -94.5 -65.5t-120.5 -85.5l-126 -96v-30.5t1 -28.5v-19v-3q0 -19 1.5 -37.5t2.5 -28.5z" />
    <glyph glyph-name="afii10024" unicode="&#xc6;" horiz-adv-x="835" 
d="M437 777l16 -330q54 66 101 127.5t118 162.5l48 68q17 24 39 19t22 -23q0 -26 -69.5 -128t-181.5 -243q108 -45 205.5 -121t171.5 -180l30 -43q21 -31 12 -55.5t-32 -24.5q-8 0 -16.5 4.5t-69.5 77.5l-66 77q-67 77 -144 127.5t-168 78.5q5 -82 7.5 -104.5t5.5 -42.5
q15 -119 15.5 -124.5t0.5 -11.5q-1 -44 -17.5 -65.5t-59.5 -21.5q-8 0 -23.5 8t-22.5 365q-98 -34 -173 -106.5t-119 -165.5l-21 -44q-23 -48 -32.5 -55.5t-21.5 -7.5q-17 0 -27 14t-10 38q0 85 104.5 204.5t226.5 168.5q-79 48 -144.5 149t-65.5 175q0 21 11 33t33 12
q16 0 29.5 -14t29.5 -66q19 -68 67.5 -140t114.5 -126l-8 297q-1 37 9.5 56t33.5 20q18 0 28.5 -9t12.5 -30z" />
    <glyph glyph-name="afii10024" unicode="&#x416;" horiz-adv-x="835" 
d="M437 777l16 -330q54 66 101 127.5t118 162.5l48 68q17 24 39 19t22 -23q0 -26 -69.5 -128t-181.5 -243q108 -45 205.5 -121t171.5 -180l30 -43q21 -31 12 -55.5t-32 -24.5q-8 0 -16.5 4.5t-69.5 77.5l-66 77q-67 77 -144 127.5t-168 78.5q5 -82 7.5 -104.5t5.5 -42.5
q15 -119 15.5 -124.5t0.5 -11.5q-1 -44 -17.5 -65.5t-59.5 -21.5q-8 0 -23.5 8t-22.5 365q-98 -34 -173 -106.5t-119 -165.5l-21 -44q-23 -48 -32.5 -55.5t-21.5 -7.5q-17 0 -27 14t-10 38q0 85 104.5 204.5t226.5 168.5q-79 48 -144.5 149t-65.5 175q0 21 11 33t33 12
q16 0 29.5 -14t29.5 -66q19 -68 67.5 -140t114.5 -126l-8 297q-1 37 9.5 56t33.5 20q18 0 28.5 -9t12.5 -30z" />
    <glyph glyph-name="afii10025" unicode="&#xc7;" horiz-adv-x="508" 
d="M222 48l-76 -62q-57 -46 -97.5 -31t-38.5 49q0 10 6.5 16t28.5 10q93 14 238.5 167t146.5 238q0 32 -22.5 49t-64.5 17q-36 0 -82 -21t-89 -59l-25 -22q-13 -12 -24 -17.5t-19 -4.5q-19 0 -26 20.5t8 36.5l40 42q111 117 168 189.5t58 104.5q-1 26 -13 39.5t-29 13.5
q-21 0 -100.5 -39t-152.5 -81l-36 -21q-22 -14 -31 -9.5t-9 22.5q0 10 6 18.5t23 20.5l72 45q89 55 161 85.5t119 30.5q31 -1 46.5 -18.5t15.5 -49.5q0 -51 -37.5 -110.5t-169.5 -201.5q39 23 100.5 43.5t95.5 20.5q43 0 71 -28.5t28 -71.5q0 -97 -75 -207t-215 -224z" />
    <glyph glyph-name="afii10025" unicode="&#x417;" horiz-adv-x="508" 
d="M222 48l-76 -62q-57 -46 -97.5 -31t-38.5 49q0 10 6.5 16t28.5 10q93 14 238.5 167t146.5 238q0 32 -22.5 49t-64.5 17q-36 0 -82 -21t-89 -59l-25 -22q-13 -12 -24 -17.5t-19 -4.5q-19 0 -26 20.5t8 36.5l40 42q111 117 168 189.5t58 104.5q-1 26 -13 39.5t-29 13.5
q-21 0 -100.5 -39t-152.5 -81l-36 -21q-22 -14 -31 -9.5t-9 22.5q0 10 6 18.5t23 20.5l72 45q89 55 161 85.5t119 30.5q31 -1 46.5 -18.5t15.5 -49.5q0 -51 -37.5 -110.5t-169.5 -201.5q39 23 100.5 43.5t95.5 20.5q43 0 71 -28.5t28 -71.5q0 -97 -75 -207t-215 -224z" />
    <glyph glyph-name="afii10026" unicode="&#xc8;" horiz-adv-x="696" 
d="M180 59l-2 -19q-3 -22 -8.5 -25t-14.5 -2q-34 0 -51 15t-18 46l-20 392q-3 40 -8 86.5t-11 81.5q-14 71 -1.5 106.5t48.5 35.5q30 0 46 -15.5t16 -46.5q0 -23 -3 -51t-3 -56v-10.5t15 -210.5q1 -24 2.5 -50t5.5 -119q35 56 73.5 120t61.5 105l49 87q59 105 144.5 201
t124.5 97q10 0 17.5 -3.5t7.5 -8.5q0 -17 -8.5 -38t-18.5 -30l30 -618q4 -100 -3.5 -120t-25.5 -20q-22 0 -35 16.5t-17 53.5l-8 63l-2 14t-17 547q-31 -30 -56.5 -63t-105.5 -176l-56 -100l-146 -260z" />
    <glyph glyph-name="afii10026" unicode="&#x418;" horiz-adv-x="696" 
d="M180 59l-2 -19q-3 -22 -8.5 -25t-14.5 -2q-34 0 -51 15t-18 46l-20 392q-3 40 -8 86.5t-11 81.5q-14 71 -1.5 106.5t48.5 35.5q30 0 46 -15.5t16 -46.5q0 -23 -3 -51t-3 -56v-10.5t15 -210.5q1 -24 2.5 -50t5.5 -119q35 56 73.5 120t61.5 105l49 87q59 105 144.5 201
t124.5 97q10 0 17.5 -3.5t7.5 -8.5q0 -17 -8.5 -38t-18.5 -30l30 -618q4 -100 -3.5 -120t-25.5 -20q-22 0 -35 16.5t-17 53.5l-8 63l-2 14t-17 547q-31 -30 -56.5 -63t-105.5 -176l-56 -100l-146 -260z" />
    <glyph glyph-name="afii10027" unicode="&#xc9;" horiz-adv-x="676" 
d="M158 66l-2 -19q-3 -23 -8.5 -25t-16.5 -2q-30 0 -48 15.5t-18 47.5l-7 393q-1 37 -4.5 89t-7.5 78q-12 69 2 104.5t49 36.5q39 0 49 -127t12 -460q14 47 32.5 86.5t108.5 158.5l67 89q155 205 187 242t49 38q15 0 21.5 -9.5t3.5 -41.5q-13 -123 -1.5 -320.5t9.5 -319.5
q-3 -113 -11.5 -126.5t-23.5 -13.5q-24 0 -36 18t-14 53l-4 62q-1 13 -1.5 18.5t1.5 560.5q-44 -71 -90 -142t-65 -98l-74 -105q-86 -121 -121 -184.5t-38 -96.5zM414 860q-26 -13 -48.5 -19t-42.5 -6q-43 0 -68 23t-25 54q0 10 10.5 17.5t24.5 7.5t47 -12t53 -11
q8 -1 15.5 1.5t64.5 38.5q26 16 48.5 26t36.5 10q7 0 11.5 -2.5t4.5 -4.5q0 -14 -44.5 -57.5t-87.5 -65.5z" />
    <glyph glyph-name="afii10027" unicode="&#x419;" horiz-adv-x="676" 
d="M158 66l-2 -19q-3 -23 -8.5 -25t-16.5 -2q-30 0 -48 15.5t-18 47.5l-7 393q-1 37 -4.5 89t-7.5 78q-12 69 2 104.5t49 36.5q39 0 49 -127t12 -460q14 47 32.5 86.5t108.5 158.5l67 89q155 205 187 242t49 38q15 0 21.5 -9.5t3.5 -41.5q-13 -123 -1.5 -320.5t9.5 -319.5
q-3 -113 -11.5 -126.5t-23.5 -13.5q-24 0 -36 18t-14 53l-4 62q-1 13 -1.5 18.5t1.5 560.5q-44 -71 -90 -142t-65 -98l-74 -105q-86 -121 -121 -184.5t-38 -96.5zM414 860q-26 -13 -48.5 -19t-42.5 -6q-43 0 -68 23t-25 54q0 10 10.5 17.5t24.5 7.5t47 -12t53 -11
q8 -1 15.5 1.5t64.5 38.5q26 16 48.5 26t36.5 10q7 0 11.5 -2.5t4.5 -4.5q0 -14 -44.5 -57.5t-87.5 -65.5z" />
    <glyph glyph-name="afii10028" unicode="&#xca;" horiz-adv-x="588" 
d="M154 777l16 -328q36 41 69.5 81t155.5 215l42 60q14 21 36.5 19.5t23.5 -23.5q0 -33 -59.5 -123t-190.5 -249q152 -62 285.5 -190.5t133.5 -199.5q0 -17 -8.5 -25t-23.5 -8h-6t-78 81l-69 73q-66 69 -140 119t-171 97q5 -82 7.5 -107t5.5 -45q14 -124 14 -128.5t1 -7.5
q0 -52 -19.5 -69.5t-56.5 -17.5q-29 0 -36.5 44t-12.5 462l-3 233q-1 43 10 59t33 17q21 0 30.5 -10t10.5 -29z" />
    <glyph glyph-name="afii10028" unicode="&#x41a;" horiz-adv-x="588" 
d="M154 777l16 -328q36 41 69.5 81t155.5 215l42 60q14 21 36.5 19.5t23.5 -23.5q0 -33 -59.5 -123t-190.5 -249q152 -62 285.5 -190.5t133.5 -199.5q0 -17 -8.5 -25t-23.5 -8h-6t-78 81l-69 73q-66 69 -140 119t-171 97q5 -82 7.5 -107t5.5 -45q14 -124 14 -128.5t1 -7.5
q0 -52 -19.5 -69.5t-56.5 -17.5q-29 0 -36.5 44t-12.5 462l-3 233q-1 43 10 59t33 17q21 0 30.5 -10t10.5 -29z" />
    <glyph glyph-name="afii10029" unicode="&#xcb;" horiz-adv-x="561" 
d="M75 405l92 289q47 149 63.5 167.5t36.5 18.5q28 -1 56 -49.5t86 -209.5l102 -285q71 -200 79.5 -227t8.5 -41q0 -24 -13 -37t-33 -12q-19 0 -32 10.5t-31 69.5l-29 91q-28 85 -79 232.5t-68 190.5q-13 29 -32.5 70t-35.5 74q-22 -53 -39.5 -104.5t-33.5 -115.5
q-19 -70 -46.5 -186.5t-36.5 -165.5l-18 -96q-9 -48 -22 -60.5t-36 -12.5q-14 0 -22.5 14t-8.5 41q0 20 32 134t60 200z" />
    <glyph glyph-name="afii10029" unicode="&#x41b;" horiz-adv-x="561" 
d="M75 405l92 289q47 149 63.5 167.5t36.5 18.5q28 -1 56 -49.5t86 -209.5l102 -285q71 -200 79.5 -227t8.5 -41q0 -24 -13 -37t-33 -12q-19 0 -32 10.5t-31 69.5l-29 91q-28 85 -79 232.5t-68 190.5q-13 29 -32.5 70t-35.5 74q-22 -53 -39.5 -104.5t-33.5 -115.5
q-19 -70 -46.5 -186.5t-36.5 -165.5l-18 -96q-9 -48 -22 -60.5t-36 -12.5q-14 0 -22.5 14t-8.5 41q0 20 32 134t60 200z" />
    <glyph glyph-name="afii10030" unicode="&#xcc;" horiz-adv-x="823" 
d="M193 789l254 -331q230 323 226.5 313.5t-2.5 -6.5l11 36q13 42 33 67t40 25q14 0 26 -16t12 -41q0 -14 -20.5 -169t-20.5 -274q0 -105 12 -192.5t12 -93.5q-1 -31 -15.5 -50.5t-39.5 -19.5q-31 0 -45 43t-14 145q0 58 11.5 203t3.5 265q-81 -58 -149.5 -199.5
t-105.5 -141.5q-15 0 -93.5 118t-161.5 194q-15 -145 -17.5 -226.5t-2.5 -237.5q0 -49 5.5 -67.5t5.5 -67.5q0 -20 -17.5 -35.5t-34.5 -14.5q-22 -1 -34 18t-12 58q0 43 7.5 169t9.5 217l3 237q0 61 18 89t51 28q11 0 17.5 -2.5t15.5 -18.5z" />
    <glyph glyph-name="afii10030" unicode="&#x41c;" horiz-adv-x="823" 
d="M193 789l254 -331q230 323 226.5 313.5t-2.5 -6.5l11 36q13 42 33 67t40 25q14 0 26 -16t12 -41q0 -14 -20.5 -169t-20.5 -274q0 -105 12 -192.5t12 -93.5q-1 -31 -15.5 -50.5t-39.5 -19.5q-31 0 -45 43t-14 145q0 58 11.5 203t3.5 265q-81 -58 -149.5 -199.5
t-105.5 -141.5q-15 0 -93.5 118t-161.5 194q-15 -145 -17.5 -226.5t-2.5 -237.5q0 -49 5.5 -67.5t5.5 -67.5q0 -20 -17.5 -35.5t-34.5 -14.5q-22 -1 -34 18t-12 58q0 43 7.5 169t9.5 217l3 237q0 61 18 89t51 28q11 0 17.5 -2.5t15.5 -18.5z" />
    <glyph glyph-name="afii10031" unicode="&#xcd;" horiz-adv-x="632" 
d="M152 406l129 57q123 54 145 67t45 30q-2 147 10.5 220t48.5 73q21 -1 30 -9.5t9 -30.5q0 -2 0 -1.5t-10 -68.5q-3 -15 -4 -40.5t-2 -35.5l-7 -68q19 10 35.5 6t16.5 -14q0 -8 -12.5 -19t-26.5 -14q7 -201 14 -308.5t7 -126.5q-1 -42 -14 -64t-39 -22q-28 0 -41 24.5
t-13 72.5l-2 216q-2 126 -2.5 131t-0.5 11q-118 -35 -214 -93t-95 -105q0 -16 10 -73t10 -148q0 -35 -14.5 -48.5t-41.5 -12.5q-23 0 -31 12t-8 43q0 7 1 19.5t1 19.5q0 57 -10.5 175t-10.5 145q0 253 17 304t53 51q15 0 23.5 -14t8.5 -43q-1 -17 -5 -56t-5 -61
q-3 -40 -4.5 -95.5t-0.5 -105.5z" />
    <glyph glyph-name="afii10031" unicode="&#x41d;" horiz-adv-x="632" 
d="M152 406l129 57q123 54 145 67t45 30q-2 147 10.5 220t48.5 73q21 -1 30 -9.5t9 -30.5q0 -2 0 -1.5t-10 -68.5q-3 -15 -4 -40.5t-2 -35.5l-7 -68q19 10 35.5 6t16.5 -14q0 -8 -12.5 -19t-26.5 -14q7 -201 14 -308.5t7 -126.5q-1 -42 -14 -64t-39 -22q-28 0 -41 24.5
t-13 72.5l-2 216q-2 126 -2.5 131t-0.5 11q-118 -35 -214 -93t-95 -105q0 -16 10 -73t10 -148q0 -35 -14.5 -48.5t-41.5 -12.5q-23 0 -31 12t-8 43q0 7 1 19.5t1 19.5q0 57 -10.5 175t-10.5 145q0 253 17 304t53 51q15 0 23.5 -14t8.5 -43q-1 -17 -5 -56t-5 -61
q-3 -40 -4.5 -95.5t-0.5 -105.5z" />
    <glyph glyph-name="afii10032" unicode="&#xce;" horiz-adv-x="676" 
d="M282 816l6 -5q18 -16 55.5 -4t59.5 12q99 -1 168.5 -101.5t69.5 -233.5q0 -207 -113 -335.5t-244 -128.5q-111 -1 -180 98.5t-69 257.5q0 123 76 286t144 163q8 0 14.5 -2.5t12.5 -6.5zM303 753l-8 -11q-9 -3 -19.5 -1.5t-31.5 7.5q-60 -77 -90.5 -170.5t-29.5 -168.5
q-1 -135 53 -218t137 -83q107 -1 185.5 100.5t78.5 243.5q-1 142 -68.5 232.5t-151.5 90.5q-16 0 -32 -6.5t-23 -15.5z" />
    <glyph glyph-name="afii10032" unicode="&#x41e;" horiz-adv-x="676" 
d="M282 816l6 -5q18 -16 55.5 -4t59.5 12q99 -1 168.5 -101.5t69.5 -233.5q0 -207 -113 -335.5t-244 -128.5q-111 -1 -180 98.5t-69 257.5q0 123 76 286t144 163q8 0 14.5 -2.5t12.5 -6.5zM303 753l-8 -11q-9 -3 -19.5 -1.5t-31.5 7.5q-60 -77 -90.5 -170.5t-29.5 -168.5
q-1 -135 53 -218t137 -83q107 -1 185.5 100.5t78.5 243.5q-1 142 -68.5 232.5t-151.5 90.5q-16 0 -32 -6.5t-23 -15.5z" />
    <glyph glyph-name="afii10033" unicode="&#xcf;" horiz-adv-x="654" 
d="M-109 634l77 33q235 101 428.5 155.5t271.5 54.5q3 0 5 -1t3 -2q2 -2 1 -4t-6 -3l-46 -13q-41 -12 -52.5 -20.5t-11.5 -24.5q0 -4 7 -7t10 -4q6 -6 9 -14.5t5 -19.5v-14v-25q-1 -13 -1 -28v-50q0 -28 1 -83.5t1 -82.5q0 -22 -1.5 -75.5t-0.5 -82.5q0 -46 4 -84t22 -118
l4 -18q9 -42 -4 -62.5t-42 -19.5q-46 0 -61 121.5t-15 534.5v49q0 27 3 48.5t11 43.5q-138 -48 -201.5 -73t-132.5 -56q7 -89 13 -191.5t6 -169.5q0 -198 -14.5 -264t-44.5 -66q-14 0 -24 17t-9 342v303q-28 -10 -52 -20t-87 -42l-63 -32q-22 -12 -38 -3t-16 28q0 13 7 22
t34 21z" />
    <glyph glyph-name="afii10033" unicode="&#x41f;" horiz-adv-x="654" 
d="M-109 634l77 33q235 101 428.5 155.5t271.5 54.5q3 0 5 -1t3 -2q2 -2 1 -4t-6 -3l-46 -13q-41 -12 -52.5 -20.5t-11.5 -24.5q0 -4 7 -7t10 -4q6 -6 9 -14.5t5 -19.5v-14v-25q-1 -13 -1 -28v-50q0 -28 1 -83.5t1 -82.5q0 -22 -1.5 -75.5t-0.5 -82.5q0 -46 4 -84t22 -118
l4 -18q9 -42 -4 -62.5t-42 -19.5q-46 0 -61 121.5t-15 534.5v49q0 27 3 48.5t11 43.5q-138 -48 -201.5 -73t-132.5 -56q7 -89 13 -191.5t6 -169.5q0 -198 -14.5 -264t-44.5 -66q-14 0 -24 17t-9 342v303q-28 -10 -52 -20t-87 -42l-63 -32q-22 -12 -38 -3t-16 28q0 13 7 22
t34 21z" />
    <glyph glyph-name="afii10034" unicode="&#xd0;" horiz-adv-x="509" 
d="M32 707l118 90q80 61 189.5 103.5t194.5 42.5q43 0 67 -21.5t24 -62.5q0 -95 -151 -242.5t-300 -229.5q1 -82 0 -137t0 -92q0 -27 1 -43.5t3 -32.5q6 -39 6.5 -39.5t0.5 -3.5q0 -16 -10 -22t-28 -6q-33 0 -45 16.5t-11 51.5q0 69 6.5 91t6.5 53v36q0 24 -0.5 35t-2.5 27
q-2 17 -2.5 27t-0.5 25q-9 5 -14.5 14t-5.5 17t6 15.5t17 11.5l3 279q-20 -20 -41.5 -33t-35.5 -12q-6 0 -9 2.5t-3 9.5q0 9 2 14.5t15 15.5zM178 469q136 79 254.5 194.5t118.5 183.5q0 20 -13.5 33.5t-38.5 13.5q-61 0 -141 -36.5t-170 -112.5q-9 -59 -11.5 -126t1.5 -150
z" />
    <glyph glyph-name="afii10034" unicode="&#x420;" horiz-adv-x="509" 
d="M32 707l118 90q80 61 189.5 103.5t194.5 42.5q43 0 67 -21.5t24 -62.5q0 -95 -151 -242.5t-300 -229.5q1 -82 0 -137t0 -92q0 -27 1 -43.5t3 -32.5q6 -39 6.5 -39.5t0.5 -3.5q0 -16 -10 -22t-28 -6q-33 0 -45 16.5t-11 51.5q0 69 6.5 91t6.5 53v36q0 24 -0.5 35t-2.5 27
q-2 17 -2.5 27t-0.5 25q-9 5 -14.5 14t-5.5 17t6 15.5t17 11.5l3 279q-20 -20 -41.5 -33t-35.5 -12q-6 0 -9 2.5t-3 9.5q0 9 2 14.5t15 15.5zM178 469q136 79 254.5 194.5t118.5 183.5q0 20 -13.5 33.5t-38.5 13.5q-61 0 -141 -36.5t-170 -112.5q-9 -59 -11.5 -126t1.5 -150
z" />
    <glyph glyph-name="afii10035" unicode="&#xd1;" horiz-adv-x="622" 
d="M641 262q-67 -141 -144 -190t-171 -48q-127 0 -206 91t-79 255q0 196 120.5 336.5t271.5 140.5q52 0 97.5 -17t45.5 -40q0 -13 -4.5 -18t-11.5 -4q-30 0 -43.5 6.5t-66.5 6.5q-130 -1 -219.5 -103t-89.5 -260q0 -145 66.5 -223.5t174.5 -78.5q101 -1 181.5 77.5
t73.5 76.5h0.5h1.5q0 -1 1.5 -2l1.5 -1q0 -2 -0.5 -3t-0.5 -2z" />
    <glyph glyph-name="afii10035" unicode="&#x421;" horiz-adv-x="622" 
d="M641 262q-67 -141 -144 -190t-171 -48q-127 0 -206 91t-79 255q0 196 120.5 336.5t271.5 140.5q52 0 97.5 -17t45.5 -40q0 -13 -4.5 -18t-11.5 -4q-30 0 -43.5 6.5t-66.5 6.5q-130 -1 -219.5 -103t-89.5 -260q0 -145 66.5 -223.5t174.5 -78.5q101 -1 181.5 77.5
t73.5 76.5h0.5h1.5q0 -1 1.5 -2l1.5 -1q0 -2 -0.5 -3t-0.5 -2z" />
    <glyph glyph-name="afii10036" unicode="&#xd2;" horiz-adv-x="524" 
d="M-68 661l77 33q269 115 478.5 181.5t309.5 66.5q2 0 3.5 -0.5t2.5 -1.5q0 -3 -1.5 -5t-13.5 -4l-37 -8q-51 -11 -196 -65t-249 -99q6 -170 9.5 -269.5t3.5 -142.5q0 -225 -14 -273.5t-40 -48.5q-14 -1 -24.5 19t-9.5 382v303q-17 -6 -28.5 -11t-194.5 -93l-64 -31
q-25 -13 -39.5 -3.5t-14.5 28.5q0 12 7.5 21t34.5 21z" />
    <glyph glyph-name="afii10036" unicode="&#x422;" horiz-adv-x="524" 
d="M-68 661l77 33q269 115 478.5 181.5t309.5 66.5q2 0 3.5 -0.5t2.5 -1.5q0 -3 -1.5 -5t-13.5 -4l-37 -8q-51 -11 -196 -65t-249 -99q6 -170 9.5 -269.5t3.5 -142.5q0 -225 -14 -273.5t-40 -48.5q-14 -1 -24.5 19t-9.5 382v303q-17 -6 -28.5 -11t-194.5 -93l-64 -31
q-25 -13 -39.5 -3.5t-14.5 28.5q0 12 7.5 21t34.5 21z" />
    <glyph glyph-name="afii10037" unicode="&#xd3;" horiz-adv-x="440" 
d="M107 740l49 -81q82 -136 82 -136.5t38 -41.5q16 50 22.5 72.5t12.5 41.5q40 143 38.5 139t0.5 0l30 92q8 27 15 32.5t18 5.5q9 0 14.5 -3t6.5 -7v-1v-3q-1 -3 0.5 -7.5t1.5 -6.5q-1 -5 -2 -12t-71 -286l-34 -135q6 -7 12 -18.5t7 -17.5q0 -7 -7.5 -14t-16.5 -10
q-36 -58 -63.5 -125.5t-59.5 -172.5l-45 -144q-11 -34 -20.5 -44.5t-23.5 -16.5q-10 -4 -12 1t9 38l56 175q10 34 30 113t47 199l-62 90q-76 108 -121.5 182.5t-44.5 90.5q0 18 13 32.5t35 14.5q11 0 19.5 -4.5t25.5 -31.5z" />
    <glyph glyph-name="afii10037" unicode="&#x423;" horiz-adv-x="440" 
d="M107 740l49 -81q82 -136 82 -136.5t38 -41.5q16 50 22.5 72.5t12.5 41.5q40 143 38.5 139t0.5 0l30 92q8 27 15 32.5t18 5.5q9 0 14.5 -3t6.5 -7v-1v-3q-1 -3 0.5 -7.5t1.5 -6.5q-1 -5 -2 -12t-71 -286l-34 -135q6 -7 12 -18.5t7 -17.5q0 -7 -7.5 -14t-16.5 -10
q-36 -58 -63.5 -125.5t-59.5 -172.5l-45 -144q-11 -34 -20.5 -44.5t-23.5 -16.5q-10 -4 -12 1t9 38l56 175q10 34 30 113t47 199l-62 90q-76 108 -121.5 182.5t-44.5 90.5q0 18 13 32.5t35 14.5q11 0 19.5 -4.5t25.5 -31.5z" />
    <glyph glyph-name="afii10038" unicode="&#xd4;" horiz-adv-x="787" 
d="M439 81l4 -26q6 -44 -3.5 -52t-30.5 -8q-31 0 -44 17t-12 52q0 10 4 43t6 82q-72 -29 -128.5 -42.5t-104.5 -13.5q-72 0 -111.5 38.5t-39.5 122.5q0 118 111.5 224.5t276.5 162.5l-2 66l-4 27q-7 42 2.5 50.5t31.5 9.5q25 0 38.5 -9.5t13.5 -27.5q0 -6 -0.5 -12t-1.5 -13
t-2 -14.5t-1 -53.5q60 26 125.5 41t122.5 15q67 0 100 -32.5t34 -95.5q0 -123 -117.5 -244t-270.5 -183q-1 -37 -0.5 -72.5t3.5 -51.5zM366 463l2 154q-158 -66 -236 -151.5t-78 -165.5q0 -44 28 -71t76 -27q40 0 90 12.5t114 39.5q0 50 1 102.5t3 106.5zM436 279
q134 61 224 156.5t90 183.5q-1 38 -23.5 57.5t-63.5 19.5t-86.5 -12t-135.5 -49q0 -90 -1 -179t-4 -177z" />
    <glyph glyph-name="afii10038" unicode="&#x424;" horiz-adv-x="787" 
d="M439 81l4 -26q6 -44 -3.5 -52t-30.5 -8q-31 0 -44 17t-12 52q0 10 4 43t6 82q-72 -29 -128.5 -42.5t-104.5 -13.5q-72 0 -111.5 38.5t-39.5 122.5q0 118 111.5 224.5t276.5 162.5l-2 66l-4 27q-7 42 2.5 50.5t31.5 9.5q25 0 38.5 -9.5t13.5 -27.5q0 -6 -0.5 -12t-1.5 -13
t-2 -14.5t-1 -53.5q60 26 125.5 41t122.5 15q67 0 100 -32.5t34 -95.5q0 -123 -117.5 -244t-270.5 -183q-1 -37 -0.5 -72.5t3.5 -51.5zM366 463l2 154q-158 -66 -236 -151.5t-78 -165.5q0 -44 28 -71t76 -27q40 0 90 12.5t114 39.5q0 50 1 102.5t3 106.5zM436 279
q134 61 224 156.5t90 183.5q-1 38 -23.5 57.5t-63.5 19.5t-86.5 -12t-135.5 -49q0 -90 -1 -179t-4 -177z" />
    <glyph glyph-name="afii10039" unicode="&#xd5;" horiz-adv-x="428" 
d="M188 431l-69 149q-77 165 -89.5 195.5t-12.5 43.5q0 16 10.5 26.5t30.5 10.5q15 0 24 -5.5t21 -35.5l20 -52q23 -63 47.5 -118t54.5 -112q49 76 96 160t51 90l17 26q2 3 7.5 4.5t22.5 2.5q5 0 5.5 -5.5t-2.5 -11.5l-63 -139q-56 -123 -70.5 -151t-30.5 -59
q164 -405 164.5 -406.5t0.5 -3.5q0 -16 -9 -25.5t-20 -8.5q-8 0 -15.5 6t-99.5 203l-65 138l-47 -98q-155 -321 -165.5 -325t-11.5 -5h-0.5h-0.5q0 16 89 240t110 266z" />
    <glyph glyph-name="afii10039" unicode="&#x425;" horiz-adv-x="428" 
d="M188 431l-69 149q-77 165 -89.5 195.5t-12.5 43.5q0 16 10.5 26.5t30.5 10.5q15 0 24 -5.5t21 -35.5l20 -52q23 -63 47.5 -118t54.5 -112q49 76 96 160t51 90l17 26q2 3 7.5 4.5t22.5 2.5q5 0 5.5 -5.5t-2.5 -11.5l-63 -139q-56 -123 -70.5 -151t-30.5 -59
q164 -405 164.5 -406.5t0.5 -3.5q0 -16 -9 -25.5t-20 -8.5q-8 0 -15.5 6t-99.5 203l-65 138l-47 -98q-155 -321 -165.5 -325t-11.5 -5h-0.5h-0.5q0 16 89 240t110 266z" />
    <glyph glyph-name="afii10040" unicode="&#xd6;" horiz-adv-x="694" 
d="M646 208l32 15q31 14 48.5 -4.5t17.5 -61.5q0 -23 -0.5 -23t-39.5 -112l-32 -90q-5 -13 -14.5 -23t-17.5 -10q-9 0 -14 8.5t-5 24.5q0 14 2.5 31t50.5 189q-164 -69 -321 -117t-237 -48q-36 1 -49.5 16t-13.5 54q-1 14 -1 28.5t1 28.5q0 14 0.5 40t1.5 38q0 26 0.5 56.5
t0.5 108.5q0 227 -3 247.5t-12 65.5l-4 18q-9 36 2.5 58t46.5 22q32 0 45.5 -29t13.5 -113q0 -30 -0.5 -93.5t-0.5 -95.5q0 -38 1 -131t1 -147l-2 -111q66 13 146 38.5t170 62.5q-5 117 -6.5 198t-1.5 149q0 170 15.5 249.5t48.5 79.5q14 0 21 -11t7 -49q-1 -248 -1 -267
v-34l-6 -302q12 3 23 7t86 39z" />
    <glyph glyph-name="afii10040" unicode="&#x426;" horiz-adv-x="694" 
d="M646 208l32 15q31 14 48.5 -4.5t17.5 -61.5q0 -23 -0.5 -23t-39.5 -112l-32 -90q-5 -13 -14.5 -23t-17.5 -10q-9 0 -14 8.5t-5 24.5q0 14 2.5 31t50.5 189q-164 -69 -321 -117t-237 -48q-36 1 -49.5 16t-13.5 54q-1 14 -1 28.5t1 28.5q0 14 0.5 40t1.5 38q0 26 0.5 56.5
t0.5 108.5q0 227 -3 247.5t-12 65.5l-4 18q-9 36 2.5 58t46.5 22q32 0 45.5 -29t13.5 -113q0 -30 -0.5 -93.5t-0.5 -95.5q0 -38 1 -131t1 -147l-2 -111q66 13 146 38.5t170 62.5q-5 117 -6.5 198t-1.5 149q0 170 15.5 249.5t48.5 79.5q14 0 21 -11t7 -49q-1 -248 -1 -267
v-34l-6 -302q12 3 23 7t86 39z" />
    <glyph glyph-name="afii10041" unicode="&#xd7;" horiz-adv-x="595" 
d="M435 102l-3 310q-57 -38 -118.5 -61t-114.5 -23q-97 -1 -137 61t-40 236q0 62 15.5 90.5t45.5 29.5q16 0 24 -12t4 -112l-3 -66q-4 -74 25 -113t89 -39q42 0 97 25t112 67q4 187 15.5 256.5t45.5 69.5q21 0 30 -9.5t10 -30.5v-2l-11 -68q-3 -15 -4 -40.5t-2 -35.5l-7 -68
q23 12 38 6t15 -18q0 -16 -13.5 -43.5t-24.5 -38.5q1 -74 3.5 -128t8.5 -124q2 -33 4.5 -73t2.5 -57q0 -42 -14 -64.5t-39 -21.5q-28 0 -41 24.5t-13 72.5z" />
    <glyph glyph-name="afii10041" unicode="&#x427;" horiz-adv-x="595" 
d="M435 102l-3 310q-57 -38 -118.5 -61t-114.5 -23q-97 -1 -137 61t-40 236q0 62 15.5 90.5t45.5 29.5q16 0 24 -12t4 -112l-3 -66q-4 -74 25 -113t89 -39q42 0 97 25t112 67q4 187 15.5 256.5t45.5 69.5q21 0 30 -9.5t10 -30.5v-2l-11 -68q-3 -15 -4 -40.5t-2 -35.5l-7 -68
q23 12 38 6t15 -18q0 -16 -13.5 -43.5t-24.5 -38.5q1 -74 3.5 -128t8.5 -124q2 -33 4.5 -73t2.5 -57q0 -42 -14 -64.5t-39 -21.5q-28 0 -41 24.5t-13 72.5z" />
    <glyph glyph-name="afii10042" unicode="&#xd8;" horiz-adv-x="915" 
d="M496 747l12 -53q8 -39 12.5 -211.5t2.5 -299.5q84 25 138 44.5t111 35.5q-2 52 -1 88.5t1 74.5q-3 157 -16.5 243t-13.5 97q-1 24 13 37t34 13q31 -1 50 -44.5t24 -341.5l3 -210q0 -67 -10.5 -92.5t-42.5 -25.5q-21 0 -31.5 19t-6.5 48q-63 -12 -156.5 -38.5
t-248.5 -62.5q-220 -52 -218 -52t-4 1q-47 0 -57.5 19.5t-7.5 102.5l2 65q1 39 -5.5 161t-11.5 161l-12 82q-15 97 -6.5 141.5t37.5 45.5q31 -1 48.5 -25t21.5 -76l11 -186q5 -97 6 -203.5t-2 -212.5q79 17 148 34.5t130 37.5q-7 147 -12.5 243t-10.5 138l-10 80
q-6 43 -13.5 75.5t-6.5 42.5q-1 21 11 37.5t35 16.5q23 -1 34 -10t19 -40z" />
    <glyph glyph-name="afii10042" unicode="&#x428;" horiz-adv-x="915" 
d="M496 747l12 -53q8 -39 12.5 -211.5t2.5 -299.5q84 25 138 44.5t111 35.5q-2 52 -1 88.5t1 74.5q-3 157 -16.5 243t-13.5 97q-1 24 13 37t34 13q31 -1 50 -44.5t24 -341.5l3 -210q0 -67 -10.5 -92.5t-42.5 -25.5q-21 0 -31.5 19t-6.5 48q-63 -12 -156.5 -38.5
t-248.5 -62.5q-220 -52 -218 -52t-4 1q-47 0 -57.5 19.5t-7.5 102.5l2 65q1 39 -5.5 161t-11.5 161l-12 82q-15 97 -6.5 141.5t37.5 45.5q31 -1 48.5 -25t21.5 -76l11 -186q5 -97 6 -203.5t-2 -212.5q79 17 148 34.5t130 37.5q-7 147 -12.5 243t-10.5 138l-10 80
q-6 43 -13.5 75.5t-6.5 42.5q-1 21 11 37.5t35 16.5q23 -1 34 -10t19 -40z" />
    <glyph glyph-name="afii10043" unicode="&#xd9;" horiz-adv-x="1023" 
d="M497 747l12 -53q8 -39 12 -211.5t2 -299.5q75 22 134 43t116 37q-4 51 -2 101.5t2 61.5q-1 146 -16 234t-14 106q0 24 13 37t33 13q37 0 55 -58t20 -328l1 -148l98 31q37 11 47.5 -3t11.5 -49q0 -21 -15.5 -66t-34.5 -84l-53 -109q-7 -13 -18.5 -29t-17.5 -16
q-7 0 -12.5 12t-5.5 27q0 36 30 114t61 135q-112 -47 -256.5 -91t-328.5 -86q-220 -52 -218.5 -51.5t-4.5 0.5q-49 0 -58 21.5t-6 100.5l2 65q1 39 -5.5 161t-11.5 161l-12 82q-14 94 -7.5 140.5t38.5 46.5q29 -1 48 -25t22 -76l10 -186q6 -129 7 -225t-2 -191
q80 17 148 34.5t129 37.5q-6 146 -11.5 242.5t-10.5 138.5l-11 80q-8 53 -9.5 60t-2.5 15q-6 23 -7 30t-1 13q0 20 12 37t35 17t34 -9.5t19 -40.5z" />
    <glyph glyph-name="afii10043" unicode="&#x429;" horiz-adv-x="1023" 
d="M497 747l12 -53q8 -39 12 -211.5t2 -299.5q75 22 134 43t116 37q-4 51 -2 101.5t2 61.5q-1 146 -16 234t-14 106q0 24 13 37t33 13q37 0 55 -58t20 -328l1 -148l98 31q37 11 47.5 -3t11.5 -49q0 -21 -15.5 -66t-34.5 -84l-53 -109q-7 -13 -18.5 -29t-17.5 -16
q-7 0 -12.5 12t-5.5 27q0 36 30 114t61 135q-112 -47 -256.5 -91t-328.5 -86q-220 -52 -218.5 -51.5t-4.5 0.5q-49 0 -58 21.5t-6 100.5l2 65q1 39 -5.5 161t-11.5 161l-12 82q-14 94 -7.5 140.5t38.5 46.5q29 -1 48 -25t22 -76l10 -186q6 -129 7 -225t-2 -191
q80 17 148 34.5t129 37.5q-6 146 -11.5 242.5t-10.5 138.5l-11 80q-8 53 -9.5 60t-2.5 15q-6 23 -7 30t-1 13q0 20 12 37t35 17t34 -9.5t19 -40.5z" />
    <glyph glyph-name="afii10044" unicode="&#xda;" horiz-adv-x="656" 
d="M170 89l-7 633l-2 40q-21 -6 -40.5 -13t-100.5 -44l-65 -30q-22 -11 -38 -2t-16 29q0 12 8.5 21.5t33.5 19.5l227 84q2 8 8.5 12t18.5 4q29 0 36.5 -61t6.5 -289q60 43 142.5 71.5t143.5 28.5q56 0 85.5 -34.5t29.5 -92.5q0 -83 -83 -195t-194 -187l-55 -37
q-42 -28 -59 -36t-28 -8q-26 0 -39 17t-13 69zM238 413l-2 -336q184 132 256 218t72 157q0 34 -17.5 50.5t-53.5 16.5q-55 0 -125.5 -30.5t-129.5 -75.5z" />
    <glyph glyph-name="afii10044" unicode="&#x42a;" horiz-adv-x="656" 
d="M170 89l-7 633l-2 40q-21 -6 -40.5 -13t-100.5 -44l-65 -30q-22 -11 -38 -2t-16 29q0 12 8.5 21.5t33.5 19.5l227 84q2 8 8.5 12t18.5 4q29 0 36.5 -61t6.5 -289q60 43 142.5 71.5t143.5 28.5q56 0 85.5 -34.5t29.5 -92.5q0 -83 -83 -195t-194 -187l-55 -37
q-42 -28 -59 -36t-28 -8q-26 0 -39 17t-13 69zM238 413l-2 -336q184 132 256 218t72 157q0 34 -17.5 50.5t-53.5 16.5q-55 0 -125.5 -30.5t-129.5 -75.5z" />
    <glyph glyph-name="afii10045" unicode="&#xdb;" horiz-adv-x="799" 
d="M91 81l-42 631q-6 86 1.5 104.5t26.5 18.5q28 0 40 -62t21 -281q70 41 145.5 65t136.5 24q55 0 87.5 -39t32.5 -102q0 -84 -66.5 -172.5t-189.5 -181.5l-53 -40q-57 -43 -66 -45.5t-19 -2.5q-26 0 -39 14.5t-16 68.5zM142 409l13 -334q188 128 248 201.5t61 144.5
q0 44 -19 64.5t-54 20.5q-49 -1 -122.5 -30.5t-126.5 -66.5zM646 639l-6 84q-3 41 7.5 63t37.5 22q25 0 38.5 -15.5t13.5 -68.5q-1 -24 -1 -42.5t1 -34.5q2 -210 11.5 -343t24.5 -183l5 -18q10 -39 -4 -61t-41 -22q-23 0 -34.5 11.5t-18.5 57.5l-12 70q-11 62 -12.5 210.5
t-9.5 269.5z" />
    <glyph glyph-name="afii10045" unicode="&#x42b;" horiz-adv-x="799" 
d="M91 81l-42 631q-6 86 1.5 104.5t26.5 18.5q28 0 40 -62t21 -281q70 41 145.5 65t136.5 24q55 0 87.5 -39t32.5 -102q0 -84 -66.5 -172.5t-189.5 -181.5l-53 -40q-57 -43 -66 -45.5t-19 -2.5q-26 0 -39 14.5t-16 68.5zM142 409l13 -334q188 128 248 201.5t61 144.5
q0 44 -19 64.5t-54 20.5q-49 -1 -122.5 -30.5t-126.5 -66.5zM646 639l-6 84q-3 41 7.5 63t37.5 22q25 0 38.5 -15.5t13.5 -68.5q-1 -24 -1 -42.5t1 -34.5q2 -210 11.5 -343t24.5 -183l5 -18q10 -39 -4 -61t-41 -22q-23 0 -34.5 11.5t-18.5 57.5l-12 70q-11 62 -12.5 210.5
t-9.5 269.5z" />
    <glyph glyph-name="afii10046" unicode="&#xdc;" horiz-adv-x="550" 
d="M78 87l-30 632q-5 87 3 104.5t27 17.5q26 -1 38.5 -57t17.5 -291q60 46 141 77t142 32q57 0 87.5 -34t30.5 -88q0 -87 -76.5 -199t-187.5 -193l-53 -39q-51 -38 -63.5 -42.5t-22.5 -4.5q-26 0 -39 15t-15 70zM135 412l9 -335q174 131 244.5 222.5t70.5 162.5
q0 32 -18 48.5t-56 16.5q-56 0 -119 -29t-131 -86z" />
    <glyph glyph-name="afii10046" unicode="&#x42c;" horiz-adv-x="550" 
d="M78 87l-30 632q-5 87 3 104.5t27 17.5q26 -1 38.5 -57t17.5 -291q60 46 141 77t142 32q57 0 87.5 -34t30.5 -88q0 -87 -76.5 -199t-187.5 -193l-53 -39q-51 -38 -63.5 -42.5t-22.5 -4.5q-26 0 -39 15t-15 70zM135 412l9 -335q174 131 244.5 222.5t70.5 162.5
q0 32 -18 48.5t-56 16.5q-56 0 -119 -29t-131 -86z" />
    <glyph glyph-name="afii10047" unicode="&#xdd;" horiz-adv-x="630" 
d="M181 395l-52 -16q-34 -11 -51.5 -6t-16.5 19q-1 19 27.5 34t98.5 27q194 31 227 41t69 23q-21 81 -91 137t-151 56q-32 0 -67 -11t-78 -33q-48 -25 -52 -26t-7 -1q-7 0 -10.5 4t-3.5 12q0 34 94 81t171 47q103 0 186 -61t110 -174q28 7 46.5 4t18.5 -16q0 -15 -19 -30.5
t-40 -18.5q4 -190 -122.5 -326t-295.5 -135q-74 0 -112 23.5t-37 63.5q-1 12 5 17.5t23 5.5q15 0 48.5 -12t65.5 -12q133 0 228.5 95.5t94.5 248.5q-93 -22 -178.5 -35t-128.5 -26z" />
    <glyph glyph-name="afii10047" unicode="&#x42d;" horiz-adv-x="630" 
d="M181 395l-52 -16q-34 -11 -51.5 -6t-16.5 19q-1 19 27.5 34t98.5 27q194 31 227 41t69 23q-21 81 -91 137t-151 56q-32 0 -67 -11t-78 -33q-48 -25 -52 -26t-7 -1q-7 0 -10.5 4t-3.5 12q0 34 94 81t171 47q103 0 186 -61t110 -174q28 7 46.5 4t18.5 -16q0 -15 -19 -30.5
t-40 -18.5q4 -190 -122.5 -326t-295.5 -135q-74 0 -112 23.5t-37 63.5q-1 12 5 17.5t23 5.5q15 0 48.5 -12t65.5 -12q133 0 228.5 95.5t94.5 248.5q-93 -22 -178.5 -35t-128.5 -26z" />
    <glyph glyph-name="afii10048" unicode="&#xde;" horiz-adv-x="980" 
d="M158 407l216 93q19 102 77.5 204t91.5 102v-0.5t23 -15.5l28 -20q22 13 52.5 22.5t56.5 9.5q106 0 174 -89.5t69 -254.5q0 -190 -83 -317t-214 -126q-146 -1 -225 116t-58 312q-53 -25 -102.5 -53.5t-95.5 -60.5q0 -29 1 -55t9 -95q3 -37 4.5 -62t2.5 -44
q0 -31 -13.5 -46t-42.5 -15q-24 0 -32 12.5t-8 42.5q0 7 1 19.5t2 19.5q0 22 -13.5 115.5t-13.5 313.5q0 177 16 215.5t50 38.5q15 0 23 -14.5t9 -43.5q0 -14 -5 -43t-5 -73q0 -41 1 -105.5t4 -102.5zM582 113q15 -8 45 -14.5t49 -5.5q82 0 136 105.5t54 288.5
q-1 124 -55 197t-142 73q-100 0 -158.5 -93t-57.5 -248q0 -117 33 -196t96 -107z" />
    <glyph glyph-name="afii10048" unicode="&#x42e;" horiz-adv-x="980" 
d="M158 407l216 93q19 102 77.5 204t91.5 102v-0.5t23 -15.5l28 -20q22 13 52.5 22.5t56.5 9.5q106 0 174 -89.5t69 -254.5q0 -190 -83 -317t-214 -126q-146 -1 -225 116t-58 312q-53 -25 -102.5 -53.5t-95.5 -60.5q0 -29 1 -55t9 -95q3 -37 4.5 -62t2.5 -44
q0 -31 -13.5 -46t-42.5 -15q-24 0 -32 12.5t-8 42.5q0 7 1 19.5t2 19.5q0 22 -13.5 115.5t-13.5 313.5q0 177 16 215.5t50 38.5q15 0 23 -14.5t9 -43.5q0 -14 -5 -43t-5 -73q0 -41 1 -105.5t4 -102.5zM582 113q15 -8 45 -14.5t49 -5.5q82 0 136 105.5t54 288.5
q-1 124 -55 197t-142 73q-100 0 -158.5 -93t-57.5 -248q0 -117 33 -196t96 -107z" />
    <glyph glyph-name="afii10049" unicode="&#xdf;" horiz-adv-x="599" 
d="M529 777l3 -239q18 -6 35.5 -20.5t17.5 -27.5q0 -9 -7 -15.5t-43 -22.5q-2 -42 -2.5 -82t4.5 -221l1 -43q1 -67 -9.5 -74.5t-30.5 -7.5q-30 0 -40.5 4.5t-10.5 16.5q0 4 -0.5 4t14.5 26l6 11q4 8 6 14.5t2 18.5q0 13 -3 37.5t-4 52.5q-1 7 -1.5 15.5t-2.5 88.5
q-1 11 -1.5 23t-3.5 96q-85 -44 -162.5 -118.5t-162.5 -199.5l-56 -82q-42 -60 -46.5 -61.5t-8.5 -1.5q-16 0 -26 11.5t-10 30.5q0 71 125.5 216t256.5 227q-46 -11 -88.5 -16.5t-68.5 -5.5q-78 0 -120 37.5t-42 101.5q0 128 118 204t339 76q55 -1 81.5 -10t26.5 -29
q0 -16 -23.5 -26t-62.5 -9zM464 535l-3 236q-140 2 -235 -53.5t-95 -137.5q0 -44 29.5 -64.5t92.5 -19.5q51 0 104.5 9.5t106.5 29.5z" />
    <glyph glyph-name="afii10049" unicode="&#x42f;" horiz-adv-x="599" 
d="M529 777l3 -239q18 -6 35.5 -20.5t17.5 -27.5q0 -9 -7 -15.5t-43 -22.5q-2 -42 -2.5 -82t4.5 -221l1 -43q1 -67 -9.5 -74.5t-30.5 -7.5q-30 0 -40.5 4.5t-10.5 16.5q0 4 -0.5 4t14.5 26l6 11q4 8 6 14.5t2 18.5q0 13 -3 37.5t-4 52.5q-1 7 -1.5 15.5t-2.5 88.5
q-1 11 -1.5 23t-3.5 96q-85 -44 -162.5 -118.5t-162.5 -199.5l-56 -82q-42 -60 -46.5 -61.5t-8.5 -1.5q-16 0 -26 11.5t-10 30.5q0 71 125.5 216t256.5 227q-46 -11 -88.5 -16.5t-68.5 -5.5q-78 0 -120 37.5t-42 101.5q0 128 118 204t339 76q55 -1 81.5 -10t26.5 -29
q0 -16 -23.5 -26t-62.5 -9zM464 535l-3 236q-140 2 -235 -53.5t-95 -137.5q0 -44 29.5 -64.5t92.5 -19.5q51 0 104.5 9.5t106.5 29.5z" />
    <glyph glyph-name="afii10065" unicode="&#xe0;" horiz-adv-x="499" 
d="M423 105v-30q-1 -53 -12 -66t-36 -13q-27 0 -34.5 28t9.5 60q-52 -35 -99.5 -49.5t-92.5 -14.5q-55 0 -96 25.5t-40 76.5q0 94 107.5 154t226.5 32v89q0 47 -22 68.5t-67 22.5q-33 0 -73.5 -12.5t-80.5 -34.5q-25 -14 -38 -12.5t-12 19.5q0 27 81.5 59.5t150.5 32.5
q63 0 97 -37t34 -145v-202q9 8 26 16.5t26 8.5q8 -1 15 -7.5t8 -14.5q0 -14 -18.5 -27t-59.5 -27zM351 128v31q0 60 -23.5 81.5t-72.5 22.5q-56 0 -107.5 -38.5t-51.5 -81.5q0 -28 18 -48.5t53 -20.5t88.5 14.5t95.5 39.5z" />
    <glyph glyph-name="afii10065" unicode="&#x430;" horiz-adv-x="499" 
d="M423 105v-30q-1 -53 -12 -66t-36 -13q-27 0 -34.5 28t9.5 60q-52 -35 -99.5 -49.5t-92.5 -14.5q-55 0 -96 25.5t-40 76.5q0 94 107.5 154t226.5 32v89q0 47 -22 68.5t-67 22.5q-33 0 -73.5 -12.5t-80.5 -34.5q-25 -14 -38 -12.5t-12 19.5q0 27 81.5 59.5t150.5 32.5
q63 0 97 -37t34 -145v-202q9 8 26 16.5t26 8.5q8 -1 15 -7.5t8 -14.5q0 -14 -18.5 -27t-59.5 -27zM351 128v31q0 60 -23.5 81.5t-72.5 22.5q-56 0 -107.5 -38.5t-51.5 -81.5q0 -28 18 -48.5t53 -20.5t88.5 14.5t95.5 39.5z" />
    <glyph glyph-name="afii10066" unicode="&#xe1;" horiz-adv-x="479" 
d="M374 171q-40 -70 -101.5 -112.5t-130.5 -41.5q-58 0 -88.5 37t-30.5 109q0 84 69.5 182.5t193.5 174.5q-120 133 -125.5 144.5t-5.5 22.5q0 28 176.5 130t215.5 102q13 -1 21.5 -8t9.5 -16q0 -8 -9 -17t-123 -70q-167 -89 -189 -108t-22 -34q0 -18 28.5 -54t65.5 -67
q24 15 36.5 21.5t20.5 6.5t16.5 -12t8.5 -23q0 -3 -5 -7t-42 -31q31 -32 46.5 -71t15.5 -83q0 -40 -15 -87.5t-37 -87.5zM320 472q-100 -64 -158 -142t-58 -156q-1 -45 19 -71t56 -25q60 0 123.5 84.5t63.5 193.5q-1 33 -11.5 61.5t-34.5 54.5z" />
    <glyph glyph-name="afii10066" unicode="&#x431;" horiz-adv-x="479" 
d="M374 171q-40 -70 -101.5 -112.5t-130.5 -41.5q-58 0 -88.5 37t-30.5 109q0 84 69.5 182.5t193.5 174.5q-120 133 -125.5 144.5t-5.5 22.5q0 28 176.5 130t215.5 102q13 -1 21.5 -8t9.5 -16q0 -8 -9 -17t-123 -70q-167 -89 -189 -108t-22 -34q0 -18 28.5 -54t65.5 -67
q24 15 36.5 21.5t20.5 6.5t16.5 -12t8.5 -23q0 -3 -5 -7t-42 -31q31 -32 46.5 -71t15.5 -83q0 -40 -15 -87.5t-37 -87.5zM320 472q-100 -64 -158 -142t-58 -156q-1 -45 19 -71t56 -25q60 0 123.5 84.5t63.5 193.5q-1 33 -11.5 61.5t-34.5 54.5z" />
    <glyph glyph-name="afii10067" unicode="&#xe2;" horiz-adv-x="478" 
d="M227 431q29 19 67 34t60 15q46 -1 75 -35.5t29 -92.5q0 -102 -111 -225t-185 -123q-69 0 -96 143.5t-26 422.5q0 132 33.5 182t104.5 51q71 -1 112.5 -44t41.5 -110q0 -51 -27.5 -107.5t-77.5 -110.5zM384 349q0 31 -16.5 49t-42.5 18q-49 -1 -105 -58.5t-104 -27.5
q-2 -93 17 -162t57 -69q46 -1 120 90.5t74 159.5zM114 351q28 84 88.5 153.5t60.5 136.5q0 47 -18 74.5t-52 27.5q-53 0 -74.5 -81t-4.5 -311z" />
    <glyph glyph-name="afii10067" unicode="&#x432;" horiz-adv-x="478" 
d="M227 431q29 19 67 34t60 15q46 -1 75 -35.5t29 -92.5q0 -102 -111 -225t-185 -123q-69 0 -96 143.5t-26 422.5q0 132 33.5 182t104.5 51q71 -1 112.5 -44t41.5 -110q0 -51 -27.5 -107.5t-77.5 -110.5zM384 349q0 31 -16.5 49t-42.5 18q-49 -1 -105 -58.5t-104 -27.5
q-2 -93 17 -162t57 -69q46 -1 120 90.5t74 159.5zM114 351q28 84 88.5 153.5t60.5 136.5q0 47 -18 74.5t-52 27.5q-53 0 -74.5 -81t-4.5 -311z" />
    <glyph glyph-name="glyph146" unicode="&#xe3;" horiz-adv-x="290" 
d="M416 560l-32 -10q-58 -18 -126 -44t-129 -52q12 -106 18 -192t6 -156q0 -105 -7 -123.5t-22 -18.5q-15 1 -26 14.5t-22 319.5l-5 138l-37 -17q-17 -8 -25 -5t-8 15q0 15 8 24.5t35 21.5l47 20q65 27 179.5 55.5t145.5 29.5q1 0 2.5 -3t1.5 -6q0 -4 -1.5 -7.5t-2.5 -3.5z
" />
    <glyph glyph-name="glyph146" unicode="&#x433;" horiz-adv-x="290" 
d="M416 560l-32 -10q-58 -18 -126 -44t-129 -52q12 -106 18 -192t6 -156q0 -105 -7 -123.5t-22 -18.5q-15 1 -26 14.5t-22 319.5l-5 138l-37 -17q-17 -8 -25 -5t-8 15q0 15 8 24.5t35 21.5l47 20q65 27 179.5 55.5t145.5 29.5q1 0 2.5 -3t1.5 -6q0 -4 -1.5 -7.5t-2.5 -3.5z
" />
    <glyph glyph-name="afii10069" unicode="&#xe4;" horiz-adv-x="460" 
d="M27 713l-29 -10q-24 -9 -35 -7t-11 14q1 21 42 37t96 16q148 0 241 -132t93 -293q0 -147 -63.5 -235.5t-157.5 -87.5q-73 0 -123.5 60.5t-50.5 148.5q0 92 59 160t121 68q11 0 17.5 -4.5t7.5 -10.5q0 -6 -1 -8t-8 -5l-39 -20q-33 -17 -54 -60.5t-21 -88.5
q0 -72 30.5 -117t79.5 -45q61 0 102 66t41 175q0 146 -81.5 268.5t-188.5 122.5q-17 0 -32.5 -3t-34.5 -9z" />
    <glyph glyph-name="afii10069" unicode="&#x434;" horiz-adv-x="460" 
d="M27 713l-29 -10q-24 -9 -35 -7t-11 14q1 21 42 37t96 16q148 0 241 -132t93 -293q0 -147 -63.5 -235.5t-157.5 -87.5q-73 0 -123.5 60.5t-50.5 148.5q0 92 59 160t121 68q11 0 17.5 -4.5t7.5 -10.5q0 -6 -1 -8t-8 -5l-39 -20q-33 -17 -54 -60.5t-21 -88.5
q0 -72 30.5 -117t79.5 -45q61 0 102 66t41 175q0 146 -81.5 268.5t-188.5 122.5q-17 0 -32.5 -3t-34.5 -9z" />
    <glyph glyph-name="afii10070" unicode="&#xe5;" horiz-adv-x="407" 
d="M423 112q-74 -54 -120.5 -73t-92.5 -19q-87 0 -132.5 49t-45.5 143q0 120 84 209t179 89q34 -1 57.5 -17t23.5 -41q0 -42 -64 -110t-202 -168q8 -49 39.5 -74t77.5 -24q49 0 98 17.5t96 50.5q8 5 13 7t9 2q2 -1 3 -2t2 -3v-4v-3q-2 -7 -7 -13.5t-18 -15.5zM241 339l32 31
q23 22 28.5 31.5t6.5 17.5q0 11 -12 20.5t-29 10.5q-60 0 -113.5 -67t-50.5 -158q45 37 86.5 70.5t51.5 43.5z" />
    <glyph glyph-name="afii10070" unicode="&#x435;" horiz-adv-x="407" 
d="M423 112q-74 -54 -120.5 -73t-92.5 -19q-87 0 -132.5 49t-45.5 143q0 120 84 209t179 89q34 -1 57.5 -17t23.5 -41q0 -42 -64 -110t-202 -168q8 -49 39.5 -74t77.5 -24q49 0 98 17.5t96 50.5q8 5 13 7t9 2q2 -1 3 -2t2 -3v-4v-3q-2 -7 -7 -13.5t-18 -15.5zM241 339l32 31
q23 22 28.5 31.5t6.5 17.5q0 11 -12 20.5t-29 10.5q-60 0 -113.5 -67t-50.5 -158q45 37 86.5 70.5t51.5 43.5z" />
    <glyph glyph-name="afii10072" unicode="&#xe6;" horiz-adv-x="675" 
d="M289 288l-6 82q-3 37 -5.5 51.5t-2.5 23.5q-3 24 4.5 37t24.5 13q22 0 27 -8t8 -26q2 -20 3.5 -84.5t4.5 -109.5q64 34 119 80.5t84 96.5l23 40q11 20 31 22t20 -23q0 -52 -70.5 -123t-165.5 -100q111 7 193.5 -60t83.5 -165q-1 -20 -9.5 -29.5t-26.5 -9.5q-13 0 -18.5 5
t-7.5 22q-12 89 -82 143t-170 50q4 -58 10 -109.5t6 -63.5q0 -25 -11.5 -36t-31.5 -12q-24 0 -31 12.5t-6 87.5l1 122q-84 -9 -141 -58.5t-59 -126.5q-1 -19 -5.5 -25.5t-17.5 -6.5q-20 0 -29.5 9.5t-8.5 30.5q0 88 62.5 143.5t187.5 78.5q-106 -15 -176.5 44t-70.5 136
q-1 25 21 25t28 -14l12 -34q25 -73 74.5 -103.5t123.5 -27.5z" />
    <glyph glyph-name="afii10072" unicode="&#x436;" horiz-adv-x="675" 
d="M289 288l-6 82q-3 37 -5.5 51.5t-2.5 23.5q-3 24 4.5 37t24.5 13q22 0 27 -8t8 -26q2 -20 3.5 -84.5t4.5 -109.5q64 34 119 80.5t84 96.5l23 40q11 20 31 22t20 -23q0 -52 -70.5 -123t-165.5 -100q111 7 193.5 -60t83.5 -165q-1 -20 -9.5 -29.5t-26.5 -9.5q-13 0 -18.5 5
t-7.5 22q-12 89 -82 143t-170 50q4 -58 10 -109.5t6 -63.5q0 -25 -11.5 -36t-31.5 -12q-24 0 -31 12.5t-6 87.5l1 122q-84 -9 -141 -58.5t-59 -126.5q-1 -19 -5.5 -25.5t-17.5 -6.5q-20 0 -29.5 9.5t-8.5 30.5q0 88 62.5 143.5t187.5 78.5q-106 -15 -176.5 44t-70.5 136
q-1 25 21 25t28 -14l12 -34q25 -73 74.5 -103.5t123.5 -27.5z" />
    <glyph glyph-name="afii10073" unicode="&#xe7;" horiz-adv-x="463" 
d="M32 456l46 21q70 32 92 36.5t51 4.5q42 -1 66 -20.5t24 -55.5q0 -39 -37 -89t-91 -85q108 49 186.5 17.5t79.5 -140.5q0 -132 -130 -224t-341 -112l-33 -3q-12 -1 -12.5 0t-0.5 2q0 3 6.5 6t12.5 4l67 15q173 39 264.5 112t91.5 167q0 57 -30.5 93t-83.5 37
q-22 0 -50.5 -8.5t-48.5 -18.5l-38 -20q-13 -7 -23 -1.5t-10 18.5q0 5 1.5 10t18.5 21l41 39q48 46 68.5 73.5t20.5 51.5q0 32 -16.5 46t-44.5 14q-19 0 -44 -9.5t-50 -25.5l-33 -22q-18 -12 -35.5 -9.5t-17.5 19.5q0 10 7.5 19t25.5 17z" />
    <glyph glyph-name="afii10073" unicode="&#x437;" horiz-adv-x="463" 
d="M32 456l46 21q70 32 92 36.5t51 4.5q42 -1 66 -20.5t24 -55.5q0 -39 -37 -89t-91 -85q108 49 186.5 17.5t79.5 -140.5q0 -132 -130 -224t-341 -112l-33 -3q-12 -1 -12.5 0t-0.5 2q0 3 6.5 6t12.5 4l67 15q173 39 264.5 112t91.5 167q0 57 -30.5 93t-83.5 37
q-22 0 -50.5 -8.5t-48.5 -18.5l-38 -20q-13 -7 -23 -1.5t-10 18.5q0 5 1.5 10t18.5 21l41 39q48 46 68.5 73.5t20.5 51.5q0 32 -16.5 46t-44.5 14q-19 0 -44 -9.5t-50 -25.5l-33 -22q-18 -12 -35.5 -9.5t-17.5 19.5q0 10 7.5 19t25.5 17z" />
    <glyph glyph-name="afii10074" unicode="&#xe8;" horiz-adv-x="444" 
d="M399 155l12 -50q16 -67 5.5 -87.5t-36.5 -20.5q-22 0 -38 39.5t-16 101.5q-26 -50 -69.5 -85.5t-86.5 -34.5q-64 0 -91.5 61.5t-28.5 210.5l-1 128q-1 42 9 65t33 23q26 0 31 -21.5t5 -82.5v-139q0 -103 22.5 -139t67.5 -36q49 0 73.5 51t21.5 190l-2 83q-2 50 7 68.5
t31 18.5q18 0 25.5 -15.5t7.5 -53.5v-86q0 -63 4.5 -108t13.5 -81z" />
    <glyph glyph-name="afii10074" unicode="&#x438;" horiz-adv-x="444" 
d="M399 155l12 -50q16 -67 5.5 -87.5t-36.5 -20.5q-22 0 -38 39.5t-16 101.5q-26 -50 -69.5 -85.5t-86.5 -34.5q-64 0 -91.5 61.5t-28.5 210.5l-1 128q-1 42 9 65t33 23q26 0 31 -21.5t5 -82.5v-139q0 -103 22.5 -139t67.5 -36q49 0 73.5 51t21.5 190l-2 83q-2 50 7 68.5
t31 18.5q18 0 25.5 -15.5t7.5 -53.5v-86q0 -63 4.5 -108t13.5 -81z" />
    <glyph glyph-name="afii10075" unicode="&#xe9;" horiz-adv-x="474" 
d="M428 173l13 -50q12 -47 4 -70.5t-34 -22.5q-23 -1 -38 31t-16 79q-106 -114 -127.5 -121.5t-46.5 -6.5q-64 0 -98.5 67t-32.5 187l2 120q0 53 10.5 73t32.5 20q18 0 26.5 -12t5.5 -92l-5 -107q-5 -89 22.5 -137t80.5 -47q58 0 85 56t23 196l-3 84q-2 55 6.5 73.5
t26.5 18.5q14 0 20 -5t11 -67l7 -105q3 -51 8 -85.5t17 -76.5zM184 642l20 -8q36 -15 84 20.5t75 44.5q6 1 8.5 1t4.5 -1q0 -1 0.5 -2t0.5 -2q0 -27 -62 -80t-107 -53q-35 0 -57.5 19t-22.5 45q0 13 5.5 21t15.5 8q1 0 2 -0.5t33 -12.5z" />
    <glyph glyph-name="afii10075" unicode="&#x439;" horiz-adv-x="474" 
d="M428 173l13 -50q12 -47 4 -70.5t-34 -22.5q-23 -1 -38 31t-16 79q-106 -114 -127.5 -121.5t-46.5 -6.5q-64 0 -98.5 67t-32.5 187l2 120q0 53 10.5 73t32.5 20q18 0 26.5 -12t5.5 -92l-5 -107q-5 -89 22.5 -137t80.5 -47q58 0 85 56t23 196l-3 84q-2 55 6.5 73.5
t26.5 18.5q14 0 20 -5t11 -67l7 -105q3 -51 8 -85.5t17 -76.5zM184 642l20 -8q36 -15 84 20.5t75 44.5q6 1 8.5 1t4.5 -1q0 -1 0.5 -2t0.5 -2q0 -27 -62 -80t-107 -53q-35 0 -57.5 19t-22.5 45q0 13 5.5 21t15.5 8q1 0 2 -0.5t33 -12.5z" />
    <glyph glyph-name="glyph176" unicode="&#xea;" horiz-adv-x="483" 
d="M358 446l31 44q12 18 31.5 21.5t19.5 -14.5q0 -62 -91 -137t-211 -111q145 37 240 -34t95 -175q0 -20 -9 -29.5t-27 -9.5q-13 0 -18.5 5t-7.5 23q-16 94 -101.5 148t-189.5 30q5 -33 12 -86t7 -74q-1 -28 -13 -40t-35 -12t-30 10.5t-8 89.5q-4 184 -5 212.5t-2 52.5
q-4 54 -4 62v16q-1 6 -0.5 5.5t0.5 0.5q-1 26 4.5 38.5t23.5 12.5q23 -1 28 -8.5t7 -25.5q1 -18 3 -73.5t6 -117.5q81 31 144 77t100 99z" />
    <glyph glyph-name="glyph176" unicode="&#x43a;" horiz-adv-x="483" 
d="M358 446l31 44q12 18 31.5 21.5t19.5 -14.5q0 -62 -91 -137t-211 -111q145 37 240 -34t95 -175q0 -20 -9 -29.5t-27 -9.5q-13 0 -18.5 5t-7.5 23q-16 94 -101.5 148t-189.5 30q5 -33 12 -86t7 -74q-1 -28 -13 -40t-35 -12t-30 10.5t-8 89.5q-4 184 -5 212.5t-2 52.5
q-4 54 -4 62v16q-1 6 -0.5 5.5t0.5 0.5q-1 26 4.5 38.5t23.5 12.5q23 -1 28 -8.5t7 -25.5q1 -18 3 -73.5t6 -117.5q81 31 144 77t100 99z" />
    <glyph glyph-name="afii10077" unicode="&#xeb;" horiz-adv-x="368" 
d="M295 46l-19 63q-12 39 -24.5 76t-80.5 229q-29 -66 -52.5 -131.5t-41.5 -134.5l-31 -114q-4 -15 -10 -21t-14 -6q-7 0 -9.5 5.5t7.5 50.5l18 83q39 183 79 285.5t79 102.5q12 -1 17.5 -10t16.5 -43l12 -41q115 -394 114.5 -387t-0.5 2q0 -19 -10.5 -29t-23.5 -10
q-9 0 -15 3.5t-12 26.5z" />
    <glyph glyph-name="afii10077" unicode="&#x43b;" horiz-adv-x="368" 
d="M295 46l-19 63q-12 39 -24.5 76t-80.5 229q-29 -66 -52.5 -131.5t-41.5 -134.5l-31 -114q-4 -15 -10 -21t-14 -6q-7 0 -9.5 5.5t7.5 50.5l18 83q39 183 79 285.5t79 102.5q12 -1 17.5 -10t16.5 -43l12 -41q115 -394 114.5 -387t-0.5 2q0 -19 -10.5 -29t-23.5 -10
q-9 0 -15 3.5t-12 26.5z" />
    <glyph glyph-name="afii10078" unicode="&#xec;" horiz-adv-x="569" 
d="M465 82l-22 149q-4 26 -16 74t-22 83q-125 -322 -131.5 -329.5t-17.5 -6.5q-13 0 -19.5 9.5t-15.5 38.5l-15 45q-12 35 -31.5 105t-33.5 129q-19 -47 -28.5 -96t-13.5 -211l-1 -38q-1 -15 -13.5 -23.5t-29.5 -8.5q-15 0 -21 11t-3 34l4 35q15 134 24 193.5t20 100.5
l17 65q8 31 18 46.5t48 15.5q13 0 18 -6.5t10 -21.5l12 -41q-4 10 16 -81t65 -204q35 101 55 157.5t29 79.5l20 53q19 52 25 56t16 4q10 -1 16.5 -5.5t9.5 -13.5l10 -34q1 -4 2 -8.5t21 -92.5q8 -37 16.5 -69.5t14.5 -56.5l15 -67q17 -78 11.5 -104.5t-30.5 -26.5
q-20 -1 -32.5 14.5t-16.5 46.5z" />
    <glyph glyph-name="afii10078" unicode="&#x43c;" horiz-adv-x="569" 
d="M465 82l-22 149q-4 26 -16 74t-22 83q-125 -322 -131.5 -329.5t-17.5 -6.5q-13 0 -19.5 9.5t-15.5 38.5l-15 45q-12 35 -31.5 105t-33.5 129q-19 -47 -28.5 -96t-13.5 -211l-1 -38q-1 -15 -13.5 -23.5t-29.5 -8.5q-15 0 -21 11t-3 34l4 35q15 134 24 193.5t20 100.5
l17 65q8 31 18 46.5t48 15.5q13 0 18 -6.5t10 -21.5l12 -41q-4 10 16 -81t65 -204q35 101 55 157.5t29 79.5l20 53q19 52 25 56t16 4q10 -1 16.5 -5.5t9.5 -13.5l10 -34q1 -4 2 -8.5t21 -92.5q8 -37 16.5 -69.5t14.5 -56.5l15 -67q17 -78 11.5 -104.5t-30.5 -26.5
q-20 -1 -32.5 14.5t-16.5 46.5z" />
    <glyph glyph-name="afii10079" unicode="&#xed;" horiz-adv-x="478" 
d="M125 262l89 42q75 35 92.5 46.5t36.5 25.5q-3 110 4 147.5t31 37.5q13 0 20.5 -7.5t8.5 -21.5q-1 -3 -4.5 -22.5t-1.5 -57.5q0 -25 0 -24t20 -220l6 -69q8 -104 -1.5 -117.5t-27.5 -13.5q-19 0 -31 18.5t-13 49.5l-6 152q-4 79 -5 84.5t-2 13.5q-5 -3 -0.5 -0.5
t-208.5 -118.5q2 -27 13 -90t11 -98q0 -18 -11 -27.5t-29 -10.5q-18 0 -24.5 8.5t-6.5 29.5v29q0 1 -3 35.5t-5 104.5q-11 -4 -26.5 -7t-19.5 -3q-8 0 -11.5 4t-3.5 13q0 14 4.5 22.5t44.5 25.5q-1 29 -1 52.5v133.5q0 51 10 72.5t30 21.5q10 0 18 -10.5t8 -30.5
q0 -12 -0.5 -22.5t-3.5 -58.5q-2 -16 -2 -43t1 -96z" />
    <glyph glyph-name="afii10079" unicode="&#x43d;" horiz-adv-x="478" 
d="M125 262l89 42q75 35 92.5 46.5t36.5 25.5q-3 110 4 147.5t31 37.5q13 0 20.5 -7.5t8.5 -21.5q-1 -3 -4.5 -22.5t-1.5 -57.5q0 -25 0 -24t20 -220l6 -69q8 -104 -1.5 -117.5t-27.5 -13.5q-19 0 -31 18.5t-13 49.5l-6 152q-4 79 -5 84.5t-2 13.5q-5 -3 -0.5 -0.5
t-208.5 -118.5q2 -27 13 -90t11 -98q0 -18 -11 -27.5t-29 -10.5q-18 0 -24.5 8.5t-6.5 29.5v29q0 1 -3 35.5t-5 104.5q-11 -4 -26.5 -7t-19.5 -3q-8 0 -11.5 4t-3.5 13q0 14 4.5 22.5t44.5 25.5q-1 29 -1 52.5v133.5q0 51 10 72.5t30 21.5q10 0 18 -10.5t8 -30.5
q0 -12 -0.5 -22.5t-3.5 -58.5q-2 -16 -2 -43t1 -96z" />
    <glyph glyph-name="afii10080" unicode="&#xee;" horiz-adv-x="448" 
d="M249 479l-24 3q-24 2 1.5 16t53.5 14q56 0 99 -63t43 -159q0 -116 -59.5 -196.5t-140.5 -80.5q-76 0 -135 66.5t-59 157.5q0 65 38.5 146t75.5 89h3.5h3.5q2 -2 11 -11.5t9 -11.5q0 -1 -0.5 -1h-0.5l-1.5 -1.5t-6.5 -8.5l-14 -19q-26 -35 -38 -73.5t-12 -84.5
q-1 -80 45 -131t103 -51q53 0 92.5 58.5t39.5 152.5q0 79 -36 130.5t-91 58.5z" />
    <glyph glyph-name="afii10080" unicode="&#x43e;" horiz-adv-x="448" 
d="M249 479l-24 3q-24 2 1.5 16t53.5 14q56 0 99 -63t43 -159q0 -116 -59.5 -196.5t-140.5 -80.5q-76 0 -135 66.5t-59 157.5q0 65 38.5 146t75.5 89h3.5h3.5q2 -2 11 -11.5t9 -11.5q0 -1 -0.5 -1h-0.5l-1.5 -1.5t-6.5 -8.5l-14 -19q-26 -35 -38 -73.5t-12 -84.5
q-1 -80 45 -131t103 -51q53 0 92.5 58.5t39.5 152.5q0 79 -36 130.5t-91 58.5z" />
    <glyph glyph-name="afii10081" unicode="&#xef;" horiz-adv-x="465" 
d="M74 28v28q0 58 -7 120t-1 223q-10 -4 -26.5 -7.5t-20.5 -3.5q-8 0 -11.5 4t-3.5 13q0 19 10.5 29t47.5 20q-4 21 5 33t24 12q14 0 20 -8.5t2 -25.5l104 34q101 33 124 38t37 5q15 0 22.5 -8t8.5 -21q0 -6 -4 -24.5t-3 -56.5q0 -27 1 -49t18 -181l6 -57q9 -93 0 -111.5
t-30 -18.5q-18 0 -30 18.5t-13 49.5l-5 126q-3 62 -2 136.5t5 146.5l-215 -66l-22 -10q-3 -123 13.5 -237t16.5 -151q0 -19 -11 -29t-29 -10q-17 0 -24.5 8t-6.5 31z" />
    <glyph glyph-name="afii10081" unicode="&#x43f;" horiz-adv-x="465" 
d="M74 28v28q0 58 -7 120t-1 223q-10 -4 -26.5 -7.5t-20.5 -3.5q-8 0 -11.5 4t-3.5 13q0 19 10.5 29t47.5 20q-4 21 5 33t24 12q14 0 20 -8.5t2 -25.5l104 34q101 33 124 38t37 5q15 0 22.5 -8t8.5 -21q0 -6 -4 -24.5t-3 -56.5q0 -27 1 -49t18 -181l6 -57q9 -93 0 -111.5
t-30 -18.5q-18 0 -30 18.5t-13 49.5l-5 126q-3 62 -2 136.5t5 146.5l-215 -66l-22 -10q-3 -123 13.5 -237t16.5 -151q0 -19 -11 -29t-29 -10q-17 0 -24.5 8t-6.5 31z" />
    <glyph glyph-name="afii10082" unicode="&#xf0;" horiz-adv-x="572" 
d="M75 -137l-17 512q-4 115 3.5 147.5t40.5 32.5q21 0 28.5 -11.5t7.5 -44.5q0 -21 -4.5 -102t-2.5 -174q63 126 144 209t147 83q55 0 88.5 -31.5t33.5 -92.5q0 -148 -104.5 -266t-209.5 -118q-10 0 -12.5 2.5t-2.5 8.5q-1 9 4.5 19t14.5 15l61 34q83 46 128 117t45 167
q0 58 -28.5 78t-65.5 -10l-31 -25q-50 -41 -114.5 -132t-96.5 -162q1 -134 9.5 -276.5t21.5 -186.5l9 -32q10 -38 -11 -69t-45 -31q-17 0 -27 18t-10 42q0 13 1.5 37t1.5 36q-1 4 -0.5 -1t-6.5 207z" />
    <glyph glyph-name="afii10082" unicode="&#x440;" horiz-adv-x="572" 
d="M75 -137l-17 512q-4 115 3.5 147.5t40.5 32.5q21 0 28.5 -11.5t7.5 -44.5q0 -21 -4.5 -102t-2.5 -174q63 126 144 209t147 83q55 0 88.5 -31.5t33.5 -92.5q0 -148 -104.5 -266t-209.5 -118q-10 0 -12.5 2.5t-2.5 8.5q-1 9 4.5 19t14.5 15l61 34q83 46 128 117t45 167
q0 58 -28.5 78t-65.5 -10l-31 -25q-50 -41 -114.5 -132t-96.5 -162q1 -134 9.5 -276.5t21.5 -186.5l9 -32q10 -38 -11 -69t-45 -31q-17 0 -27 18t-10 42q0 13 1.5 37t1.5 36q-1 4 -0.5 -1t-6.5 207z" />
    <glyph glyph-name="afii10083" unicode="&#xf1;" horiz-adv-x="399" 
d="M400 78q-48 -38 -96 -54t-97 -16q-83 0 -133.5 61.5t-50.5 146.5q0 123 87.5 215t174.5 92q35 0 54 -19t19 -45q0 -9 -2 -11.5t-6 -1.5q-2 -1 -3.5 -0.5t-14.5 9.5q-6 3 -14 5t-18 2q-87 0 -145 -73t-58 -161q0 -76 47.5 -123t125.5 -46q23 0 46.5 6.5t55.5 24.5
q23 13 27 13.5t8 1.5q6 -1 7.5 -2t1.5 -4q0 -5 -2.5 -8.5t-13.5 -12.5z" />
    <glyph glyph-name="afii10083" unicode="&#x441;" horiz-adv-x="399" 
d="M400 78q-48 -38 -96 -54t-97 -16q-83 0 -133.5 61.5t-50.5 146.5q0 123 87.5 215t174.5 92q35 0 54 -19t19 -45q0 -9 -2 -11.5t-6 -1.5q-2 -1 -3.5 -0.5t-14.5 9.5q-6 3 -14 5t-18 2q-87 0 -145 -73t-58 -161q0 -76 47.5 -123t125.5 -46q23 0 46.5 6.5t55.5 24.5
q23 13 27 13.5t8 1.5q6 -1 7.5 -2t1.5 -4q0 -5 -2.5 -8.5t-13.5 -12.5z" />
    <glyph glyph-name="afii10084" unicode="&#xf2;" horiz-adv-x="648" 
d="M166 268l-38 -43q4 -72 8.5 -128.5t4.5 -62.5q0 -20 -12 -33t-30 -13q-19 1 -26.5 14t-7.5 51l-2 83q-1 29 -6 116t-8 129q-2 16 -1.5 23t1.5 13q2 13 12 20t27 7q18 -1 26.5 -9.5t10.5 -33.5q-1 2 0 -28.5t7 -68.5q38 41 102.5 95t86.5 54q17 -1 22 -34t-1 -80
q61 59 116 96t82 37q24 0 36 -16.5t13 -51.5v-63v-39q-4 -88 -3.5 -85t0.5 2q0 -36 4.5 -74t12.5 -49l8 -13q12 -20 3 -43.5t-38 -23.5q-36 0 -47.5 48.5t-12.5 175.5l-1 73q-1 58 -9 70.5t-23 12.5q-22 0 -66 -36.5t-68 -69.5q5 -40 15.5 -128t10.5 -107q0 -24 -12.5 -38.5
t-30.5 -17.5h-7.5h-5.5q-19 5 -25.5 54.5t-2.5 207.5v41.5v11.5q-2 18 -9 27t-20 10q-12 0 -35.5 -20.5t-60.5 -62.5z" />
    <glyph glyph-name="afii10084" unicode="&#x442;" horiz-adv-x="648" 
d="M166 268l-38 -43q4 -72 8.5 -128.5t4.5 -62.5q0 -20 -12 -33t-30 -13q-19 1 -26.5 14t-7.5 51l-2 83q-1 29 -6 116t-8 129q-2 16 -1.5 23t1.5 13q2 13 12 20t27 7q18 -1 26.5 -9.5t10.5 -33.5q-1 2 0 -28.5t7 -68.5q38 41 102.5 95t86.5 54q17 -1 22 -34t-1 -80
q61 59 116 96t82 37q24 0 36 -16.5t13 -51.5v-63v-39q-4 -88 -3.5 -85t0.5 2q0 -36 4.5 -74t12.5 -49l8 -13q12 -20 3 -43.5t-38 -23.5q-36 0 -47.5 48.5t-12.5 175.5l-1 73q-1 58 -9 70.5t-23 12.5q-22 0 -66 -36.5t-68 -69.5q5 -40 15.5 -128t10.5 -107q0 -24 -12.5 -38.5
t-30.5 -17.5h-7.5h-5.5q-19 5 -25.5 54.5t-2.5 207.5v41.5v11.5q-2 18 -9 27t-20 10q-12 0 -35.5 -20.5t-60.5 -62.5z" />
    <glyph glyph-name="glyph189" unicode="&#xf3;" horiz-adv-x="342" 
d="M86 464l23 -72q16 -52 39 -89t56 -68q86 226 84.5 223t0.5 1l24 56q9 22 23 12.5t10 -27.5l-49 -184q-46 -171 -114.5 -342.5t-145.5 -313.5l-31 -57q-11 -21 -13.5 -22t-6.5 -1q-8 0 -12.5 4.5t-4.5 11.5q0 11 45.5 113t116.5 309l41 120q-55 61 -111 163t-56 148
q0 20 13 33.5t30 14.5q13 -1 22.5 -8t15.5 -25z" />
    <glyph glyph-name="glyph189" unicode="&#x443;" horiz-adv-x="342" 
d="M86 464l23 -72q16 -52 39 -89t56 -68q86 226 84.5 223t0.5 1l24 56q9 22 23 12.5t10 -27.5l-49 -184q-46 -171 -114.5 -342.5t-145.5 -313.5l-31 -57q-11 -21 -13.5 -22t-6.5 -1q-8 0 -12.5 4.5t-4.5 11.5q0 11 45.5 113t116.5 309l41 120q-55 61 -111 163t-56 148
q0 20 13 33.5t30 14.5q13 -1 22.5 -8t15.5 -25z" />
    <glyph glyph-name="afii10086" unicode="&#xf4;" horiz-adv-x="857" 
d="M366 422l-12 259q-2 36 9 54.5t35 18.5q37 -1 42 -102t-4 -439q12 123 85 201.5t167 78.5q58 0 99 -38.5t42 -116.5q0 -127 -98.5 -229t-194.5 -102q-8 -1 -11 1.5t-3 9.5q0 9 5 19t14 15l60 34q72 40 112.5 102t40.5 148q0 45 -29 70t-78 26q-57 0 -110 -69.5
t-97 -207.5q-2 -112 8.5 -272t21.5 -204l8 -32q9 -39 -11 -69.5t-45 -30.5q-16 0 -26 18t-10 43q-1 13 0.5 37t1.5 35q0 8 -0.5 17.5t-5.5 166.5l-9 245q-54 -48 -110.5 -72t-111.5 -24q-67 -1 -101 38t-34 110q0 130 124 213.5t226 47.5zM369 195v67q-2 46 -26 77.5
t-65 31.5q-61 -1 -126 -61t-64 -136q0 -42 24.5 -72.5t67.5 -29.5q45 0 100 32.5t89 90.5z" />
    <glyph glyph-name="afii10086" unicode="&#x444;" horiz-adv-x="857" 
d="M366 422l-12 259q-2 36 9 54.5t35 18.5q37 -1 42 -102t-4 -439q12 123 85 201.5t167 78.5q58 0 99 -38.5t42 -116.5q0 -127 -98.5 -229t-194.5 -102q-8 -1 -11 1.5t-3 9.5q0 9 5 19t14 15l60 34q72 40 112.5 102t40.5 148q0 45 -29 70t-78 26q-57 0 -110 -69.5
t-97 -207.5q-2 -112 8.5 -272t21.5 -204l8 -32q9 -39 -11 -69.5t-45 -30.5q-16 0 -26 18t-10 43q-1 13 0.5 37t1.5 35q0 8 -0.5 17.5t-5.5 166.5l-9 245q-54 -48 -110.5 -72t-111.5 -24q-67 -1 -101 38t-34 110q0 130 124 213.5t226 47.5zM369 195v67q-2 46 -26 77.5
t-65 31.5q-61 -1 -126 -61t-64 -136q0 -42 24.5 -72.5t67.5 -29.5q45 0 100 32.5t89 90.5z" />
    <glyph glyph-name="afii10087" unicode="&#xf5;" horiz-adv-x="431" 
d="M109 469l21 -39q24 -46 38 -67.5t32 -44.5q35 47 104 111t98 64q15 0 23.5 -14t-6.5 -29l-182 -191q16 -25 35.5 -46.5t49.5 -46.5l46 -39q14 -13 21 -25.5t7 -25.5q0 -15 -11.5 -25.5t-31.5 -10.5q-16 -1 -31.5 7.5t-82.5 88.5l-48 56q-22 -28 -36.5 -51.5t-45.5 -85.5
l-41 -81q-5 -8 -12 -10.5t-13 2.5q-8 6 -8.5 19t9.5 39l26 72q19 54 36 89.5t40 72.5q-58 73 -97 133.5t-39 81.5q0 17 13 31t27 14q14 -1 30.5 -14.5t28.5 -34.5z" />
    <glyph glyph-name="afii10087" unicode="&#x445;" horiz-adv-x="431" 
d="M109 469l21 -39q24 -46 38 -67.5t32 -44.5q35 47 104 111t98 64q15 0 23.5 -14t-6.5 -29l-182 -191q16 -25 35.5 -46.5t49.5 -46.5l46 -39q14 -13 21 -25.5t7 -25.5q0 -15 -11.5 -25.5t-31.5 -10.5q-16 -1 -31.5 7.5t-82.5 88.5l-48 56q-22 -28 -36.5 -51.5t-45.5 -85.5
l-41 -81q-5 -8 -12 -10.5t-13 2.5q-8 6 -8.5 19t9.5 39l26 72q19 54 36 89.5t40 72.5q-58 73 -97 133.5t-39 81.5q0 17 13 31t27 14q14 -1 30.5 -14.5t28.5 -34.5z" />
    <glyph glyph-name="afii10088" unicode="&#xf6;" horiz-adv-x="476" 
d="M394 477v-29q0 -94 3.5 -141.5t1.5 -172.5q18 4 29.5 6.5t17.5 2.5q12 0 17 -20.5t5 -85.5q-1 -79 -9.5 -90.5t-26.5 -11.5q-9 0 -11 5t-1 14q1 19 -1 50t-8 91l-163 -63q-36 -14 -87.5 -28.5t-73.5 -14.5q-20 0 -27 10.5t0 46.5q3 19 1 88t-7 142l-10 131q-7 89 0 99
t23 10q18 0 30 -17t14 -51l4 -126q2 -64 1 -138t-3 -145q204 62 214 67l22 11q-6 169 -13.5 247.5t-7.5 109.5q0 23 8.5 32t26.5 9q17 0 24 -9t7 -29z" />
    <glyph glyph-name="afii10088" unicode="&#x446;" horiz-adv-x="476" 
d="M394 477v-29q0 -94 3.5 -141.5t1.5 -172.5q18 4 29.5 6.5t17.5 2.5q12 0 17 -20.5t5 -85.5q-1 -79 -9.5 -90.5t-26.5 -11.5q-9 0 -11 5t-1 14q1 19 -1 50t-8 91l-163 -63q-36 -14 -87.5 -28.5t-73.5 -14.5q-20 0 -27 10.5t0 46.5q3 19 1 88t-7 142l-10 131q-7 89 0 99
t23 10q18 0 30 -17t14 -51l4 -126q2 -64 1 -138t-3 -145q204 62 214 67l22 11q-6 169 -13.5 247.5t-7.5 109.5q0 23 8.5 32t26.5 9q17 0 24 -9t7 -29z" />
    <glyph glyph-name="afii10089" unicode="&#xf7;" horiz-adv-x="457" 
d="M341 60l-1 24q-1 6 -1.5 13.5t-4.5 45.5q-1 7 -2.5 17t-7.5 91q-23 -42 -55 -66t-71 -24q-86 -1 -131.5 68t-45.5 245q0 32 9 44.5t29 12.5q18 0 28 -13.5t13 -53.5q8 -144 36.5 -191t80.5 -47q29 0 56.5 22.5t48.5 67.5q-11 144 -11 145v3q0 31 10.5 46.5t35.5 15.5
q24 0 31.5 -16.5t10.5 -79.5l5 -160l3 -37q4 -70 9 -100t5 -57q0 -49 -11 -76.5t-33 -27.5q-17 1 -26 21t-10 67z" />
    <glyph glyph-name="afii10089" unicode="&#x447;" horiz-adv-x="457" 
d="M341 60l-1 24q-1 6 -1.5 13.5t-4.5 45.5q-1 7 -2.5 17t-7.5 91q-23 -42 -55 -66t-71 -24q-86 -1 -131.5 68t-45.5 245q0 32 9 44.5t29 12.5q18 0 28 -13.5t13 -53.5q8 -144 36.5 -191t80.5 -47q29 0 56.5 22.5t48.5 67.5q-11 144 -11 145v3q0 31 10.5 46.5t35.5 15.5
q24 0 31.5 -16.5t10.5 -79.5l5 -160l3 -37q4 -70 9 -100t5 -57q0 -49 -11 -76.5t-33 -27.5q-17 1 -26 21t-10 67z" />
    <glyph glyph-name="afii10090" unicode="&#xf8;" horiz-adv-x="641" 
d="M351 498l2 -37q9 -185 9 -236.5t-2 -115.5q34 17 69.5 31t103.5 37q1 20 2 45t1 65q0 16 -2.5 76t-4.5 81q-2 32 -6.5 47.5t-4.5 24.5q0 13 8.5 21.5t27.5 12.5h7.5h7.5q18 -5 24 -54t5 -173l-2 -169q-1 -46 -9.5 -65t-26.5 -19q-16 0 -22 11.5t-2 43.5q-15 -5 -28 -9
t-143 -52q3 -22 -6 -33.5t-23 -11.5q-17 0 -22 8.5t0 25.5l-64 -21q-103 -33 -125 -38t-36 -5q-20 0 -27 11.5t-4 68.5l2 43q1 26 -2 104t-6 114l-5 57q-9 96 -2.5 112.5t26.5 16.5q15 0 27.5 -19.5t14.5 -48.5l5 -126q2 -63 1 -137.5t-4 -145.5q58 19 107 31t91 30
q-1 73 -5.5 148t-13.5 136q-6 40 -9 69t-3 38q0 17 10.5 27.5t29.5 10.5q14 0 21 -7t8 -24z" />
    <glyph glyph-name="afii10090" unicode="&#x448;" horiz-adv-x="641" 
d="M351 498l2 -37q9 -185 9 -236.5t-2 -115.5q34 17 69.5 31t103.5 37q1 20 2 45t1 65q0 16 -2.5 76t-4.5 81q-2 32 -6.5 47.5t-4.5 24.5q0 13 8.5 21.5t27.5 12.5h7.5h7.5q18 -5 24 -54t5 -173l-2 -169q-1 -46 -9.5 -65t-26.5 -19q-16 0 -22 11.5t-2 43.5q-15 -5 -28 -9
t-143 -52q3 -22 -6 -33.5t-23 -11.5q-17 0 -22 8.5t0 25.5l-64 -21q-103 -33 -125 -38t-36 -5q-20 0 -27 11.5t-4 68.5l2 43q1 26 -2 104t-6 114l-5 57q-9 96 -2.5 112.5t26.5 16.5q15 0 27.5 -19.5t14.5 -48.5l5 -126q2 -63 1 -137.5t-4 -145.5q58 19 107 31t91 30
q-1 73 -5.5 148t-13.5 136q-6 40 -9 69t-3 38q0 17 10.5 27.5t29.5 10.5q14 0 21 -7t8 -24z" />
    <glyph glyph-name="afii10091" unicode="&#xf9;" horiz-adv-x="686" 
d="M351 477l2 -37q12 -223 12 -224t-5 -125q41 13 84.5 28.5t88.5 32.5q1 21 2 48.5t1 65.5q0 17 -2.5 76.5t-4.5 79.5q-2 28 -6.5 46t-4.5 27q-1 13 8 21.5t28 12.5h7.5h7.5q18 -5 23.5 -51.5t5.5 -175.5l-1 -131q18 4 29.5 6.5t16.5 2.5q12 0 17 -18.5t6 -87.5
q0 -72 -8.5 -87t-27.5 -15q-7 0 -10.5 4.5t-1.5 15.5q1 17 -1 50.5t-9 104.5q-24 -13 -41 -22t-202 -83q3 -21 -6 -32.5t-23 -11.5q-15 0 -21 8t-1 26l-64 -21q-103 -33 -125 -38t-36 -5q-20 0 -27 12t-4 68l2 43q1 25 -2 102.5t-6 114.5l-5 58q-9 102 -1 115.5t25 13.5
q15 0 27.5 -19.5t14.5 -48.5l5 -126q2 -56 1 -133t-3 -150q185 55 188 56.5t9 3.5q-1 73 -5.5 142.5t-12.5 142.5q-14 114 -13.5 109.5t0.5 -2.5q0 17 10.5 27.5t29.5 10.5q13 -1 20.5 -8t8.5 -23z" />
    <glyph glyph-name="afii10091" unicode="&#x449;" horiz-adv-x="686" 
d="M351 477l2 -37q12 -223 12 -224t-5 -125q41 13 84.5 28.5t88.5 32.5q1 21 2 48.5t1 65.5q0 17 -2.5 76.5t-4.5 79.5q-2 28 -6.5 46t-4.5 27q-1 13 8 21.5t28 12.5h7.5h7.5q18 -5 23.5 -51.5t5.5 -175.5l-1 -131q18 4 29.5 6.5t16.5 2.5q12 0 17 -18.5t6 -87.5
q0 -72 -8.5 -87t-27.5 -15q-7 0 -10.5 4.5t-1.5 15.5q1 17 -1 50.5t-9 104.5q-24 -13 -41 -22t-202 -83q3 -21 -6 -32.5t-23 -11.5q-15 0 -21 8t-1 26l-64 -21q-103 -33 -125 -38t-36 -5q-20 0 -27 12t-4 68l2 43q1 25 -2 102.5t-6 114.5l-5 58q-9 102 -1 115.5t25 13.5
q15 0 27.5 -19.5t14.5 -48.5l5 -126q2 -56 1 -133t-3 -150q185 55 188 56.5t9 3.5q-1 73 -5.5 142.5t-12.5 142.5q-14 114 -13.5 109.5t0.5 -2.5q0 17 10.5 27.5t29.5 10.5q13 -1 20.5 -8t8.5 -23z" />
    <glyph glyph-name="afii10092" unicode="&#xfa;" horiz-adv-x="442" 
d="M137 475v-41q0 -17 3.5 -54.5t2.5 -112.5q33 50 71 71.5t83 21.5q57 0 93 -31t36 -85q0 -90 -69 -156.5t-140 -66.5q-61 0 -91 42t-32 134l-2 90q-1 35 -4.5 78t-2.5 99q-36 -16 -65.5 -40.5t-40.5 -24.5t-15 3t-4 12q0 17 59.5 59t89.5 42q13 0 20.5 -9t7.5 -31z
M160 147q7 -42 26.5 -61.5t46.5 -19.5q46 0 88.5 58t42.5 105q0 36 -29 59.5t-70 23.5q-35 0 -65.5 -33.5t-44.5 -83.5q0 -12 1 -24t4 -24z" />
    <glyph glyph-name="afii10092" unicode="&#x44a;" horiz-adv-x="442" 
d="M137 475v-41q0 -17 3.5 -54.5t2.5 -112.5q33 50 71 71.5t83 21.5q57 0 93 -31t36 -85q0 -90 -69 -156.5t-140 -66.5q-61 0 -91 42t-32 134l-2 90q-1 35 -4.5 78t-2.5 99q-36 -16 -65.5 -40.5t-40.5 -24.5t-15 3t-4 12q0 17 59.5 59t89.5 42q13 0 20.5 -9t7.5 -31z
M160 147q7 -42 26.5 -61.5t46.5 -19.5q46 0 88.5 58t42.5 105q0 36 -29 59.5t-70 23.5q-35 0 -65.5 -33.5t-44.5 -83.5q0 -12 1 -24t4 -24z" />
    <glyph glyph-name="afii10093" unicode="&#xfb;" horiz-adv-x="564" 
d="M100 454v-42q0 1 4 -48.5t2 -128.5q35 71 72.5 97.5t89.5 26.5q56 0 88 -29t32 -78q0 -75 -65.5 -163.5t-142.5 -88.5q-61 0 -91 42t-32 134l-2 90q-3 100 -6.5 143.5t-3.5 40.5q0 22 7 33t19 11q14 0 21.5 -9t7.5 -31zM123 126q6 -42 26 -61.5t47 -19.5q47 0 89.5 69.5
t42.5 120.5q0 35 -22 57t-56 22q-48 0 -82 -37.5t-50 -102.5q0 -11 1 -22.5t4 -25.5zM520 253l-7 -169q-2 -46 -14 -65.5t-31 -19.5q-12 0 -17 6t-5 30q0 82 4.5 161.5t4.5 107.5q0 56 -8 88t-7 43q0 19 9 29.5t30 14.5h8h7q13 -5 21.5 -25t8.5 -48q0 -33 -1 -67t-3 -86z
" />
    <glyph glyph-name="afii10093" unicode="&#x44b;" horiz-adv-x="564" 
d="M100 454v-42q0 1 4 -48.5t2 -128.5q35 71 72.5 97.5t89.5 26.5q56 0 88 -29t32 -78q0 -75 -65.5 -163.5t-142.5 -88.5q-61 0 -91 42t-32 134l-2 90q-3 100 -6.5 143.5t-3.5 40.5q0 22 7 33t19 11q14 0 21.5 -9t7.5 -31zM123 126q6 -42 26 -61.5t47 -19.5q47 0 89.5 69.5
t42.5 120.5q0 35 -22 57t-56 22q-48 0 -82 -37.5t-50 -102.5q0 -11 1 -22.5t4 -25.5zM520 253l-7 -169q-2 -46 -14 -65.5t-31 -19.5q-12 0 -17 6t-5 30q0 82 4.5 161.5t4.5 107.5q0 56 -8 88t-7 43q0 19 9 29.5t30 14.5h8h7q13 -5 21.5 -25t8.5 -48q0 -33 -1 -67t-3 -86z
" />
    <glyph glyph-name="afii10094" unicode="&#xfc;" horiz-adv-x="397" 
d="M85 464v-41q0 -15 4.5 -52t2.5 -114q33 50 70.5 71.5t82.5 21.5q56 -1 92.5 -32.5t37.5 -84.5q0 -88 -70.5 -155.5t-138.5 -66.5q-57 -1 -89 37t-34 139l-2 90q-1 28 -4 54t-3 56q-1 5 -1 23.5v29.5q-1 2 -1.5 9t-0.5 12q-1 22 6 33t20 11q14 0 20.5 -9.5t7.5 -31.5z
M109 137q7 -42 26 -62t47 -20q41 0 85.5 56.5t44.5 106.5q0 37 -28 60t-70 23q-36 0 -66 -33.5t-45 -83.5q0 -10 1.5 -21t4.5 -26z" />
    <glyph glyph-name="afii10094" unicode="&#x44c;" horiz-adv-x="397" 
d="M85 464v-41q0 -15 4.5 -52t2.5 -114q33 50 70.5 71.5t82.5 21.5q56 -1 92.5 -32.5t37.5 -84.5q0 -88 -70.5 -155.5t-138.5 -66.5q-57 -1 -89 37t-34 139l-2 90q-1 28 -4 54t-3 56q-1 5 -1 23.5v29.5q-1 2 -1.5 9t-0.5 12q-1 22 6 33t20 11q14 0 20.5 -9.5t7.5 -31.5z
M109 137q7 -42 26 -62t47 -20q41 0 85.5 56.5t44.5 106.5q0 37 -28 60t-70 23q-36 0 -66 -33.5t-45 -83.5q0 -10 1.5 -21t4.5 -26z" />
    <glyph glyph-name="afii10095" unicode="&#xfd;" horiz-adv-x="445" 
d="M39 453q51 39 95 54.5t98 15.5q59 0 106.5 -38.5t68.5 -99.5q15 6 29.5 5.5t14.5 -8.5q0 -10 -11.5 -21.5t-25.5 -16.5q14 -110 -70 -221t-203 -111q-46 0 -70 15.5t-24 36.5q0 7 2.5 10.5t14.5 3.5q9 0 31.5 -5t37.5 -5q89 0 152 75t57 177q-66 -23 -173 -54.5
t-127 -31.5q-7 0 -9.5 1.5t-2.5 5.5q0 12 53.5 33.5t252.5 79.5q-16 54 -61.5 85.5t-105.5 32.5q-25 -1 -48 -7.5t-54 -23.5q-24 -14 -28 -14.5t-7 -0.5q-7 -1 -8 0.5t-1 5.5t2.5 8.5t13.5 12.5z" />
    <glyph glyph-name="afii10095" unicode="&#x44d;" horiz-adv-x="445" 
d="M39 453q51 39 95 54.5t98 15.5q59 0 106.5 -38.5t68.5 -99.5q15 6 29.5 5.5t14.5 -8.5q0 -10 -11.5 -21.5t-25.5 -16.5q14 -110 -70 -221t-203 -111q-46 0 -70 15.5t-24 36.5q0 7 2.5 10.5t14.5 3.5q9 0 31.5 -5t37.5 -5q89 0 152 75t57 177q-66 -23 -173 -54.5
t-127 -31.5q-7 0 -9.5 1.5t-2.5 5.5q0 12 53.5 33.5t252.5 79.5q-16 54 -61.5 85.5t-105.5 32.5q-25 -1 -48 -7.5t-54 -23.5q-24 -14 -28 -14.5t-7 -0.5q-7 -1 -8 0.5t-1 5.5t2.5 8.5t13.5 12.5z" />
    <glyph glyph-name="afii10096" unicode="&#xfe;" horiz-adv-x="706" 
d="M130 262l162 77q6 32 25.5 70t33.5 41h2.5h3.5q8 -2 16.5 -6.5t8.5 -9.5q0 -2 -0.5 -3.5t-4.5 -9.5l-11 -21q-55 -104 -3 -209.5t144 -105.5q52 0 85 43.5t33 118.5q0 100 -51 171.5t-120 60.5l-29 -5q-12 -2 -17 -0.5t-4 8.5q0 13 30.5 24.5t58.5 11.5q67 0 123 -73.5
t56 -187.5q0 -101 -52 -172t-129 -71q-86 0 -154.5 81.5t-50.5 200.5q-38 -25 -75.5 -47t-75.5 -42q7 -38 16 -104.5t9 -96.5q0 -17 -11 -27.5t-29 -10.5q-14 0 -20.5 9t-5.5 28v42q0 22 -5 63t-10 78q-10 -4 -25 -7t-19 -3q-7 0 -10.5 4t-3.5 13q0 17 5 24.5t50 25.5
q-7 59 -12 118t-5 80q0 27 9 40t26 13q13 0 20.5 -15t9.5 -54q6 -152 6 -151.5t0 -13.5z" />
    <glyph glyph-name="afii10096" unicode="&#x44e;" horiz-adv-x="706" 
d="M130 262l162 77q6 32 25.5 70t33.5 41h2.5h3.5q8 -2 16.5 -6.5t8.5 -9.5q0 -2 -0.5 -3.5t-4.5 -9.5l-11 -21q-55 -104 -3 -209.5t144 -105.5q52 0 85 43.5t33 118.5q0 100 -51 171.5t-120 60.5l-29 -5q-12 -2 -17 -0.5t-4 8.5q0 13 30.5 24.5t58.5 11.5q67 0 123 -73.5
t56 -187.5q0 -101 -52 -172t-129 -71q-86 0 -154.5 81.5t-50.5 200.5q-38 -25 -75.5 -47t-75.5 -42q7 -38 16 -104.5t9 -96.5q0 -17 -11 -27.5t-29 -10.5q-14 0 -20.5 9t-5.5 28v42q0 22 -5 63t-10 78q-10 -4 -25 -7t-19 -3q-7 0 -10.5 4t-3.5 13q0 17 5 24.5t50 25.5
q-7 59 -12 118t-5 80q0 27 9 40t26 13q13 0 20.5 -15t9.5 -54q6 -152 6 -151.5t0 -13.5z" />
    <glyph glyph-name="afii10097" unicode="&#xff;" horiz-adv-x="436" 
d="M140 43l-16 -45q-11 -29 -22.5 -41.5t-26.5 -12.5q-13 1 -18.5 9t-5.5 24q0 38 37 106t92 112q-65 -15 -110 18t-45 97q0 98 98.5 170t215.5 45q7 5 20.5 9.5t20.5 5.5q16 0 23 -16.5t-8 -131.5q-15 -104 -0.5 -210t14.5 -130q0 -21 -7.5 -27.5t-25.5 -6.5t-30.5 8.5
t-11.5 22.5v55q-1 34 -3 75t-6 81q-66 -34 -113 -90.5t-72 -126.5zM326 318l8 159q-16 3 -33.5 5.5t-32.5 2.5q-73 -1 -124.5 -51t-51.5 -114q0 -48 32.5 -72t84.5 -17q19 25 48.5 47t68.5 40z" />
    <glyph glyph-name="afii10097" unicode="&#x44f;" horiz-adv-x="436" 
d="M140 43l-16 -45q-11 -29 -22.5 -41.5t-26.5 -12.5q-13 1 -18.5 9t-5.5 24q0 38 37 106t92 112q-65 -15 -110 18t-45 97q0 98 98.5 170t215.5 45q7 5 20.5 9.5t20.5 5.5q16 0 23 -16.5t-8 -131.5q-15 -104 -0.5 -210t14.5 -130q0 -21 -7.5 -27.5t-25.5 -6.5t-30.5 8.5
t-11.5 22.5v55q-1 34 -3 75t-6 81q-66 -34 -113 -90.5t-72 -126.5zM326 318l8 159q-16 3 -33.5 5.5t-32.5 2.5q-73 -1 -124.5 -51t-51.5 -114q0 -48 32.5 -72t84.5 -17q19 25 48.5 47t68.5 40z" />
    <glyph glyph-name="afii10059" unicode="&#x152;" horiz-adv-x="964" 
d="M685 130l-53 -39q-41 -30 -52 -35.5t-25 -9.5q-33 -22 -57.5 4.5t-24.5 83.5l-2 216q-2 126 -2.5 131t-0.5 11q-121 -38 -215.5 -94.5t-93.5 -103.5q0 -43 9.5 -76t10.5 -145q0 -35 -14.5 -48.5t-41.5 -12.5q-23 0 -31.5 12t-7.5 43q-1 7 0.5 19.5t1.5 19.5
q-1 57 -11.5 174.5t-9.5 145.5q0 254 16.5 304.5t53.5 50.5q15 0 23 -12.5t9 -44.5q-1 -37 -8.5 -116t-6.5 -202l129 57q123 54 145 67t45 30q-3 146 10 219.5t49 73.5q22 0 31 -9.5t9 -30.5q0 -6 -0.5 -11t-10.5 -58q-4 -17 -5.5 -36t-0.5 -42l1 -98q61 34 139 55t138 21
q57 0 87 -33t31 -88q0 -86 -77.5 -199.5t-186.5 -193.5zM561 514q1 -59 6.5 -170t12.5 -208q162 130 227.5 213.5t65.5 155.5q-1 32 -17 48t-56 16q-56 0 -115 -14t-124 -41z" />
    <glyph glyph-name="afii10107" unicode="&#x153;" horiz-adv-x="709" 
d="M125 262l89 42q76 35 93 46t35 26q-1 26 0 54t5 64q-2 35 5 51t25 16q14 0 21.5 -7t8.5 -22q-1 -3 -1 -5t-3 -22q-2 -9 -2.5 -19t0.5 -34q0 -20 0.5 -68t3.5 -125q34 49 71 70t82 21q57 -1 92.5 -32.5t36.5 -84.5q0 -88 -69.5 -155t-139.5 -67q-62 0 -91 40.5t-32 142.5
q-2 46 -5.5 74t-9.5 58q-6 -3 2.5 1t-210.5 -120q1 -21 12.5 -86.5t11.5 -101.5q0 -19 -12 -28.5t-28 -9.5q-18 0 -25 8.5t-6 29.5v29q0 15 -3.5 56.5t-5.5 83.5q-11 -4 -26 -7t-19 -3q-8 -1 -11.5 3.5t-3.5 13.5q0 14 3.5 21.5t45.5 26.5q-1 29 -1 52.5v133.5q0 51 10 72.5
t30 21.5q11 0 18 -10t7 -31q0 -9 -0.5 -16t-2.5 -65q-1 -18 -1.5 -52.5t0.5 -86.5zM421 137q6 -42 26 -62t47 -20q41 0 85.5 56.5t44.5 106.5q0 37 -28 60t-70 23q-35 0 -65.5 -33.5t-44.5 -83.5q0 -11 1 -22t4 -25z" />
    <glyph glyph-name="afii10058" unicode="&#x160;" horiz-adv-x="943" 
d="M472 54l-5 56l-1 42q-2 59 -14 226t-19 222q-8 58 -15 82t-15 24q-25 0 -58.5 -39.5t-67.5 -104.5q-32 -62 -85.5 -156t-110.5 -215l-42 -89q-22 -45 -30.5 -50.5t-22.5 -4.5q-21 -1 -32 7.5t-11 29.5q0 28 51 120.5t155 256.5l163 257q70 111 95 131.5t49 20.5
t37.5 -45.5t32.5 -240.5l8 -87q56 43 135.5 73.5t140.5 31.5q57 0 87.5 -34t30.5 -88q0 -87 -76.5 -199t-187.5 -193l-53 -39q-51 -38 -63.5 -42.5t-22.5 -4.5q-21 0 -36 13.5t-17 38.5zM540 422l12 -140q2 -26 3 -75t11 -106q144 110 214.5 197.5t71.5 163.5q0 32 -18 48.5
t-56 16.5q-52 0 -112 -26t-126 -79z" />
    <glyph glyph-name="afii10106" unicode="&#x161;" horiz-adv-x="622" 
d="M314 478l1 -42q0 -38 3.5 -81t8.5 -87q27 40 62 61t82 21q57 -1 93 -32.5t36 -84.5q0 -88 -69.5 -155t-139.5 -67q-65 0 -92.5 41t-34.5 194q-7 136 -8.5 156.5t-2.5 44.5q-47 -57 -91 -120.5t-81 -131.5l-83 -150q-7 -14 -13 -17t-17 -3q-2 0 -4 1.5t-3 3.5q0 7 5 19
t13 30l64 126q76 150 145.5 241t107.5 91q10 0 13 -7t5 -52zM334 137q7 -42 26.5 -62.5t46.5 -19.5q41 0 86 56.5t45 106.5q-1 37 -29.5 60t-69.5 23q-35 0 -65.5 -33.5t-44.5 -83.5q0 -12 1 -23.5t4 -23.5z" />
    <glyph glyph-name="afii10193" unicode="&#x178;" horiz-adv-x="465" 
d="M391 503v-28q-1 -59 6 -121t2 -221q8 2 25 6t22 4q7 0 11 -4.5t4 -12.5q0 -18 -7.5 -27t-38.5 -18l-123 -36q7 -15 10.5 -28.5t4.5 -33.5q0 -39 -9 -70.5t-66 -127.5l-18 -30q-10 -15 -12.5 -16.5t-5.5 -2.5q-1 0 -1 0.5v4.5q-1 1 -0.5 1.5t12.5 26.5l11 24
q12 29 21.5 73.5t9.5 72.5q-1 11 -5.5 36t-10.5 53q-28 -12 -76.5 -25t-69.5 -14q-16 0 -23.5 7.5t-7.5 21.5q0 5 3.5 23.5t3.5 57.5q-1 26 -2 48t-17 182l-6 57q-10 92 -1 110.5t31 19.5q17 0 29 -19t14 -49l5 -126q2 -63 1 -137.5t-4 -145.5q208 63 216.5 67t20.5 10
q2 122 -14 233.5t-16 153.5q0 18 10.5 28.5t29.5 10.5q16 0 23.5 -8.5t7.5 -30.5z" />
    <glyph glyph-name="afii10100" unicode="&#x192;" horiz-adv-x="289" 
d="M416 560l-32 -10q-58 -18 -126 -44t-129 -52q12 -106 18 -192t6 -156q0 -105 -7 -123.5t-22 -18.5q-15 1 -26 14.5t-22 319.5l-5 138l-37 -17q-17 -8 -25 -5t-8 15q0 15 8 24.5t35 21.5l47 20q65 27 179.5 55.5t145.5 29.5q1 0 2.5 -3t1.5 -6q0 -4 -1.5 -7.5t-2.5 -3.5z
M140 613l28 36q66 85 95.5 120.5t34.5 35.5q4 -1 10.5 -13t6.5 -16q0 -6 -7.5 -15.5t-72.5 -70.5l-52 -49q-18 -17 -33.5 -45t-22.5 -28q-3 0 -5.5 2.5t-2.5 5.5t7.5 16t13.5 21z" />
    <glyph glyph-name="circumflex" unicode="&#x2c6;" horiz-adv-x="297" 
d="M219 609l-20 27q-35 46 -40.5 51.5l-12.5 12.5q-72 -41 -99.5 -77.5t-31.5 -36.5q-8 0 -11.5 2.5t-3.5 10.5q0 3 39 35.5t86 96.5q28 39 28 39.5t23 0.5q1 -1 2.5 -1t70.5 -73l28 -30q9 -10 14.5 -19.5t5.5 -15.5q0 -18 -9.5 -27.5t-25.5 -8.5q-13 0 -26 3.5t-17 9.5z
" />
    <glyph glyph-name="tilde" unicode="&#x2dc;" horiz-adv-x="350" 
d="M165 677l16 -10q28 -18 31 -18.5t8 -0.5q21 0 51.5 18.5t50.5 40.5q9 7 18.5 5.5t9.5 -6.5q-1 -48 -77.5 -88.5t-120.5 -14.5q-13 10 -27 14.5t-39 4.5q-20 0 -43.5 -4t-26.5 -4q-7 0 -11.5 8t-4.5 20q0 27 56 42t109 -7z" />
    <glyph glyph-name="endash" unicode="&#x2013;" horiz-adv-x="717" 
d="M630 446q-32 -3 -33 -3h-2q-3 -1 -17.5 -5t-29.5 -8q-6 -2 -11 -3.5t-141 -47.5q-151 -51 -179.5 -57.5t-124.5 -21.5q-27 -9 -41 -3t-14 33q-1 29 246 89t322 65q74 -9 74.5 -9.5l0.5 -0.5q-1 -7 -16.5 -17t-33.5 -11z" />
    <glyph glyph-name="emdash" unicode="&#x2014;" horiz-adv-x="1046" 
d="M917 493q-202 -35 -319.5 -62.5t-303.5 -81.5q-26 -11 -74 -20.5t-94 -14.5q-27 -9 -41.5 -3t-14.5 32q0 16 364 97.5t466 90.5q71 -8 73 -9t3 -2q-1 -7 -16.5 -15t-42.5 -12z" />
    <glyph glyph-name="quoteleft" unicode="&#x2018;" horiz-adv-x="152" 
d="M136 911l-12 -25q-14 -29 -22.5 -72t-8.5 -73q0 -9 0.5 -16t6.5 -28q2 -8 3 -13.5t2 -9.5v-1.5v-0.5q-1 -10 -17 -20.5t-26 -10.5q-14 0 -20.5 13.5t-6.5 41.5q0 46 10 78.5t65 120.5l18 29q9 15 11.5 17t6.5 2q0 -1 0.5 -1t0.5 -4q0 -3 -0.5 -4.5t-10.5 -22.5z" />
    <glyph glyph-name="quoteright" unicode="&#x2019;" horiz-adv-x="152" 
d="M46 675l12 25q13 27 22 70.5t9 74.5q-1 6 -1.5 13t-6.5 30q-2 8 -3 13.5t-1 10.5q-1 0 -1 0.5t1 1.5q0 10 15.5 20t27.5 10t19.5 -12t7.5 -43q0 -43 -8 -71.5t-67 -126.5l-18 -30q-10 -16 -12.5 -17.5t-5.5 -1.5h-1v6v3t11 24z" />
    <glyph glyph-name="quotesinglbase" unicode="&#x201a;" horiz-adv-x="152" 
d="M31 -192l12 25q13 28 21.5 71.5t9.5 73.5q0 7 -1 14t-7 29q-2 8 -3 13.5t-1 10.5q-1 0 -1 0.5t1 1.5q0 9 16 19.5t27 10.5q12 0 19.5 -12t7.5 -43q0 -42 -8 -70.5t-67 -127.5l-18 -30q-10 -15 -12.5 -17t-5.5 -2q-1 0 -1 0.5v5.5v4t11 23z" />
    <glyph glyph-name="quotedblleft" unicode="&#x201c;" horiz-adv-x="308" 
d="M136 911l-12 -25q-12 -25 -21 -70.5t-9 -74.5q-1 -21 4.5 -33t6.5 -34v-1.5v-0.5q-1 -11 -16 -21t-26 -10q-15 0 -21.5 13.5t-6.5 41.5q0 41 12.5 79t63.5 120l18 29q9 15 11.5 17t6.5 2l0.5 -0.5t0.5 -4.5q0 -1 -0.5 -2t-11.5 -25zM247 865l15 32q11 24 18.5 35.5
t14.5 11.5q4 0 6 -4t2 -10q0 -2 0 3.5t-30 -96.5q-17 -54 -18.5 -62.5t-0.5 -16.5q-1 -13 7 -32.5t8 -24.5q0 -23 -12.5 -35.5t-35.5 -12.5q-19 0 -28 11.5t-9 34.5q0 14 2 27.5t61 138.5z" />
    <glyph glyph-name="quotedblright" unicode="&#x201d;" horiz-adv-x="308" 
d="M202 675l12 25q11 24 20.5 70t9.5 75q0 18 -5.5 33t-5.5 34q-1 0 -1 0.5t1 1.5q0 10 15 20t27 10q14 0 21 -13t7 -42q0 -38 -10.5 -72t-65.5 -126l-18 -30q-10 -16 -12.5 -17.5t-5.5 -1.5h-1v6v1t12 26zM91 721l-15 -32q-12 -25 -20 -36.5t-13 -11.5q-4 0 -6 3.5t-2 11.5
q0 64 24.5 104t24.5 68q0 5 -2 13t-5 19q-8 23 -8 23.5v1.5q0 21 12 34.5t36 13.5q19 0 28 -12t9 -34q0 -15 -2.5 -28.5t-60.5 -137.5z" />
    <glyph glyph-name="quotedblbase" unicode="&#x201e;" horiz-adv-x="308" 
d="M187 -192l12 25q11 25 20 71t10 74q0 19 -5.5 31.5t-5.5 35.5q-1 0 -1 0.5t1 1.5q0 9 15 19.5t27 10.5q14 0 21 -13t7 -42q0 -37 -10.5 -71t-65.5 -127l-18 -30q-10 -15 -12.5 -17t-5.5 -2q-1 0 -1 0.5v5.5v2t12 25zM76 -146l-15 -32q-12 -24 -20 -36t-13 -12q-4 0 -6 4
t-2 11q0 65 24 105t25 67q0 6 -2 14t-5 18q-8 23 -8 23.5v1.5q-1 21 11.5 34.5t36.5 13.5q19 0 28 -12t9 -34q-1 -15 -3 -28t-60 -138z" />
    <glyph glyph-name="dagger" unicode="&#x2020;" horiz-adv-x="566" 
d="M208 518l55 31q57 222 66.5 226.5t20.5 4.5q16 0 24 -9.5t8 -40.5q-1 -19 -6 -48.5t-17 -77.5q202 42 208 42t14 1q5 0 15 -3t10 -4t-21 -7.5t-44 -19.5q-21 -11 -37.5 -19.5t-73.5 -31.5l-80 -33l-16 -63q-12 -44 -25 -141t-13 -150q0 -22 4.5 -55.5t4.5 -46.5
q0 -28 -5 -33t-15 -5q-39 0 -58 110.5t6 243.5l17 92q-18 -7 -44.5 -18.5t-35.5 -17.5l-45 -29q-15 -10 -37.5 -18t-36.5 -8q-13 0 -17 4t-4 15q0 8 3.5 13.5t19.5 13.5l59 29q9 4 22 11.5t74 41.5z" />
    <glyph glyph-name="daggerdbl" unicode="&#x2021;" horiz-adv-x="570" 
d="M212 497l55 31q55 220 65.5 225.5t21.5 5.5q16 0 24 -10.5t8 -39.5q0 -20 -5.5 -49.5t-17.5 -76.5q98 25 94 24t-2 0q6 0 18.5 0.5t26.5 3.5q35 8 51.5 11t33.5 3q20 0 22 -1.5t3 -3.5q0 -1 -0.5 -4t-175.5 -75l-80 -33l-16 -63l-16 -71q42 25 105.5 39.5t119.5 15.5
q9 0 17 -2t8 -4t-1.5 -3.5t-63.5 -24.5q-10 -4 -22 -10.5l-12 -6.5q-10 -5 -36 -16.5t-41 -17.5l-80 -31q-9 -67 -12.5 -103t-3.5 -56q0 -23 4.5 -56.5t4.5 -45.5q0 -29 -5 -33.5t-15 -4.5q-27 0 -41.5 38.5t-21.5 219.5q-34 -16 -52 -24t-23 -11l-24 -14
q-28 -16 -46.5 -23.5t-29.5 -7.5q-13 0 -17 4t-4 14q0 7 2.5 12.5t19.5 13.5l41 19q12 6 45 24.5t94 54.5l24 133q-85 -45 -83.5 -44l1.5 1l-45 -30q-13 -9 -38 -17t-36 -8q-13 -1 -17 3.5t-4 15.5q0 7 2.5 11.5t20.5 14.5l59 30q11 5 32 17t64 36z" />
    <glyph glyph-name="bullet" unicode="&#x2022;" horiz-adv-x="347" 
d="M229 519l23 -6q18 -5 32.5 -34.5t14.5 -68.5q0 -69 -47.5 -115t-88.5 -46q-32 -1 -69.5 45t-37.5 81q0 36 39 100t76 65q12 0 33.5 -10.5t24.5 -10.5z" />
    <glyph glyph-name="ellipsis" unicode="&#x2026;" horiz-adv-x="559" 
d="M20 67q0 13 26.5 29.5t44.5 16.5q13 0 20 -8.5t7 -25.5q0 -19 -16 -33.5t-34 -14.5q-15 0 -31.5 12t-16.5 24zM245 54q0 14 25.5 30t45.5 17q12 -1 19.5 -10t7.5 -24q-1 -17 -16 -33t-34 -16q-15 0 -32 12t-16 24zM441 67q-1 12 24.5 28.5t46.5 17.5q12 -1 19.5 -10
t7.5 -24q0 -19 -16.5 -34t-33.5 -14q-15 0 -31.5 12t-16.5 24z" />
    <glyph glyph-name="perthousand" unicode="&#x2030;" horiz-adv-x="1152" 
d="M452 789q0 -54 -53.5 -117.5t-109.5 -63.5q-40 -1 -65.5 23.5t-25.5 55.5q-1 18 29.5 56.5t65.5 63.5q-14 21 16 45.5t61 24.5q29 0 55.5 -24.5t26.5 -63.5zM767 217q0 -52 -45.5 -98.5t-100.5 -46.5q-49 0 -73 27t-24 75q0 55 39.5 105.5t76.5 50.5q29 0 78 -38t49 -75z
M329 764q-25 -21 -39 -43t-14 -39q0 -16 1.5 -20.5t5.5 -4.5q37 0 91 35.5t54 78.5q0 22 -22 47t-41 26q-11 0 -27 -11t-16 -21q0 -9 6 -16t6 -25q0 -2 -1 -3.5t-4 -3.5zM733 219q-1 25 -26.5 38.5t-54.5 14.5q-26 0 -47.5 -34t-21.5 -71l-1 -1h1q0 -20 17.5 -43.5
t38.5 -23.5q35 -1 64.5 42.5t29.5 77.5zM1117 217q0 -52 -46 -98.5t-101 -46.5q-50 0 -73 26.5t-23 75.5q0 56 39.5 106t75.5 50q30 0 79 -38.5t49 -74.5zM1083 219q0 22 -24.5 37.5t-56.5 15.5q-27 -1 -48 -34t-21 -71l-1 -1h1q0 -19 17.5 -43t37.5 -24q33 -1 64 40t31 80z
M805 916q-118 -182 -216.5 -321t-106.5 -152q-34 -52 -69 -112.5t-113 -178.5q-48 -72 -73 -112t-50 -83q-50 -131 -61.5 -129t-11.5 10q0 23 15 60t45 94q441 720 518.5 836t107.5 116q19 0 21.5 -1t2.5 -3q0 -5 -2.5 -11.5t-6.5 -12.5z" />
    <glyph glyph-name="guilsinglleft" unicode="&#x2039;" horiz-adv-x="416" 
d="M297 542l-33 -53q-9 -14 -42 -51.5t-86 -114.5q102 -49 166 -124.5t64 -119.5q0 -1 -1.5 -1.5t-37.5 34.5l-27 26q-22 20 -68 44.5t-105 47.5q-66 25 -71.5 30t-5.5 16q0 23 14.5 50.5t36.5 49.5l35 35q16 16 54 57.5t52 58.5l23 28q7 9 17.5 17.5t15.5 8.5q4 0 8.5 -4
t4.5 -9q-1 -2 -2 -4.5t-12 -21.5z" />
    <glyph glyph-name="guilsinglright" unicode="&#x203a;" horiz-adv-x="406" 
d="M232 454l85 -64q33 -26 36 -29.5t3 -6.5q0 -4 -5 -11.5t-13 -18.5l-36 -48q-31 -42 -70 -92t-53 -68l-26 -32q-34 -42 -36.5 -43.5t-4.5 -0.5q-2 0 -3.5 0.5t-1.5 2.5v0.5t20 38.5l10 19q18 35 59 99.5t75 111.5q-99 65 -160 115t-61 67q0 15 13.5 31.5t29.5 16.5
q13 0 43 -19.5t96 -68.5z" />
    <glyph glyph-name="trademark" unicode="&#x2122;" horiz-adv-x="613" 
d="M-83 630l35 14q250 100 285 106.5t69 6.5q12 -1 19.5 -4.5t7.5 -8.5q0 -7 -4 -12.5t-10 -6.5l-20 -6q-71 -22 -105 -35t-86 -34q1 -49 4 -103t3 -74q0 -106 -9.5 -133.5t-30.5 -27.5q-14 0 -22.5 13.5t-8.5 183.5v115q-36 -17 -51.5 -24.5t-28.5 -13.5l-29 -15
q-17 -10 -31 -1t-14 25q0 11 6.5 20t20.5 15zM309 678l103 -133q90 127 88 121.5t-1 -3.5l6 17q10 29 21 39.5t25 11.5q14 0 23 -10.5t9 -30.5q0 -6 -0.5 -10.5t-3.5 -21.5q-4 -16 -8.5 -67.5t-4.5 -71.5q-1 -7 -1 -13.5t1 -15.5q1 -56 1.5 -71.5t3.5 -26.5q4 -28 4.5 -29
l0.5 -1q0 -22 -12 -35t-30 -13q-21 0 -30 19t-9 81q-1 26 -1 28.5t1 5.5q2 133 4.5 135.5t3.5 -0.5q-1 -36 -36 -81.5t-67 -45.5q-14 0 -49.5 44t-52.5 80q-4 -25 -5.5 -83.5t-1.5 -94.5q0 -10 1.5 -18t2.5 -13q0 -2 -0.5 -5.5t0.5 -4.5q0 -4 0.5 -11.5t0.5 -11.5
q0 -11 -12 -23t-26 -12q-18 0 -27 11.5t-9 39.5v31l2 29q3 43 3.5 62t1.5 52l2 107q0 34 11.5 51t34.5 17q9 -1 15.5 -3.5t13.5 -14.5z" />
    <glyph glyph-name="uni2219" unicode="&#x2219;" horiz-adv-x="240" 
d="M70 316q0 12 26.5 29.5t44.5 17.5q10 0 19 -10.5t9 -24.5q0 -17 -17 -32.5t-35 -15.5q-12 0 -29.5 11.5t-17.5 24.5z" />
    <glyph glyph-name="cent" horiz-adv-x="399" 
d="M225 511l2 154q0 17 8.5 26t24.5 9q12 0 18 -8.5t6 -25.5q0 -6 -1 -12.5t-8 -44.5q-2 -7 -3 -14t-9 -74q40 8 67.5 -11t27.5 -51q0 -9 -2 -11t-6 -2q-3 -1 -27.5 11t-66.5 0q-8 -137 -15.5 -186.5t-18.5 -206.5q38 -9 74.5 -2.5t75.5 28.5q23 13 27 14t8 1q6 0 7 -1.5
t2 -4.5q0 -27 -66.5 -59t-131.5 -30q3 -86 -2 -146.5t-18 -60.5q-6 1 -9 9t3 137l2 59q-75 10 -123 66t-48 142q0 94 54.5 174.5t147.5 120.5zM197 67q2 98 8 193t16 186q-59 -36 -91.5 -94.5t-32.5 -124.5q0 -53 23.5 -93t76.5 -67z" />
    <glyph glyph-name="sterling" horiz-adv-x="616" 
d="M176 289l7 118q-31 -26 -68.5 -46.5t-52.5 -20.5t-23.5 5t-8.5 14q0 11 14.5 26t76.5 54l66 41l2 25q15 195 48.5 267.5t94.5 72.5q10 0 20 -10t11 -17q0 -13 -21.5 -27.5t-35.5 -61.5q-5 -19 -9.5 -45t-16.5 -143q106 67 160 92t82 25q9 -1 14 -2t5 -2q0 -4 -10.5 -13
t-62.5 -42l-41 -26q-20 -13 -65 -47t-84 -61q-2 -145 -8 -211.5t-21 -140.5q32 20 129.5 79.5t139.5 84.5q20 13 37 22.5t32 18.5l55 30l9 6l77 47q14 8 23.5 13t14.5 5q7 0 10.5 -2.5t3.5 -6.5q0 -7 -7 -14.5t-38 -29.5l-27 -19q-22 -16 -36 -25t-42 -29q-7 -5 -21.5 -15.5
t-20.5 -14.5q-5 -4 1.5 0.5t-174.5 -121.5l-130 -91q-44 -31 -50.5 -36.5t-11.5 -10.5q-5 -4 -16.5 -17t-18.5 -21q-17 -15 -30 -13.5t-33 20.5q-17 17 -18.5 33t21.5 44q29 37 33 48t15 191z" />
    <glyph glyph-name="glyph144" horiz-adv-x="196" 
d="M21 917l28 36q60 77 92.5 116.5t37.5 39.5q2 0 9.5 -12t7.5 -17q-1 -8 -13.5 -22t-66.5 -64l-52 -48q-19 -17 -34 -45.5t-22 -28.5q-3 0 -5.5 2.5t-2.5 5.5t7.5 16t13.5 21z" />
    <glyph glyph-name="glyph147" horiz-adv-x="196" 
d="M21 578l28 36q66 85 95.5 120.5t34.5 35.5q4 -1 10.5 -13t6.5 -16q0 -6 -7.5 -15.5t-72.5 -70.5l-52 -49q-18 -17 -33.5 -45t-22.5 -28q-3 0 -5.5 2.5t-2.5 5.5t7.5 16t13.5 21z" />
    <glyph glyph-name="lessequal" horiz-adv-x="436" 
d="M354 257l33 -24q19 -15 10 -30.5t-9 -9.5q0 -14 -51.5 11t-155.5 91q-60 41 -99 77.5t-41 55.5q-1 2 -1 4t1 4q1 6 5 13.5t142 155.5q126 147 135 152t19 5q9 0 16 -6.5t10 -15.5v-1.5v-0.5q-9 -32 -49.5 -86.5t-141.5 -161.5q-19 -18 -17 -45.5t19 -48.5
q19 -20 36 -35.5t139 -103.5zM376 15l-28 18q-136 86 -179 116t-71 51q-35 25 -52 41t-17 24q0 3 2 6.5t5 3.5q8 0 19 -3t18 -6l73 -40q31 -18 86.5 -61.5t108.5 -91.5l48 -44q8 -8 12 -12.5t4 -6.5q0 -7 -2 -9t-27 14z" />
    <glyph glyph-name="greaterequal" horiz-adv-x="436" 
d="M47 233l33 24q121 88 138 103.5t37 35.5q16 21 18 48.5t-16 45.5q-102 107 -142.5 161.5t-48.5 86.5q-1 0 -1 0.5t1 1.5q2 9 9 15.5t17 6.5q9 0 18 -5t136 -152q142 -157 144 -161t3 -8v-4v-4q-3 -19 -42 -55.5t-98 -77.5q-105 -66 -156 -91t-51 -11q0 -6 -9.5 9.5
t10.5 30.5zM86 33l-28 -18q-26 -16 -27.5 -14t-1.5 9q0 2 3.5 6.5t12.5 12.5l48 44q52 48 107.5 91.5t87.5 61.5l73 40q6 3 17 6t20 3q2 0 4.5 -3.5t2.5 -6.5q0 -8 -17.5 -24t-51.5 -41q-29 -21 -72 -51t-178 -116z" />
    <glyph glyph-name="yen" horiz-adv-x="535" 
d="M119 740l49 -81q78 -131 91 -146.5t29 -31.5q36 118 54 182t20 71l29 92q8 26 15 32t18 6q9 0 14.5 -3t6.5 -7q0 -1 -0.5 -2.5t0.5 -1.5q0 -3 1.5 -7.5t1.5 -6.5q-1 -3 -0.5 -1t-73.5 -297l-33 -133l-9 -54l52 25q10 5 43.5 16t49.5 15l25 6q23 5 26 3.5t3 -5.5
q-1 -4 -5.5 -8t-16.5 -9l-15 -7q-75 -35 -107.5 -50.5t-56.5 -28.5q-1 -32 -3.5 -63t-5.5 -60l53 22q11 4 34 11.5t59 18.5l24 7q15 4 22.5 3.5t7.5 -5.5q-1 -2 -1.5 -3.5t-21.5 -13.5l-14 -8q-3 -2 -46.5 -21.5t-122.5 -57.5l-11 -98l-19 -136q-7 -48 -13.5 -51t-16.5 0
q-8 3 -11.5 9t-2.5 27l4 183v29q-75 -34 -78 -35t-5 -2q-32 -15 -63.5 -27t-41.5 -12q-6 0 -10.5 3t-3.5 9q-1 7 4.5 13.5t18.5 13.5l74 40q23 12 51 26t57 27l5 111q-21 -9 -40.5 -17.5t-39.5 -17.5q-47 -22 -70.5 -30t-34.5 -8q-8 -1 -11.5 2.5t-3.5 9.5t5 12t19 14l74 40
q59 32 72.5 38.5t29.5 13.5v43l-61 88q-67 96 -116.5 177t-49.5 96q0 17 12.5 32t34.5 15q13 -1 21.5 -6t24.5 -30z" />
    <glyph glyph-name="glyph156" horiz-adv-x="203" 
d="M148 974q0 64 6.5 76.5t20.5 13.5q12 0 20 -12.5t8 -34.5q-1 -24 -14.5 -54.5t-27.5 -30.5q-7 0 -10 4t-3 38zM51 1017q0 -38 -7 -59t-20 -21t-18.5 13.5t-5.5 39.5q0 18 8 35t21 19q18 -15 20 -18.5t2 -8.5z" />
    <glyph glyph-name="glyph158" horiz-adv-x="162" 
d="M41 238l13 169q3 43 14 63t33 20q12 0 17 -9t5 -27q0 -22 -9.5 -120t-8.5 -149q-1 -18 0 -36.5t2 -34.5q2 -15 5 -33.5t3 -27.5q0 -20 -10 -31t-31 -11q-24 0 -33 16t-9 58q0 19 1.5 47t7.5 106z" />
    <glyph glyph-name="glyph159" horiz-adv-x="203" 
d="M148 635q0 62 6.5 76t20.5 14q12 0 19.5 -13t8.5 -35q0 -25 -14 -54.5t-28 -29.5q-7 0 -10 4t-3 38zM51 677q0 -38 -6.5 -58.5t-20.5 -20.5q-13 0 -18.5 11t-5.5 42q0 24 9.5 39t19.5 15q6 0 14 -8.5t8 -19.5z" />
    <glyph glyph-name="florin" horiz-adv-x="456" 
d="M119 268q53 325 112 412t153 87q42 -1 69.5 -39.5t27.5 -90.5q0 -18 -9 -26.5t-25 -7.5q-8 0 -13 3.5t-12 37.5q-9 50 -21 63.5t-31 13.5q-61 0 -106.5 -109t-73.5 -324q39 15 101 37t76 23q1 0 4.5 -0.5t6.5 0.5q4 0 5 -1t2 -3v-4v-3q-2 -10 -11.5 -20.5t-186.5 -81.5
q-10 -83 -14.5 -129t-9.5 -113q-1 -5 -1 -9t-22 -205q-7 -67 -17.5 -88.5t-29.5 -21.5q-15 0 -23.5 15.5t-7.5 48.5q0 51 11 152.5t42 327.5q-29 -13 -67 -24t-51 -11h-2t-2 1v1.5v4.5q4 11 24.5 24.5t101.5 58.5z" />
    <glyph glyph-name="approxequal" horiz-adv-x="681" 
d="M500 493l-63 2l-77 5q-128 8 -128.5 8t-54.5 -34q-30 -19 -60 -53t-46 -34q-12 0 -21.5 8.5t-9.5 22.5q-1 60 90 117.5t194 40.5l59 -10q115 -20 144.5 19t91.5 39q22 0 34.5 -12t12.5 -30q0 -38 -44 -65t-122 -24zM500 270l-63 2l-77 6q-91 7 -123 -1t-60 -26
q-30 -19 -60 -53t-46 -34q-12 0 -21.5 8.5t-9.5 22.5q0 62 90.5 118.5t193.5 39.5l59 -10q112 -20 145.5 19.5t90.5 39.5q21 -1 34 -13t13 -30q0 -41 -48 -66.5t-118 -22.5z" />
    <glyph glyph-name="divide" horiz-adv-x="698" 
d="M608 446q-5 -1 -7 -1.5t-339 -109.5q-21 -10 -50 -16t-117 -19q-27 -9 -41 -3t-14 33q0 29 246.5 89t321.5 65q74 -9 74.5 -9.5l0.5 -0.5q-1 -6 -4 -10t-71 -18zM347 576q1 -14 -6 -26.5t-22 -22.5q-22 -10 -43 -1t-27 33q1 14 26.5 29t44.5 16q10 -1 17.5 -8.5
t9.5 -19.5zM447 234q3 -8 3.5 -13t-0.5 -8q-3 -7 -12 -17.5t-19 -18.5q-21 -10 -41.5 -0.5t-28.5 32.5q1 13 25.5 28.5t45.5 16.5q9 -1 16 -6t11 -14z" />
    <glyph glyph-name="glyph187" horiz-adv-x="289" 
d="M289 1061q0 -20 -58 -67t-110 -47q-53 0 -87 26.5t-34 57.5q0 7 4 14.5t7 7.5q-8 0 17.5 -27t100.5 -27q27 -1 53 7.5t68 36.5q35 23 35 23.5t1 0.5l1.5 -2.5t1.5 -3.5z" />
    <glyph glyph-name="glyph190" horiz-adv-x="289" 
d="M289 722q0 -23 -60.5 -69t-107.5 -46q-53 0 -87 27t-34 58q0 8 3.5 14.5t7.5 6.5q-3 -1 19 -27.5t99 -26.5q26 0 53 8.5t68 36.5l35 24h1q1 -1 1.5 -3t1.5 -3z" />
  </font>
</defs>
</svg>
