<svg width="175" height="144" viewBox="0 0 175 144" fill="none" xmlns="http://www.w3.org/2000/svg">
<path fill-rule="evenodd" clip-rule="evenodd" d="M68.361 18.2707C63.3818 20.6449 60.166 23.432 58.195 26.5288C52.3859 35.9223 60.3734 58.3223 72.3029 71.6385C86.4108 87.432 96.3693 83.6127 106.95 67.1998C111.203 60.4901 114.523 52.8514 116.39 45.3159C118.672 36.232 117.739 27.1481 110.373 20.7481C105.705 16.7223 97.8216 13.832 84.6473 14.4514C78.9419 14.761 73.5477 15.7933 68.361 18.2707Z" fill="#ED2024"/>
<path fill-rule="evenodd" clip-rule="evenodd" d="M46.888 16.5161L66.805 8.3613V1.23871H74.1702V5.36774L87.3444 0L127.801 16.5161V24.9806L87.3444 8.46452L46.888 24.9806V16.5161Z" fill="#5C9F38"/>
<path fill-rule="evenodd" clip-rule="evenodd" d="M91.39 20.335C92.0124 20.335 92.5311 21.4708 92.5311 22.8131C92.5311 24.1555 92.0124 25.2913 91.39 25.2913C90.7676 25.2913 90.2489 24.1555 90.2489 22.8131C90.2489 21.4708 90.7676 20.335 91.39 20.335Z" fill="white"/>
<path fill-rule="evenodd" clip-rule="evenodd" d="M100.104 23.7417C100.726 23.7417 101.245 24.8775 101.245 26.2198C101.245 27.5622 100.726 28.698 100.104 28.698C99.4814 28.698 98.9627 27.5622 98.9627 26.2198C98.9627 24.8775 99.4814 23.7417 100.104 23.7417Z" fill="white"/>
<path fill-rule="evenodd" clip-rule="evenodd" d="M106.743 28.4902C107.365 28.4902 107.884 29.626 107.884 30.9684C107.884 32.3107 107.365 33.4465 106.743 33.4465C106.12 33.4465 105.602 32.3107 105.602 30.9684C105.602 29.626 106.12 28.4902 106.743 28.4902Z" fill="white"/>
<path fill-rule="evenodd" clip-rule="evenodd" d="M111.929 35.3037C112.552 35.3037 113.071 36.4395 113.071 37.7819C113.071 39.1242 112.552 40.26 111.929 40.26C111.307 40.26 110.788 39.1242 110.788 37.7819C110.685 36.4395 111.307 35.3037 111.929 35.3037Z" fill="white"/>
<path fill-rule="evenodd" clip-rule="evenodd" d="M95.1243 32.7227C95.7468 32.7227 96.2654 33.8585 96.2654 35.2008C96.2654 36.5432 95.7468 37.679 95.1243 37.679C94.5019 37.679 93.9833 36.5432 93.9833 35.2008C93.9833 33.8585 94.5019 32.7227 95.1243 32.7227Z" fill="white"/>
<path fill-rule="evenodd" clip-rule="evenodd" d="M84.025 27.4585C84.6474 27.4585 85.1661 28.5943 85.1661 29.9366C85.1661 31.279 84.6474 32.4148 84.025 32.4148C83.4026 32.4148 82.8839 31.279 82.8839 29.9366C82.8839 28.5943 83.4026 27.4585 84.025 27.4585Z" fill="white"/>
<path fill-rule="evenodd" clip-rule="evenodd" d="M83.2988 45.9355C83.9212 45.9355 84.4399 47.0714 84.4399 48.4137C84.4399 49.756 83.9212 50.8919 83.2988 50.8919C82.6764 50.8919 82.1577 49.756 82.1577 48.4137C82.1577 47.0714 82.6764 45.9355 83.2988 45.9355Z" fill="white"/>
<path fill-rule="evenodd" clip-rule="evenodd" d="M90.1453 39.0186C90.7677 39.0186 91.2863 40.1544 91.2863 41.4967C91.2863 42.839 90.7677 43.9749 90.1453 43.9749C89.5229 43.9749 89.0042 42.839 89.0042 41.4967C88.9004 40.1544 89.4191 39.0186 90.1453 39.0186Z" fill="white"/>
<path fill-rule="evenodd" clip-rule="evenodd" d="M102.282 34.6831C102.905 34.6831 103.423 35.8189 103.423 37.1613C103.423 38.5036 102.905 39.6394 102.282 39.6394C101.66 39.6394 101.141 38.5036 101.141 37.1613C101.037 35.7157 101.556 34.6831 102.282 34.6831Z" fill="white"/>
<path fill-rule="evenodd" clip-rule="evenodd" d="M106.328 40.7744C106.95 40.7744 107.469 41.9102 107.469 43.2526C107.469 44.5949 106.95 45.7307 106.328 45.7307C105.705 45.7307 105.187 44.5949 105.187 43.2526C105.083 41.9102 105.602 40.7744 106.328 40.7744Z" fill="white"/>
<path fill-rule="evenodd" clip-rule="evenodd" d="M97.7177 40.4644C98.3402 40.4644 98.8588 41.6002 98.8588 42.9425C98.8588 44.2849 98.3402 45.4207 97.7177 45.4207C97.0953 45.4207 96.5767 44.2849 96.5767 42.9425C96.5767 41.6002 97.0953 40.4644 97.7177 40.4644Z" fill="white"/>
<path fill-rule="evenodd" clip-rule="evenodd" d="M92.3236 49.1362C92.946 49.1362 93.4647 50.272 93.4647 51.6144C93.4647 52.9567 92.946 54.0925 92.3236 54.0925C91.7012 54.0925 91.1826 52.9567 91.1826 51.6144C91.1826 50.272 91.7012 49.1362 92.3236 49.1362Z" fill="white"/>
<path fill-rule="evenodd" clip-rule="evenodd" d="M101.349 49.5483C101.971 49.5483 102.49 50.6842 102.49 52.0265C102.49 53.3688 101.971 54.5047 101.349 54.5047C100.726 54.5047 100.207 53.3688 100.207 52.0265C100.207 50.6842 100.726 49.5483 101.349 49.5483Z" fill="white"/>
<path fill-rule="evenodd" clip-rule="evenodd" d="M107.572 52.1289C108.195 52.1289 108.714 53.2647 108.714 54.6071C108.714 55.9494 108.195 57.0852 107.572 57.0852C106.95 57.0852 106.431 55.9494 106.431 54.6071C106.328 53.2647 106.846 52.1289 107.572 52.1289Z" fill="white"/>
<path fill-rule="evenodd" clip-rule="evenodd" d="M95.9544 57.29C96.5768 57.29 97.0954 58.4259 97.0954 59.7682C97.0954 61.1105 96.5768 62.2464 95.9544 62.2464C95.332 62.2464 94.8133 61.1105 94.8133 59.7682C94.8133 58.3226 95.332 57.29 95.9544 57.29Z" fill="white"/>
<path fill-rule="evenodd" clip-rule="evenodd" d="M96.058 66.0645C96.6805 66.0645 97.1991 67.2003 97.1991 68.5426C97.1991 69.8849 96.6805 71.0208 96.058 71.0208C95.4356 71.0208 94.917 69.8849 94.917 68.5426C94.917 67.2003 95.4356 66.0645 96.058 66.0645Z" fill="white"/>
<path fill-rule="evenodd" clip-rule="evenodd" d="M101.66 60.9033C102.282 60.9033 102.801 62.0391 102.801 63.3815C102.801 64.7238 102.282 65.8596 101.66 65.8596C101.037 65.8596 100.519 64.7238 100.519 63.3815C100.415 62.0391 100.934 60.9033 101.66 60.9033Z" fill="white"/>
<path fill-rule="evenodd" clip-rule="evenodd" d="M63.7967 25.8066C54.0456 41.1873 68.5685 64.1034 82.2614 75.355C63.9004 50.7873 61.2033 42.8389 63.7967 25.8066Z" fill="white"/>
<path fill-rule="evenodd" clip-rule="evenodd" d="M6.0166 107.664C5.49793 107.251 5.29046 106.632 5.29046 106.013C5.29046 105.187 5.80913 104.464 6.53527 104.051C7.15768 103.742 7.78008 103.535 8.50622 103.535C9.3361 103.535 10.2697 103.742 11.0996 103.948C11.6183 104.051 12.6556 104.464 13.1743 104.464C13.7967 104.464 14.2116 104.258 14.6266 103.845C15.0415 103.432 15.249 102.916 15.249 102.4C15.249 101.058 14.2116 100.335 13.0705 99.9224C11.8257 99.4063 10.3734 99.1999 9.02489 99.1999C6.84647 99.1999 4.66805 99.6127 2.90457 100.955C1.14108 102.297 0.414947 104.258 0.414947 106.426C0.414947 108.181 0.829882 109.832 2.17843 110.968C3.31951 111.897 5.18673 112.516 6.53527 112.929C7.67635 113.239 9.6473 113.858 10.5809 114.477C11.3071 114.993 11.722 115.716 11.722 116.645C11.722 117.574 11.3071 118.297 10.4772 118.813C9.75104 119.226 9.02491 119.432 8.19503 119.432C7.05395 119.432 5.80914 119.019 4.77179 118.606C4.04565 118.297 2.80083 117.884 2.07469 117.884C1.45228 117.884 1.03734 118.09 0.726138 118.606C0.3112 119.122 0 119.742 0 120.361C0 121.29 0.726141 122.013 1.55602 122.426C3.52697 123.561 5.80913 123.871 8.09129 123.871C10.3734 123.871 12.6556 123.355 14.4191 121.91C16.1826 120.464 16.9087 118.4 16.9087 116.129C16.9087 113.961 16.1826 112.206 14.4191 110.968C13.0705 110.039 10.0622 109.11 8.50622 108.49C7.57261 108.387 6.53527 108.077 6.0166 107.664ZM29.7718 106.219C29.0456 106.013 27.6971 106.013 26.971 106.013H26.4523V101.781C26.4523 101.161 26.2448 100.645 25.8299 100.232C25.4149 99.8192 24.8963 99.6128 24.3776 99.6128C23.7552 99.6128 23.2365 99.8192 22.7179 100.232C22.3029 100.645 22.0954 101.161 22.0954 101.781V106.013H21.5768C20.2282 106.013 18.6722 106.219 18.6722 107.871C18.6722 108.49 18.7759 109.213 19.3983 109.522C19.917 109.832 20.9544 109.832 21.5768 109.832H22.0954V121.393C22.0954 122.013 22.3029 122.529 22.7179 122.942C23.0291 123.355 23.5477 123.561 24.0664 123.561C25.7261 123.561 26.4523 122.839 26.4523 121.187V109.832H28.7344C30.083 109.832 30.8091 109.316 30.8091 107.871C30.7054 107.148 30.4979 106.529 29.7718 106.219ZM36.3071 107.251C35.8921 106.219 35.166 105.91 34.1286 105.91C33.5062 105.91 32.9876 106.116 32.5726 106.529C32.1577 107.045 31.9502 107.561 31.9502 108.18V121.29C31.9502 121.91 32.0539 122.426 32.4689 122.942C32.7801 123.355 33.2988 123.664 33.8174 123.664C35.4772 123.664 36.3071 122.942 36.3071 121.187V114.374C36.3071 113.135 36.6183 111.793 37.7593 111.071C38.3818 110.555 39.4191 110.245 40.1452 110.039C40.7676 109.832 41.7013 109.522 42.3237 109.11C42.7386 108.8 42.9461 108.284 42.9461 107.768C42.9461 107.148 42.7386 106.632 42.3237 106.116C41.9087 105.703 41.4938 105.393 40.8714 105.393C39.4191 105.393 38.278 106.219 37.3444 107.355L36.722 108.18L36.3071 107.251ZM61.2033 121.393V108.18C61.2033 107.561 60.9959 106.942 60.5809 106.529C60.166 106.116 59.6473 105.91 59.0249 105.91C57.9876 105.91 57.3651 106.322 57.0539 107.251L56.7427 108.18L56.1203 107.458C54.9793 106.116 53.527 105.497 51.7635 105.497C50.3112 105.497 49.0664 105.91 47.9253 106.735C45.1245 108.697 43.8797 111.484 43.8797 114.787C43.8797 116.335 44.2946 117.884 44.917 119.329C46.2656 122.322 48.444 123.974 51.7635 123.974C53.4232 123.974 54.8755 123.458 56.0166 122.116L56.639 121.393L56.9502 122.322C57.3652 123.355 58.195 123.664 59.2324 123.664C59.751 123.664 60.166 123.458 60.5809 123.045C60.9959 122.529 61.2033 122.013 61.2033 121.393ZM56.8465 114.787C56.8465 116.026 56.5353 117.264 55.8091 118.297C54.9793 119.432 53.8382 119.948 52.4896 119.948C51.1411 119.948 50.1037 119.432 49.1701 118.297C48.444 117.264 48.1328 116.129 48.1328 114.89C48.1328 113.651 48.444 112.413 49.0664 111.381C49.8963 110.245 51.0373 109.626 52.3859 109.626C53.7344 109.626 54.8755 110.142 55.7054 111.277C56.639 112.31 56.8465 113.445 56.8465 114.787ZM90.0415 107.871C90.0415 107.251 89.9378 106.735 89.5228 106.322C89.1079 105.91 88.4855 105.806 87.9668 105.806C86.8257 105.806 86.2033 106.322 85.8921 107.355L83.0913 116.542H82.1577L79.5643 108.49C79.3568 107.768 78.9419 106.942 78.527 106.322C78.2158 105.91 77.6971 105.703 77.1784 105.703C76.556 105.703 76.0374 105.91 75.6224 106.529C75.2075 106.942 75 107.871 74.7925 108.49L72.1992 116.542H71.3693L68.4647 107.355C68.1535 106.322 67.5311 105.806 66.4938 105.806C65.8714 105.806 65.3527 106.013 64.834 106.426C64.4191 106.839 64.2116 107.251 64.2116 107.871C64.2116 108.387 64.9378 110.245 65.1452 110.761L68.8797 121.393C69.3984 122.839 70.2282 123.768 71.7842 123.768C73.3402 123.768 74.0664 122.632 74.4813 121.393L76.7635 114.581L77.6971 114.477L79.9793 121.393C80.1867 121.91 80.4979 122.839 80.9129 123.251C81.3278 123.664 82.0539 123.871 82.6764 123.871C84.2324 123.871 85.166 122.942 85.5809 121.497L89.3154 110.864C89.5228 110.142 90.0415 108.49 90.0415 107.871ZM110.996 114.787C110.996 111.381 109.855 108.593 106.95 106.735C105.809 106.013 104.564 105.497 103.112 105.497C101.556 105.497 100.104 105.91 98.8589 106.942L97.9253 107.768V100.026C97.9253 99.4063 97.7178 98.8902 97.3029 98.4773C96.888 98.0644 96.3693 97.8579 95.7469 97.8579C95.1245 97.8579 94.6058 98.0644 94.1909 98.4773C93.7759 98.9934 93.5685 99.5095 93.5685 100.129V121.497C93.5685 122.116 93.7759 122.632 94.1909 123.045C94.5021 123.458 95.0207 123.768 95.5394 123.768C96.5768 123.768 97.4066 123.355 97.8216 122.426L98.1328 121.497L98.7552 122.322C99.7925 123.664 101.245 124.181 102.905 124.181C105.29 124.181 107.261 123.148 108.714 121.29C110.373 119.226 110.996 117.161 110.996 114.787ZM106.639 114.787C106.639 116.026 106.328 117.264 105.602 118.297C104.772 119.432 103.734 119.948 102.386 119.948C101.037 119.948 99.8963 119.432 99.0664 118.297C98.3403 117.264 98.0291 116.026 98.0291 114.787C98.0291 113.548 98.3403 112.31 99.0664 111.277C99.8963 110.142 101.037 109.626 102.386 109.626C103.734 109.626 104.876 110.245 105.602 111.277C106.432 112.31 106.639 113.548 106.639 114.787ZM131.432 114.168C131.432 111.793 130.705 109.729 129.046 107.974C127.49 106.219 125.519 105.393 123.133 105.393C120.643 105.393 118.465 106.322 116.701 108.077C114.938 109.935 114.108 112.103 114.108 114.684C114.108 117.264 114.834 119.535 116.598 121.393C118.361 123.251 120.643 123.974 123.133 123.974C124.896 123.974 126.556 123.664 128.112 123.045C129.357 122.529 131.017 121.703 131.017 120.155C131.017 119.639 130.913 119.226 130.498 118.813C130.187 118.503 129.772 118.297 129.357 118.297C129.046 118.297 128.112 118.71 127.801 118.813C127.178 119.122 126.556 119.329 125.934 119.639C125.311 119.845 124.585 119.948 123.859 119.948C122.718 119.948 121.681 119.742 120.643 119.226C119.502 118.606 118.776 117.677 118.776 116.335V115.819H129.253C129.772 115.819 130.498 115.716 130.913 115.406C131.328 115.303 131.432 114.581 131.432 114.168ZM127.075 113.342H118.88V112.826C118.88 111.793 119.398 110.864 120.124 110.142C120.954 109.419 121.784 109.006 122.925 109.006C123.963 109.006 124.896 109.419 125.726 110.142C126.556 110.864 127.075 111.793 127.075 112.826V113.342ZM138.9 107.251C138.485 106.219 137.759 105.91 136.722 105.91C136.1 105.91 135.581 106.116 135.166 106.529C134.751 107.045 134.544 107.561 134.544 108.18V121.29C134.544 121.91 134.647 122.426 135.062 122.942C135.373 123.355 135.892 123.664 136.411 123.664C138.071 123.664 138.9 122.942 138.9 121.187V114.374C138.9 113.135 139.212 111.793 140.353 111.071C140.975 110.555 142.012 110.245 142.739 110.039C143.361 109.832 144.295 109.522 144.917 109.11C145.332 108.8 145.539 108.284 145.539 107.768C145.539 107.148 145.332 106.632 144.917 106.116C144.502 105.703 144.087 105.393 143.465 105.393C142.012 105.393 140.871 106.219 139.938 107.355L139.315 108.18L138.9 107.251ZM161.618 129.135C161.826 130.271 162.448 131.097 163.693 131.097C164.938 131.097 165.56 130.064 166.079 129.135L174.585 109.522C174.793 109.006 175 108.49 175 107.871C175 107.251 174.793 106.735 174.378 106.322C173.963 105.91 173.34 105.703 172.718 105.703C171.577 105.703 170.851 107.045 170.436 107.974L166.701 116.955L162.967 107.355C162.552 106.322 161.826 105.703 160.685 105.703C160.062 105.703 159.647 105.91 159.232 106.219C159.129 106.322 159.025 106.426 158.921 106.529L158.402 107.355L157.988 106.426C157.884 106.219 157.78 106.013 157.573 105.91C157.158 105.497 156.743 105.187 156.12 105.187C154.668 105.187 153.527 106.013 152.593 107.148L151.971 107.974L151.66 107.045C151.245 106.013 150.519 105.703 149.481 105.703C148.859 105.703 148.34 105.91 147.925 106.322C147.51 106.839 147.303 107.355 147.303 107.974V121.084C147.303 121.703 147.407 122.219 147.822 122.735C148.133 123.148 148.651 123.458 149.17 123.458C150.83 123.458 151.66 122.735 151.66 120.981V114.168C151.66 112.929 151.971 111.587 153.112 110.864C153.734 110.348 154.772 110.039 155.498 109.832C156.12 109.626 157.054 109.316 157.676 108.903C157.78 108.8 157.884 108.697 157.988 108.593L158.61 107.664L159.025 108.697C159.129 108.903 159.129 109.11 159.232 109.213L164.627 122.013L162.344 127.484C161.826 128.206 161.722 128.722 161.618 129.135Z" fill="black"/>
<path fill-rule="evenodd" clip-rule="evenodd" d="M70.0207 142.555V132.232C70.0207 131.407 69.7095 130.891 68.7759 130.891C67.8423 130.891 67.5311 131.303 67.5311 132.232V136.155H61.307V132.129C61.307 131.303 60.9958 130.787 60.0622 130.787C59.1286 130.787 58.8174 131.2 58.8174 132.129V142.452C58.8174 143.278 59.1286 143.794 60.0622 143.794C60.9958 143.794 61.307 143.278 61.307 142.452V138.323H67.5311V142.555C67.5311 143.381 67.8423 143.794 68.6722 143.794C69.6058 143.897 70.0207 143.484 70.0207 142.555ZM84.2323 137.394C84.2323 135.639 83.8174 133.884 82.5726 132.542C81.3278 131.2 79.668 130.684 77.9045 130.684C76.141 130.684 74.4813 131.2 73.3402 132.542C72.0954 133.884 71.6805 135.639 71.6805 137.394C71.6805 139.149 72.0954 140.8 73.3402 142.142C74.585 143.484 76.141 144 77.9045 144C79.668 144 81.3278 143.484 82.5726 142.142C83.8174 140.8 84.2323 139.149 84.2323 137.394ZM81.5352 137.394C81.5352 138.426 81.3278 139.458 80.7054 140.387C80.083 141.316 79.0456 141.832 77.9045 141.832C76.7635 141.832 75.8298 141.42 75.1037 140.491C74.4813 139.562 74.2738 138.529 74.2738 137.497C74.2738 136.465 74.4813 135.329 75.1037 134.503C75.7261 133.471 76.6597 133.058 77.9045 133.058C79.0456 133.058 79.9792 133.471 80.7054 134.503C81.3278 135.226 81.5352 136.258 81.5352 137.394ZM96.5767 138.632V132.129C96.5767 131.82 96.473 131.407 96.2655 131.2C96.0581 130.891 95.6431 130.891 95.3319 130.891C95.0207 130.891 94.7095 130.994 94.502 131.2C94.2946 131.51 94.1908 131.82 94.1908 132.129V138.632C94.1908 139.458 93.9834 140.181 93.361 140.8C92.7386 141.42 92.0124 141.626 91.1825 141.626C90.3527 141.626 89.6265 141.42 89.0041 140.8C88.3817 140.181 88.1742 139.458 88.1742 138.632V132.129C88.1742 131.303 87.863 130.787 86.9294 130.787C85.9958 130.787 85.6846 131.2 85.6846 132.129V138.632C85.6846 140.078 86.0996 141.523 87.2406 142.555C88.3817 143.587 89.7303 144 91.2863 144C92.8423 144 94.1908 143.587 95.3319 142.555C96.1618 141.523 96.5767 140.181 96.5767 138.632ZM101.245 135.226C100.934 135.02 100.83 134.71 100.83 134.297C100.83 133.884 101.141 133.471 101.452 133.265C101.763 133.058 102.178 133.058 102.49 133.058C102.905 133.058 103.423 133.162 103.838 133.265C104.046 133.368 104.668 133.574 104.979 133.574C105.29 133.574 105.602 133.471 105.809 133.265C106.017 133.058 106.12 132.749 106.12 132.439C106.12 131.716 105.498 131.303 104.875 131.097C104.149 130.787 103.423 130.684 102.697 130.684C101.556 130.684 100.311 130.891 99.3776 131.613C98.444 132.336 98.029 133.368 98.029 134.607C98.029 135.536 98.2365 136.465 98.9626 137.084C99.585 137.6 100.622 137.91 101.349 138.116C101.971 138.323 103.008 138.632 103.527 138.942C103.942 139.252 104.149 139.665 104.149 140.078C104.149 140.594 103.942 141.007 103.527 141.213C103.112 141.42 102.697 141.523 102.282 141.523C101.66 141.523 101.037 141.316 100.415 141.11C100 141.007 99.3776 140.697 98.9626 140.697C98.6514 140.697 98.4439 140.8 98.2365 141.11C98.029 141.42 97.8215 141.729 97.8215 142.039C97.8215 142.555 98.2365 142.968 98.6514 143.174C99.6888 143.794 100.934 144 102.178 144C103.423 144 104.564 143.691 105.602 142.968C106.535 142.142 106.95 141.11 106.95 139.871C106.95 138.736 106.535 137.703 105.602 137.084C104.875 136.568 103.319 136.052 102.386 135.742C102.075 135.639 101.452 135.432 101.245 135.226ZM115.871 142.555C115.871 141.729 115.353 141.523 114.627 141.523H111.1V138.426H114.419C114.73 138.426 115.041 138.323 115.249 138.116C115.456 137.91 115.56 137.6 115.56 137.291C115.56 136.981 115.456 136.671 115.249 136.465C115.041 136.258 114.73 136.155 114.419 136.155H111.1V133.161H114.627C115.353 133.161 115.768 132.852 115.768 132.026C115.768 131.2 115.456 130.891 114.627 130.891H109.751C109.44 130.891 109.129 130.994 108.921 131.2C108.714 131.407 108.61 131.716 108.61 132.129V142.452C108.61 142.762 108.714 143.071 108.921 143.381C109.232 143.587 109.544 143.691 109.855 143.691H114.523C115.456 143.691 115.871 143.381 115.871 142.555Z" fill="black"/>
<path fill-rule="evenodd" clip-rule="evenodd" d="M68.361 18.2707C63.3818 20.6449 60.166 23.432 58.195 26.5288C52.3859 35.9223 60.3734 58.3223 72.3029 71.6385C86.4108 87.432 96.3693 83.6127 106.95 67.1998C111.203 60.4901 114.523 52.8514 116.39 45.3159C118.672 36.232 117.739 27.1481 110.373 20.7481C105.705 16.7223 97.8216 13.832 84.6473 14.4514C78.9419 14.761 73.5477 15.7933 68.361 18.2707Z" fill="#ED2024"/>
<path fill-rule="evenodd" clip-rule="evenodd" d="M46.888 16.5161L66.805 8.3613V1.23871H74.1702V5.36774L87.3444 0L127.801 16.5161V24.9806L87.3444 8.46452L46.888 24.9806V16.5161Z" fill="#5C9F38"/>
<path fill-rule="evenodd" clip-rule="evenodd" d="M91.39 20.335C92.0124 20.335 92.5311 21.4708 92.5311 22.8131C92.5311 24.1555 92.0124 25.2913 91.39 25.2913C90.7676 25.2913 90.2489 24.1555 90.2489 22.8131C90.2489 21.4708 90.7676 20.335 91.39 20.335Z" fill="white"/>
<path fill-rule="evenodd" clip-rule="evenodd" d="M100.104 23.7417C100.726 23.7417 101.245 24.8775 101.245 26.2198C101.245 27.5622 100.726 28.698 100.104 28.698C99.4814 28.698 98.9627 27.5622 98.9627 26.2198C98.9627 24.8775 99.4814 23.7417 100.104 23.7417Z" fill="white"/>
<path fill-rule="evenodd" clip-rule="evenodd" d="M106.743 28.4902C107.365 28.4902 107.884 29.626 107.884 30.9684C107.884 32.3107 107.365 33.4465 106.743 33.4465C106.12 33.4465 105.602 32.3107 105.602 30.9684C105.602 29.626 106.12 28.4902 106.743 28.4902Z" fill="white"/>
<path fill-rule="evenodd" clip-rule="evenodd" d="M111.929 35.3037C112.552 35.3037 113.071 36.4395 113.071 37.7819C113.071 39.1242 112.552 40.26 111.929 40.26C111.307 40.26 110.788 39.1242 110.788 37.7819C110.685 36.4395 111.307 35.3037 111.929 35.3037Z" fill="white"/>
<path fill-rule="evenodd" clip-rule="evenodd" d="M95.1243 32.7227C95.7468 32.7227 96.2654 33.8585 96.2654 35.2008C96.2654 36.5432 95.7468 37.679 95.1243 37.679C94.5019 37.679 93.9833 36.5432 93.9833 35.2008C93.9833 33.8585 94.5019 32.7227 95.1243 32.7227Z" fill="white"/>
<path fill-rule="evenodd" clip-rule="evenodd" d="M84.025 27.4585C84.6474 27.4585 85.1661 28.5943 85.1661 29.9366C85.1661 31.279 84.6474 32.4148 84.025 32.4148C83.4026 32.4148 82.8839 31.279 82.8839 29.9366C82.8839 28.5943 83.4026 27.4585 84.025 27.4585Z" fill="white"/>
<path fill-rule="evenodd" clip-rule="evenodd" d="M83.2988 45.9355C83.9212 45.9355 84.4399 47.0714 84.4399 48.4137C84.4399 49.756 83.9212 50.8919 83.2988 50.8919C82.6764 50.8919 82.1577 49.756 82.1577 48.4137C82.1577 47.0714 82.6764 45.9355 83.2988 45.9355Z" fill="white"/>
<path fill-rule="evenodd" clip-rule="evenodd" d="M90.1453 39.0186C90.7677 39.0186 91.2863 40.1544 91.2863 41.4967C91.2863 42.839 90.7677 43.9749 90.1453 43.9749C89.5229 43.9749 89.0042 42.839 89.0042 41.4967C88.9004 40.1544 89.4191 39.0186 90.1453 39.0186Z" fill="white"/>
<path fill-rule="evenodd" clip-rule="evenodd" d="M102.282 34.6831C102.905 34.6831 103.423 35.8189 103.423 37.1613C103.423 38.5036 102.905 39.6394 102.282 39.6394C101.66 39.6394 101.141 38.5036 101.141 37.1613C101.037 35.7157 101.556 34.6831 102.282 34.6831Z" fill="white"/>
<path fill-rule="evenodd" clip-rule="evenodd" d="M106.328 40.7744C106.95 40.7744 107.469 41.9102 107.469 43.2526C107.469 44.5949 106.95 45.7307 106.328 45.7307C105.705 45.7307 105.187 44.5949 105.187 43.2526C105.083 41.9102 105.602 40.7744 106.328 40.7744Z" fill="white"/>
<path fill-rule="evenodd" clip-rule="evenodd" d="M97.7177 40.4644C98.3402 40.4644 98.8588 41.6002 98.8588 42.9425C98.8588 44.2849 98.3402 45.4207 97.7177 45.4207C97.0953 45.4207 96.5767 44.2849 96.5767 42.9425C96.5767 41.6002 97.0953 40.4644 97.7177 40.4644Z" fill="white"/>
<path fill-rule="evenodd" clip-rule="evenodd" d="M92.3236 49.1362C92.946 49.1362 93.4647 50.272 93.4647 51.6144C93.4647 52.9567 92.946 54.0925 92.3236 54.0925C91.7012 54.0925 91.1826 52.9567 91.1826 51.6144C91.1826 50.272 91.7012 49.1362 92.3236 49.1362Z" fill="white"/>
<path fill-rule="evenodd" clip-rule="evenodd" d="M101.349 49.5483C101.971 49.5483 102.49 50.6842 102.49 52.0265C102.49 53.3688 101.971 54.5047 101.349 54.5047C100.726 54.5047 100.207 53.3688 100.207 52.0265C100.207 50.6842 100.726 49.5483 101.349 49.5483Z" fill="white"/>
<path fill-rule="evenodd" clip-rule="evenodd" d="M107.572 52.1289C108.195 52.1289 108.714 53.2647 108.714 54.6071C108.714 55.9494 108.195 57.0852 107.572 57.0852C106.95 57.0852 106.431 55.9494 106.431 54.6071C106.328 53.2647 106.846 52.1289 107.572 52.1289Z" fill="white"/>
<path fill-rule="evenodd" clip-rule="evenodd" d="M95.9544 57.29C96.5768 57.29 97.0954 58.4259 97.0954 59.7682C97.0954 61.1105 96.5768 62.2464 95.9544 62.2464C95.332 62.2464 94.8133 61.1105 94.8133 59.7682C94.8133 58.3226 95.332 57.29 95.9544 57.29Z" fill="white"/>
<path fill-rule="evenodd" clip-rule="evenodd" d="M96.058 66.0645C96.6805 66.0645 97.1991 67.2003 97.1991 68.5426C97.1991 69.8849 96.6805 71.0208 96.058 71.0208C95.4356 71.0208 94.917 69.8849 94.917 68.5426C94.917 67.2003 95.4356 66.0645 96.058 66.0645Z" fill="white"/>
<path fill-rule="evenodd" clip-rule="evenodd" d="M101.66 60.9033C102.282 60.9033 102.801 62.0391 102.801 63.3815C102.801 64.7238 102.282 65.8596 101.66 65.8596C101.037 65.8596 100.519 64.7238 100.519 63.3815C100.415 62.0391 100.934 60.9033 101.66 60.9033Z" fill="white"/>
<path fill-rule="evenodd" clip-rule="evenodd" d="M63.7967 25.8066C54.0456 41.1873 68.5685 64.1034 82.2614 75.355C63.9004 50.7873 61.2033 42.8389 63.7967 25.8066Z" fill="white"/>
</svg>
