<svg width="50" height="50" viewBox="0 0 50 50" fill="none" xmlns="http://www.w3.org/2000/svg">
<circle cx="25" cy="25" r="24" stroke="white" stroke-width="2"/>
<path d="M25 16.8072C27.6506 16.8072 28.0121 16.8072 29.0964 16.8072C30.0602 16.8072 30.5422 17.0482 30.9036 17.1687C31.3855 17.4096 31.747 17.5301 32.1084 17.8916C32.4699 18.253 32.7108 18.6145 32.8313 19.0964C32.9518 19.4578 33.0723 19.9398 33.1928 20.9036C33.1928 21.988 33.1928 22.2289 33.1928 25C33.1928 27.7711 33.1928 28.0121 33.1928 29.0964C33.1928 30.0602 32.9518 30.5422 32.8313 30.9036C32.5904 31.3855 32.4699 31.747 32.1084 32.1084C31.747 32.4699 31.3855 32.7108 30.9036 32.8313C30.5422 32.9518 30.0602 33.0723 29.0964 33.1928C28.0121 33.1928 27.7711 33.1928 25 33.1928C22.2289 33.1928 21.988 33.1928 20.9036 33.1928C19.9398 33.1928 19.4578 32.9518 19.0964 32.8313C18.6145 32.5904 18.253 32.4699 17.8916 32.1084C17.5301 31.747 17.2892 31.3855 17.1687 30.9036C17.0482 30.5422 16.9277 30.0602 16.8072 29.0964C16.8072 28.0121 16.8072 27.7711 16.8072 25C16.8072 22.2289 16.8072 21.988 16.8072 20.9036C16.8072 19.9398 17.0482 19.4578 17.1687 19.0964C17.4096 18.6145 17.5301 18.253 17.8916 17.8916C18.253 17.5301 18.6145 17.2892 19.0964 17.1687C19.4578 17.0482 19.9398 16.9277 20.9036 16.8072C21.988 16.8072 22.3494 16.8072 25 16.8072ZM25 15C22.2289 15 21.988 15 20.9036 15C19.8193 15 19.0964 15.241 18.494 15.4819C17.8916 15.7229 17.2892 16.0843 16.6867 16.6867C16.0843 17.2892 15.8434 17.7711 15.4819 18.494C15.241 19.0964 15.1205 19.8193 15 20.9036C15 21.988 15 22.3494 15 25C15 27.7711 15 28.0121 15 29.0964C15 30.1807 15.241 30.9036 15.4819 31.506C15.7229 32.1084 16.0843 32.7108 16.6867 33.3133C17.2892 33.9157 17.7711 34.1566 18.494 34.5181C19.0964 34.759 19.8193 34.8795 20.9036 35C21.988 35 22.3494 35 25 35C27.6506 35 28.0121 35 29.0964 35C30.1807 35 30.9036 34.759 31.506 34.5181C32.1084 34.2771 32.7108 33.9157 33.3133 33.3133C33.9157 32.7108 34.1566 32.2289 34.5181 31.506C34.759 30.9036 34.8795 30.1807 35 29.0964C35 28.0121 35 27.6506 35 25C35 22.3494 35 21.988 35 20.9036C35 19.8193 34.759 19.0964 34.5181 18.494C34.2771 17.8916 33.9157 17.2892 33.3133 16.6867C32.7108 16.0843 32.2289 15.8434 31.506 15.4819C30.9036 15.241 30.1807 15.1205 29.0964 15C28.0121 15 27.7711 15 25 15Z" fill="white"/>
<path d="M25 19.8193C22.1084 19.8193 19.8193 22.1084 19.8193 25C19.8193 27.8916 22.1084 30.1807 25 30.1807C27.8916 30.1807 30.1807 27.8916 30.1807 25C30.1807 22.1084 27.8916 19.8193 25 19.8193ZM25 28.3735C23.1928 28.3735 21.6265 26.9277 21.6265 25C21.6265 23.1928 23.0723 21.6265 25 21.6265C26.8072 21.6265 28.3735 23.0723 28.3735 25C28.3735 26.8072 26.8072 28.3735 25 28.3735Z" fill="white"/>
<path d="M30.3012 20.9036C30.9666 20.9036 31.506 20.3642 31.506 19.6988C31.506 19.0334 30.9666 18.494 30.3012 18.494C29.6358 18.494 29.0964 19.0334 29.0964 19.6988C29.0964 20.3642 29.6358 20.9036 30.3012 20.9036Z" fill="white"/>
</svg>
