<svg width="120" height="23" viewBox="0 0 120 23" fill="none" xmlns="http://www.w3.org/2000/svg">
<path fill-rule="evenodd" clip-rule="evenodd" d="M34.0288 4.88814C33.7649 4.68233 33.6593 4.37361 33.6593 4.06489C33.6593 3.65326 33.9232 3.29306 34.2926 3.08725C34.6093 2.93289 34.9259 2.82998 35.2954 2.82998C35.7176 2.82998 36.1925 2.9329 36.6147 3.03581C36.8786 3.08726 37.4064 3.29308 37.6703 3.29308C37.9869 3.29308 38.198 3.19017 38.4091 2.98435C38.6202 2.77853 38.7258 2.52127 38.7258 2.26399C38.7258 1.59509 38.198 1.2349 37.6175 1.02908C36.9842 0.771812 36.2453 0.668913 35.5592 0.668913C34.451 0.668913 33.3427 0.87472 32.4455 1.54362C31.5483 2.21253 31.1789 3.19017 31.1789 4.2707C31.1789 5.14542 31.39 5.96869 32.0761 6.53468C32.6566 6.99777 33.6065 7.30649 34.2926 7.51231C34.8732 7.66667 35.8759 7.97539 36.3509 8.28412C36.7203 8.54139 36.9314 8.90157 36.9314 9.36466C36.9314 9.82775 36.7203 10.1879 36.2981 10.4452C35.9287 10.651 35.5592 10.7539 35.137 10.7539C34.5565 10.7539 33.9232 10.5481 33.3954 10.3423C33.026 10.1879 32.3927 9.98212 32.0233 9.98212C31.7066 9.98212 31.4955 10.085 31.3372 10.3423C31.1261 10.5996 30.9678 10.9083 30.9678 11.217C30.9678 11.6801 31.3372 12.0403 31.7594 12.2461C32.7621 12.8121 33.9232 12.9664 35.0843 12.9664C36.2453 12.9664 37.4064 12.7092 38.3036 11.9888C39.2008 11.2685 39.5702 10.2394 39.5702 9.10739C39.5702 8.02685 39.2008 7.15213 38.3036 6.53468C37.6175 6.07159 36.087 5.60851 35.2954 5.29979C34.8204 5.24833 34.2926 5.09396 34.0288 4.88814ZM46.1143 4.16779C45.7449 4.06488 45.0588 4.06489 44.6894 4.06489H44.4255V1.95527C44.4255 1.64654 44.32 1.38927 44.1089 1.18345C43.8978 0.977638 43.6339 0.874727 43.37 0.874727C43.0534 0.874727 42.7895 0.977638 42.5256 1.18345C42.3145 1.38927 42.209 1.64654 42.209 1.95527V4.06489H41.9451C41.259 4.06489 40.4674 4.16779 40.4674 4.99106C40.4674 5.29978 40.5201 5.65996 40.8368 5.81433C41.1007 5.96869 41.6284 5.96868 41.9451 5.96868H42.209V11.7316C42.209 12.0403 42.3145 12.2975 42.5256 12.5034C42.6839 12.7092 42.9478 12.8121 43.2117 12.8121C44.0561 12.8121 44.4255 12.4519 44.4255 11.6286V5.96868H45.5866C46.2727 5.96868 46.6421 5.71142 46.6421 4.99106C46.5893 4.63088 46.4838 4.32215 46.1143 4.16779ZM49.4392 4.68233C49.2281 4.16779 48.8587 4.01343 48.3309 4.01343C48.0143 4.01343 47.7504 4.11634 47.5393 4.32216C47.3282 4.57943 47.2226 4.83669 47.2226 5.14541V11.6801C47.2226 11.9888 47.2754 12.2461 47.4865 12.5034C47.6448 12.7092 47.9087 12.8635 48.1726 12.8635C49.017 12.8635 49.4392 12.5034 49.4392 11.6286V8.23266C49.4392 7.61521 49.5975 6.94632 50.1781 6.58614C50.4947 6.32887 51.0225 6.17451 51.3919 6.0716C51.7085 5.96869 52.1835 5.81433 52.5002 5.60851C52.7113 5.45415 52.8168 5.19687 52.8168 4.9396C52.8168 4.63088 52.7113 4.3736 52.5002 4.11633C52.2891 3.91051 52.078 3.75616 51.7613 3.75616C51.0225 3.75616 50.4419 4.16779 49.967 4.73379L49.6503 5.14541L49.4392 4.68233ZM62.1053 11.7316V5.14541C62.1053 4.83669 61.9998 4.52798 61.7887 4.32216C61.5776 4.11634 61.3137 4.01343 60.997 4.01343C60.4693 4.01343 60.1526 4.21924 59.9943 4.68233L59.836 5.14541L59.5193 4.78524C58.9388 4.11634 58.1999 3.80762 57.3028 3.80762C56.5639 3.80762 55.9306 4.01343 55.3501 4.42506C53.9251 5.40269 53.2918 6.79196 53.2918 8.43849C53.2918 9.2103 53.5029 9.98211 53.8196 10.7025C54.5056 12.1946 55.6139 13.0179 57.3028 13.0179C58.1472 13.0179 58.886 12.7606 59.4665 12.0917L59.7832 11.7316L59.9415 12.1946C60.1526 12.7092 60.5748 12.8635 61.1026 12.8635C61.3665 12.8635 61.5776 12.7606 61.7887 12.5548C61.9998 12.2976 62.1053 12.0403 62.1053 11.7316ZM59.8887 8.43849C59.8887 9.05594 59.7304 9.67339 59.361 10.1879C58.9388 10.7539 58.3583 11.0112 57.6722 11.0112C56.9861 11.0112 56.4583 10.7539 55.9834 10.1879C55.6139 9.67339 55.4556 9.10738 55.4556 8.48993C55.4556 7.87248 55.6139 7.25504 55.9306 6.7405C56.3528 6.1745 56.9333 5.86578 57.6194 5.86578C58.3055 5.86578 58.886 6.12304 59.3082 6.68904C59.7832 7.20358 59.8887 7.76959 59.8887 8.43849ZM76.7769 4.99106C76.7769 4.68233 76.7241 4.42506 76.513 4.21925C76.3019 4.01343 75.9853 3.96197 75.7214 3.96197C75.1409 3.96197 74.8242 4.21925 74.6659 4.73379L73.2409 9.3132H72.766L71.4466 5.29979C71.341 4.93961 71.1299 4.52797 70.9188 4.21925C70.7605 4.01343 70.4966 3.91052 70.2327 3.91052C69.9161 3.91052 69.6522 4.01344 69.4411 4.32216C69.23 4.52798 69.1245 4.99106 69.0189 5.29979L67.6995 9.3132H67.2773L65.7996 4.73379C65.6413 4.21925 65.3246 3.96197 64.7969 3.96197C64.4802 3.96197 64.2163 4.06489 63.9525 4.2707C63.7414 4.47652 63.6358 4.68233 63.6358 4.99106C63.6358 5.24833 64.0052 6.1745 64.1108 6.43177L66.0107 11.7316C66.2746 12.4519 66.6968 12.915 67.4884 12.915C68.28 12.915 68.6495 12.349 68.8606 11.7316L70.0216 8.33558L70.4966 8.28412L71.6577 11.7316C71.7632 11.9888 71.9216 12.4519 72.1327 12.6577C72.3438 12.8635 72.7132 12.9664 73.0298 12.9664C73.8215 12.9664 74.2965 12.5034 74.5076 11.783L76.4075 6.48322C76.513 6.12305 76.7769 5.29978 76.7769 4.99106ZM87.4376 8.43849C87.4376 6.7405 86.857 5.35123 85.3793 4.42506C84.7988 4.06488 84.1655 3.80762 83.4266 3.80762C82.635 3.80762 81.8961 4.01343 81.2628 4.52797L80.7878 4.9396V1.08054C80.7878 0.771815 80.6823 0.514545 80.4712 0.308728C80.2601 0.102911 79.9962 0 79.6796 0C79.3629 0 79.099 0.102911 78.8879 0.308728C78.6768 0.565999 78.5713 0.823272 78.5713 1.132V11.783C78.5713 12.0917 78.6768 12.349 78.8879 12.5548C79.0463 12.7606 79.3101 12.915 79.574 12.915C80.1018 12.915 80.524 12.7092 80.7351 12.2461L80.8934 11.783L81.21 12.1946C81.7378 12.8635 82.4767 13.1208 83.3211 13.1208C84.5349 13.1208 85.5376 12.6063 86.2765 11.6801C87.1209 10.651 87.4376 9.62194 87.4376 8.43849ZM85.221 8.43849C85.221 9.05594 85.0627 9.67339 84.6932 10.1879C84.271 10.7539 83.7433 11.0112 83.0572 11.0112C82.3711 11.0112 81.7906 10.7539 81.3684 10.1879C80.999 9.67339 80.8406 9.05594 80.8406 8.43849C80.8406 7.82104 80.999 7.20358 81.3684 6.68904C81.7906 6.12304 82.3711 5.86578 83.0572 5.86578C83.7433 5.86578 84.3238 6.1745 84.6932 6.68904C85.1154 7.20358 85.221 7.82104 85.221 8.43849ZM97.8343 8.12976C97.8343 6.94632 97.4649 5.91724 96.6205 5.04251C95.8289 4.16779 94.8261 3.75616 93.6123 3.75616C92.3457 3.75616 91.2374 4.21925 90.3402 5.09397C89.443 6.02015 89.0208 7.10068 89.0208 8.38703C89.0208 9.67339 89.3903 10.8054 90.2874 11.7316C91.1846 12.6577 92.3457 13.0179 93.6123 13.0179C94.5095 13.0179 95.3539 12.8635 96.1455 12.5548C96.7788 12.2976 97.6232 11.8859 97.6232 11.1141C97.6232 10.8568 97.5704 10.651 97.3594 10.4452C97.201 10.2908 96.9899 10.1879 96.7788 10.1879C96.6205 10.1879 96.1455 10.3937 95.9872 10.4452C95.6705 10.5996 95.3539 10.7025 95.0372 10.8568C94.7206 10.9597 94.3512 11.0112 93.9817 11.0112C93.4012 11.0112 92.8734 10.9083 92.3457 10.651C91.7651 10.3423 91.3957 9.87921 91.3957 9.2103V8.95303H96.726C96.9899 8.95303 97.3593 8.90157 97.5704 8.7472C97.7815 8.69575 97.8343 8.33558 97.8343 8.12976ZM95.6178 7.71812H91.4485V7.46085C91.4485 6.94631 91.7124 6.48323 92.0818 6.12305C92.504 5.76288 92.9262 5.55706 93.5067 5.55706C94.0345 5.55706 94.5095 5.76288 94.9317 6.12305C95.3539 6.48323 95.6178 6.94631 95.6178 7.46085V7.71812ZM101.634 4.68233C101.423 4.16779 101.054 4.01343 100.526 4.01343C100.209 4.01343 99.9454 4.11634 99.7342 4.32216C99.5231 4.57943 99.4176 4.83669 99.4176 5.14541V11.6801C99.4176 11.9888 99.4704 12.2461 99.6815 12.5034C99.8398 12.7092 100.104 12.8635 100.368 12.8635C101.212 12.8635 101.634 12.5034 101.634 11.6286V8.23266C101.634 7.61521 101.792 6.94632 102.373 6.58614C102.69 6.32887 103.217 6.17451 103.587 6.0716C103.904 5.96869 104.378 5.81433 104.695 5.60851C104.906 5.45415 105.012 5.19687 105.012 4.9396C105.012 4.63088 104.906 4.3736 104.695 4.11633C104.484 3.91051 104.273 3.75616 103.956 3.75616C103.217 3.75616 102.637 4.16779 102.162 4.73379L101.845 5.14541L101.634 4.68233ZM113.192 15.5906C113.298 16.1566 113.614 16.5682 114.248 16.5682C114.881 16.5682 115.197 16.0537 115.461 15.5906L119.789 5.81433C119.894 5.55706 120 5.29978 120 4.99106C120 4.68233 119.894 4.42506 119.683 4.21925C119.472 4.01343 119.156 3.91052 118.839 3.91052C118.258 3.91052 117.889 4.57943 117.678 5.04251L115.778 9.51902L113.878 4.73379C113.667 4.21925 113.298 3.91052 112.717 3.91052C112.4 3.91052 112.189 4.01343 111.978 4.16779C111.925 4.21924 111.873 4.27071 111.82 4.32216L111.556 4.73379L111.345 4.2707C111.292 4.16779 111.239 4.06489 111.134 4.01343C110.923 3.80762 110.712 3.65325 110.395 3.65325C109.656 3.65325 109.076 4.06488 108.601 4.63087L108.284 5.04251L108.126 4.57943C107.914 4.06489 107.545 3.91052 107.017 3.91052C106.701 3.91052 106.437 4.01343 106.226 4.21925C106.015 4.47652 105.909 4.73379 105.909 5.04251V11.5772C105.909 11.8859 105.962 12.1432 106.173 12.4005C106.331 12.6063 106.595 12.7606 106.859 12.7606C107.703 12.7606 108.126 12.4005 108.126 11.5257V8.12976C108.126 7.51231 108.284 6.8434 108.864 6.48322C109.181 6.22595 109.709 6.07159 110.078 5.96868C110.395 5.86578 110.87 5.71142 111.187 5.5056C111.239 5.45414 111.292 5.4027 111.345 5.35124L111.662 4.88814L111.873 5.40268C111.925 5.50559 111.925 5.6085 111.978 5.65996L114.722 12.0403L113.561 14.7673C113.298 15.1275 113.245 15.3848 113.192 15.5906Z" fill="black"/>
<path fill-rule="evenodd" clip-rule="evenodd" d="M36.6675 22.2796V17.1342C36.6675 16.7226 36.5092 16.4653 36.0342 16.4653C35.5592 16.4653 35.4009 16.6711 35.4009 17.1342V19.0895H32.2344V17.0828C32.2344 16.6711 32.0761 16.4139 31.6011 16.4139C31.1261 16.4139 30.9678 16.6197 30.9678 17.0828V22.2282C30.9678 22.6398 31.1261 22.8971 31.6011 22.8971C32.0761 22.8971 32.2344 22.6398 32.2344 22.2282V20.17H35.4009V22.2796C35.4009 22.6913 35.5592 22.8971 35.9814 22.8971C36.4564 22.9485 36.6675 22.7427 36.6675 22.2796ZM43.8978 19.7069C43.8978 18.8322 43.6867 17.9575 43.0534 17.2886C42.4201 16.6197 41.5757 16.3624 40.6785 16.3624C39.7813 16.3624 38.9369 16.6197 38.3563 17.2886C37.723 17.9575 37.5119 18.8322 37.5119 19.7069C37.5119 20.5817 37.723 21.4049 38.3563 22.0738C38.9896 22.7427 39.7813 23 40.6785 23C41.5757 23 42.4201 22.7427 43.0534 22.0738C43.6867 21.4049 43.8978 20.5817 43.8978 19.7069ZM42.5256 19.7069C42.5256 20.2215 42.4201 20.736 42.1034 21.1991C41.7868 21.6622 41.259 21.9195 40.6785 21.9195C40.0979 21.9195 39.623 21.7137 39.2535 21.2506C38.9369 20.7875 38.8313 20.2729 38.8313 19.7584C38.8313 19.2439 38.9369 18.6778 39.2535 18.2662C39.5702 17.7517 40.0452 17.5459 40.6785 17.5459C41.259 17.5459 41.734 17.7517 42.1034 18.2662C42.4201 18.6264 42.5256 19.1409 42.5256 19.7069ZM50.1781 20.3244V17.0828C50.1781 16.9284 50.1253 16.7226 50.0197 16.6197C49.9142 16.4653 49.7031 16.4653 49.5448 16.4653C49.3864 16.4653 49.2281 16.5168 49.1225 16.6197C49.017 16.7741 48.9642 16.9284 48.9642 17.0828V20.3244C48.9642 20.736 48.8587 21.0962 48.542 21.4049C48.2254 21.7136 47.8559 21.8166 47.4337 21.8166C47.0115 21.8166 46.6421 21.7136 46.3254 21.4049C46.0088 21.0962 45.9032 20.736 45.9032 20.3244V17.0828C45.9032 16.6711 45.7449 16.4139 45.2699 16.4139C44.795 16.4139 44.6366 16.6197 44.6366 17.0828V20.3244C44.6366 21.0447 44.8477 21.7651 45.4283 22.2796C46.0088 22.7942 46.6949 23 47.4865 23C48.2781 23 48.9642 22.7942 49.5448 22.2796C49.967 21.7651 50.1781 21.0962 50.1781 20.3244ZM52.5529 18.6264C52.3946 18.5235 52.3419 18.3691 52.3419 18.1633C52.3419 17.9575 52.5002 17.7517 52.6585 17.6488C52.8168 17.5459 53.0279 17.5459 53.1863 17.5459C53.3974 17.5459 53.6612 17.5973 53.8723 17.6488C53.9779 17.7002 54.2945 17.8031 54.4529 17.8031C54.6112 17.8031 54.7695 17.7517 54.8751 17.6488C54.9806 17.5459 55.0334 17.3915 55.0334 17.2371C55.0334 16.877 54.7167 16.6711 54.4001 16.5682C54.0307 16.4139 53.6612 16.3624 53.2918 16.3624C52.7113 16.3624 52.078 16.4653 51.603 16.8255C51.128 17.1857 50.9169 17.7002 50.9169 18.3177C50.9169 18.7808 51.0225 19.2438 51.3919 19.5526C51.7086 19.8098 52.2363 19.9642 52.6057 20.0671C52.9224 20.17 53.4501 20.3244 53.714 20.4788C53.9251 20.6331 54.0307 20.8389 54.0307 21.0447C54.0307 21.302 53.9251 21.5078 53.714 21.6107C53.5029 21.7136 53.2918 21.7651 53.0807 21.7651C52.7641 21.7651 52.4474 21.6622 52.1308 21.5593C51.9197 21.5078 51.603 21.3535 51.3919 21.3535C51.2336 21.3535 51.128 21.4049 51.0225 21.5593C50.9169 21.7137 50.8114 21.868 50.8114 22.0224C50.8114 22.2796 51.0225 22.4855 51.2336 22.5884C51.7613 22.8971 52.3946 23 53.0279 23C53.6612 23 54.2418 22.8456 54.7695 22.4855C55.2445 22.0738 55.4556 21.5593 55.4556 20.9418C55.4556 20.3758 55.2445 19.8613 54.7695 19.5526C54.4001 19.2953 53.6085 19.038 53.1335 18.8837C52.9752 18.8322 52.6585 18.7293 52.5529 18.6264ZM59.9943 22.2796C59.9943 21.868 59.7304 21.7651 59.361 21.7651H57.5666V20.2215H59.2554C59.4138 20.2215 59.5721 20.17 59.6776 20.0671C59.7832 19.9642 59.836 19.8098 59.836 19.6555C59.836 19.5011 59.7832 19.3468 59.6776 19.2439C59.5721 19.1409 59.4138 19.0895 59.2554 19.0895H57.5666V17.5973H59.361C59.7304 17.5973 59.9415 17.4429 59.9415 17.0313C59.9415 16.6197 59.7832 16.4653 59.361 16.4653H56.8805C56.7222 16.4653 56.5639 16.5168 56.4584 16.6197C56.3528 16.7226 56.3 16.877 56.3 17.0828V22.2282C56.3 22.3826 56.3528 22.5369 56.4584 22.6913C56.6167 22.7942 56.775 22.8456 56.9333 22.8456H59.3082C59.7832 22.8456 59.9943 22.6913 59.9943 22.2796Z" fill="black"/>
<path fill-rule="evenodd" clip-rule="evenodd" d="M6.16382 5.14401C4.73454 5.81244 3.81146 6.59712 3.2457 7.46899C1.57821 10.1136 3.87101 16.4202 7.29533 20.1692C11.345 24.6157 14.2035 23.5404 17.2407 18.9195C18.4616 17.0305 19.4144 14.8799 19.9504 12.7583C20.6055 10.2008 20.3375 7.64336 18.2234 5.84151C16.8834 4.70808 14.6204 3.89434 10.8388 4.06871C9.20104 4.1559 7.65265 4.44652 6.16382 5.14401Z" fill="#ED2024"/>
<path fill-rule="evenodd" clip-rule="evenodd" d="M0 4.64995L5.71712 2.35404V0.348746H7.83127V1.51123L11.6129 0L23.2258 4.64995V7.03305L11.6129 2.3831L0 7.03305V4.64995Z" fill="#5C9F38"/>
<path fill-rule="evenodd" clip-rule="evenodd" d="M12.7743 5.72525C12.953 5.72525 13.1019 6.04504 13.1019 6.42296C13.1019 6.80088 12.953 7.12066 12.7743 7.12066C12.5957 7.12066 12.4468 6.80088 12.4468 6.42296C12.4468 6.04504 12.5957 5.72525 12.7743 5.72525Z" fill="white"/>
<path fill-rule="evenodd" clip-rule="evenodd" d="M15.2753 6.68431C15.454 6.68431 15.6028 7.00409 15.6028 7.38201C15.6028 7.75993 15.454 8.07971 15.2753 8.07971C15.0966 8.07971 14.9478 7.75993 14.9478 7.38201C14.9478 7.00409 15.0966 6.68431 15.2753 6.68431Z" fill="white"/>
<path fill-rule="evenodd" clip-rule="evenodd" d="M17.1813 8.02118C17.36 8.02118 17.5089 8.34095 17.5089 8.71887C17.5089 9.09679 17.36 9.41657 17.1813 9.41657C17.0026 9.41657 16.8538 9.09679 16.8538 8.71887C16.8538 8.34095 17.0026 8.02118 17.1813 8.02118Z" fill="white"/>
<path fill-rule="evenodd" clip-rule="evenodd" d="M18.6699 9.93928C18.8486 9.93928 18.9975 10.2591 18.9975 10.637C18.9975 11.0149 18.8486 11.3347 18.6699 11.3347C18.4913 11.3347 18.3424 11.0149 18.3424 10.637C18.3126 10.2591 18.4913 9.93928 18.6699 9.93928Z" fill="white"/>
<path fill-rule="evenodd" clip-rule="evenodd" d="M13.8461 9.21272C14.0248 9.21272 14.1736 9.5325 14.1736 9.91042C14.1736 10.2883 14.0248 10.6081 13.8461 10.6081C13.6674 10.6081 13.5186 10.2883 13.5186 9.91042C13.5186 9.5325 13.6674 9.21272 13.8461 9.21272Z" fill="white"/>
<path fill-rule="evenodd" clip-rule="evenodd" d="M10.6601 7.73055C10.8387 7.73055 10.9876 8.05033 10.9876 8.42825C10.9876 8.80617 10.8387 9.12595 10.6601 9.12595C10.4814 9.12595 10.3325 8.80617 10.3325 8.42825C10.3325 8.05033 10.4814 7.73055 10.6601 7.73055Z" fill="white"/>
<path fill-rule="evenodd" clip-rule="evenodd" d="M10.4518 12.9327C10.6305 12.9327 10.7794 13.2525 10.7794 13.6304C10.7794 14.0083 10.6305 14.3281 10.4518 14.3281C10.2732 14.3281 10.1243 14.0083 10.1243 13.6304C10.1243 13.2525 10.2732 12.9327 10.4518 12.9327Z" fill="white"/>
<path fill-rule="evenodd" clip-rule="evenodd" d="M12.4168 10.9855C12.5954 10.9855 12.7443 11.3053 12.7443 11.6832C12.7443 12.0611 12.5954 12.3809 12.4168 12.3809C12.2381 12.3809 12.0892 12.0611 12.0892 11.6832C12.0595 11.3053 12.2084 10.9855 12.4168 10.9855Z" fill="white"/>
<path fill-rule="evenodd" clip-rule="evenodd" d="M15.9007 9.76491C16.0793 9.76491 16.2282 10.0847 16.2282 10.4626C16.2282 10.8405 16.0793 11.1603 15.9007 11.1603C15.722 11.1603 15.5731 10.8405 15.5731 10.4626C15.5434 10.0556 15.6922 9.76491 15.9007 9.76491Z" fill="white"/>
<path fill-rule="evenodd" clip-rule="evenodd" d="M17.0621 11.4796C17.2407 11.4796 17.3896 11.7993 17.3896 12.1773C17.3896 12.5552 17.2407 12.875 17.0621 12.875C16.8834 12.875 16.7345 12.5552 16.7345 12.1773C16.7047 11.7993 16.8536 11.4796 17.0621 11.4796Z" fill="white"/>
<path fill-rule="evenodd" clip-rule="evenodd" d="M14.5905 11.3924C14.7691 11.3924 14.918 11.7122 14.918 12.0901C14.918 12.468 14.7691 12.7878 14.5905 12.7878C14.4118 12.7878 14.2629 12.468 14.2629 12.0901C14.2629 11.7122 14.4118 11.3924 14.5905 11.3924Z" fill="white"/>
<path fill-rule="evenodd" clip-rule="evenodd" d="M13.0421 13.8336C13.2208 13.8336 13.3697 14.1534 13.3697 14.5313C13.3697 14.9092 13.2208 15.229 13.0421 15.229C12.8635 15.229 12.7146 14.9092 12.7146 14.5313C12.7146 14.1534 12.8635 13.8336 13.0421 13.8336Z" fill="white"/>
<path fill-rule="evenodd" clip-rule="evenodd" d="M15.6327 13.9499C15.8114 13.9499 15.9603 14.2696 15.9603 14.6476C15.9603 15.0255 15.8114 15.3453 15.6327 15.3453C15.4541 15.3453 15.3052 15.0255 15.3052 14.6476C15.3052 14.2696 15.4541 13.9499 15.6327 13.9499Z" fill="white"/>
<path fill-rule="evenodd" clip-rule="evenodd" d="M17.4195 14.6764C17.5981 14.6764 17.747 14.9962 17.747 15.3741C17.747 15.752 17.5981 16.0718 17.4195 16.0718C17.2408 16.0718 17.0919 15.752 17.0919 15.3741C17.0622 14.9962 17.211 14.6764 17.4195 14.6764Z" fill="white"/>
<path fill-rule="evenodd" clip-rule="evenodd" d="M14.0844 16.1295C14.263 16.1295 14.4119 16.4493 14.4119 16.8272C14.4119 17.2052 14.263 17.5249 14.0844 17.5249C13.9057 17.5249 13.7568 17.2052 13.7568 16.8272C13.7568 16.4202 13.9057 16.1295 14.0844 16.1295Z" fill="white"/>
<path fill-rule="evenodd" clip-rule="evenodd" d="M14.1142 18.5998C14.2928 18.5998 14.4417 18.9196 14.4417 19.2975C14.4417 19.6754 14.2928 19.9952 14.1142 19.9952C13.9355 19.9952 13.7866 19.6754 13.7866 19.2975C13.7866 18.9196 13.9355 18.5998 14.1142 18.5998Z" fill="white"/>
<path fill-rule="evenodd" clip-rule="evenodd" d="M15.7222 17.1467C15.9009 17.1467 16.0497 17.4665 16.0497 17.8444C16.0497 18.2223 15.9009 18.5421 15.7222 18.5421C15.5435 18.5421 15.3947 18.2223 15.3947 17.8444C15.3649 17.4665 15.5138 17.1467 15.7222 17.1467Z" fill="white"/>
<path fill-rule="evenodd" clip-rule="evenodd" d="M4.85373 7.26556C2.05472 11.5958 6.22345 18.0476 10.154 21.2154C4.8835 14.2986 4.10931 12.0608 4.85373 7.26556Z" fill="white"/>
<path fill-rule="evenodd" clip-rule="evenodd" d="M6.16382 5.14401C4.73454 5.81244 3.81146 6.59712 3.2457 7.46899C1.57821 10.1136 3.87101 16.4202 7.29533 20.1692C11.345 24.6157 14.2035 23.5404 17.2407 18.9195C18.4616 17.0305 19.4144 14.8799 19.9504 12.7583C20.6055 10.2008 20.3375 7.64336 18.2234 5.84151C16.8834 4.70808 14.6204 3.89434 10.8388 4.06871C9.20104 4.1559 7.65265 4.44652 6.16382 5.14401Z" fill="#ED2024"/>
<path fill-rule="evenodd" clip-rule="evenodd" d="M0 4.64995L5.71712 2.35404V0.348746H7.83127V1.51123L11.6129 0L23.2258 4.64995V7.03305L11.6129 2.3831L0 7.03305V4.64995Z" fill="#5C9F38"/>
<path fill-rule="evenodd" clip-rule="evenodd" d="M12.7743 5.72525C12.953 5.72525 13.1019 6.04504 13.1019 6.42296C13.1019 6.80088 12.953 7.12066 12.7743 7.12066C12.5957 7.12066 12.4468 6.80088 12.4468 6.42296C12.4468 6.04504 12.5957 5.72525 12.7743 5.72525Z" fill="white"/>
<path fill-rule="evenodd" clip-rule="evenodd" d="M15.2753 6.68431C15.454 6.68431 15.6028 7.00409 15.6028 7.38201C15.6028 7.75993 15.454 8.07971 15.2753 8.07971C15.0966 8.07971 14.9478 7.75993 14.9478 7.38201C14.9478 7.00409 15.0966 6.68431 15.2753 6.68431Z" fill="white"/>
<path fill-rule="evenodd" clip-rule="evenodd" d="M17.1813 8.02118C17.36 8.02118 17.5089 8.34095 17.5089 8.71887C17.5089 9.09679 17.36 9.41657 17.1813 9.41657C17.0026 9.41657 16.8538 9.09679 16.8538 8.71887C16.8538 8.34095 17.0026 8.02118 17.1813 8.02118Z" fill="white"/>
<path fill-rule="evenodd" clip-rule="evenodd" d="M18.6699 9.93928C18.8486 9.93928 18.9975 10.2591 18.9975 10.637C18.9975 11.0149 18.8486 11.3347 18.6699 11.3347C18.4913 11.3347 18.3424 11.0149 18.3424 10.637C18.3126 10.2591 18.4913 9.93928 18.6699 9.93928Z" fill="white"/>
<path fill-rule="evenodd" clip-rule="evenodd" d="M13.8461 9.21272C14.0248 9.21272 14.1736 9.5325 14.1736 9.91042C14.1736 10.2883 14.0248 10.6081 13.8461 10.6081C13.6674 10.6081 13.5186 10.2883 13.5186 9.91042C13.5186 9.5325 13.6674 9.21272 13.8461 9.21272Z" fill="white"/>
<path fill-rule="evenodd" clip-rule="evenodd" d="M10.6601 7.73055C10.8387 7.73055 10.9876 8.05033 10.9876 8.42825C10.9876 8.80617 10.8387 9.12595 10.6601 9.12595C10.4814 9.12595 10.3325 8.80617 10.3325 8.42825C10.3325 8.05033 10.4814 7.73055 10.6601 7.73055Z" fill="white"/>
<path fill-rule="evenodd" clip-rule="evenodd" d="M10.4518 12.9327C10.6305 12.9327 10.7794 13.2525 10.7794 13.6304C10.7794 14.0083 10.6305 14.3281 10.4518 14.3281C10.2732 14.3281 10.1243 14.0083 10.1243 13.6304C10.1243 13.2525 10.2732 12.9327 10.4518 12.9327Z" fill="white"/>
<path fill-rule="evenodd" clip-rule="evenodd" d="M12.4168 10.9855C12.5954 10.9855 12.7443 11.3053 12.7443 11.6832C12.7443 12.0611 12.5954 12.3809 12.4168 12.3809C12.2381 12.3809 12.0892 12.0611 12.0892 11.6832C12.0595 11.3053 12.2084 10.9855 12.4168 10.9855Z" fill="white"/>
<path fill-rule="evenodd" clip-rule="evenodd" d="M15.9007 9.76491C16.0793 9.76491 16.2282 10.0847 16.2282 10.4626C16.2282 10.8405 16.0793 11.1603 15.9007 11.1603C15.722 11.1603 15.5731 10.8405 15.5731 10.4626C15.5434 10.0556 15.6922 9.76491 15.9007 9.76491Z" fill="white"/>
<path fill-rule="evenodd" clip-rule="evenodd" d="M17.0621 11.4796C17.2407 11.4796 17.3896 11.7993 17.3896 12.1773C17.3896 12.5552 17.2407 12.875 17.0621 12.875C16.8834 12.875 16.7345 12.5552 16.7345 12.1773C16.7047 11.7993 16.8536 11.4796 17.0621 11.4796Z" fill="white"/>
<path fill-rule="evenodd" clip-rule="evenodd" d="M14.5905 11.3924C14.7691 11.3924 14.918 11.7122 14.918 12.0901C14.918 12.468 14.7691 12.7878 14.5905 12.7878C14.4118 12.7878 14.2629 12.468 14.2629 12.0901C14.2629 11.7122 14.4118 11.3924 14.5905 11.3924Z" fill="white"/>
<path fill-rule="evenodd" clip-rule="evenodd" d="M13.0421 13.8336C13.2208 13.8336 13.3697 14.1534 13.3697 14.5313C13.3697 14.9092 13.2208 15.229 13.0421 15.229C12.8635 15.229 12.7146 14.9092 12.7146 14.5313C12.7146 14.1534 12.8635 13.8336 13.0421 13.8336Z" fill="white"/>
<path fill-rule="evenodd" clip-rule="evenodd" d="M15.6327 13.9499C15.8114 13.9499 15.9603 14.2696 15.9603 14.6476C15.9603 15.0255 15.8114 15.3453 15.6327 15.3453C15.4541 15.3453 15.3052 15.0255 15.3052 14.6476C15.3052 14.2696 15.4541 13.9499 15.6327 13.9499Z" fill="white"/>
<path fill-rule="evenodd" clip-rule="evenodd" d="M17.4195 14.6764C17.5981 14.6764 17.747 14.9962 17.747 15.3741C17.747 15.752 17.5981 16.0718 17.4195 16.0718C17.2408 16.0718 17.0919 15.752 17.0919 15.3741C17.0622 14.9962 17.211 14.6764 17.4195 14.6764Z" fill="white"/>
<path fill-rule="evenodd" clip-rule="evenodd" d="M14.0844 16.1295C14.263 16.1295 14.4119 16.4493 14.4119 16.8272C14.4119 17.2052 14.263 17.5249 14.0844 17.5249C13.9057 17.5249 13.7568 17.2052 13.7568 16.8272C13.7568 16.4202 13.9057 16.1295 14.0844 16.1295Z" fill="white"/>
<path fill-rule="evenodd" clip-rule="evenodd" d="M14.1142 18.5998C14.2928 18.5998 14.4417 18.9196 14.4417 19.2975C14.4417 19.6754 14.2928 19.9952 14.1142 19.9952C13.9355 19.9952 13.7866 19.6754 13.7866 19.2975C13.7866 18.9196 13.9355 18.5998 14.1142 18.5998Z" fill="white"/>
<path fill-rule="evenodd" clip-rule="evenodd" d="M15.7222 17.1467C15.9009 17.1467 16.0497 17.4665 16.0497 17.8444C16.0497 18.2223 15.9009 18.5421 15.7222 18.5421C15.5435 18.5421 15.3947 18.2223 15.3947 17.8444C15.3649 17.4665 15.5138 17.1467 15.7222 17.1467Z" fill="white"/>
<path fill-rule="evenodd" clip-rule="evenodd" d="M4.85373 7.26556C2.05472 11.5958 6.22345 18.0476 10.154 21.2154C4.8835 14.2986 4.10931 12.0608 4.85373 7.26556Z" fill="white"/>
</svg>
