<svg width="22" height="22" viewBox="0 0 22 22" fill="none" xmlns="http://www.w3.org/2000/svg">
<path d="M20.1666 9.16671V13.75C20.1666 18.3334 18.3333 20.1667 13.7499 20.1667H8.24992C3.66659 20.1667 1.83325 18.3334 1.83325 13.75V8.25004C1.83325 3.66671 3.66659 1.83337 8.24992 1.83337H12.8333" stroke="#ED2024" stroke-width="1.5" stroke-linecap="round" stroke-linejoin="round"/>
<path d="M20.1666 9.16671H16.4999C13.7499 9.16671 12.8333 8.25004 12.8333 5.50004V1.83337L20.1666 9.16671Z" stroke="#ED2024" stroke-width="1.5" stroke-linecap="round" stroke-linejoin="round"/>
<path d="M6.0683 14.4191C5.7658 13.475 6.1233 12.3108 7.10413 11.99C7.62663 11.825 8.2683 11.9625 8.6258 12.4666C8.96496 11.9441 9.63413 11.825 10.1475 11.99C11.1375 12.3108 11.4858 13.475 11.1925 14.4191C10.725 15.9133 9.08413 16.6925 8.6258 16.6925C8.17663 16.6833 6.55413 15.9225 6.0683 14.4191Z" stroke="#ED2024" stroke-width="1.5" stroke-linecap="round" stroke-linejoin="round"/>
</svg>
