<svg width="36" height="36" viewBox="0 0 36 36" fill="none" xmlns="http://www.w3.org/2000/svg">
<rect width="36" height="36" rx="18" fill="#5C9F38"/>
<path d="M11.7979 25C11.5937 25 11.3896 24.9219 11.2333 24.7672C10.9222 24.4562 10.9222 23.9506 11.2333 23.6396L23.6391 11.2348C23.9501 10.9238 24.4557 10.9238 24.7667 11.2348C25.0778 11.5458 25.0778 12.0514 24.7667 12.3624L12.3609 24.7672C12.2062 24.9219 12.0021 25 11.7979 25Z" fill="white"/>
<path d="M24.2037 25C23.9995 25 23.7954 24.9219 23.6391 24.7672L11.2333 12.3608C10.9222 12.0498 10.9222 11.5442 11.2333 11.2332C11.5443 10.9223 12.0499 10.9223 12.3609 11.2332L24.7667 23.638C25.0778 23.949 25.0778 24.4546 24.7667 24.7656C24.612 24.9219 24.4079 25 24.2037 25Z" fill="white"/>
</svg>
