<svg width="22" height="22" viewBox="0 0 22 22" fill="none" xmlns="http://www.w3.org/2000/svg">
<path d="M11.1467 9.96416C11.0551 9.955 10.9451 9.955 10.8442 9.96416C8.66255 9.89083 6.93005 8.10333 6.93005 5.90333C6.93005 3.6575 8.74505 1.83333 11.0001 1.83333C13.2459 1.83333 15.0701 3.6575 15.0701 5.90333C15.0609 8.10333 13.3284 9.89083 11.1467 9.96416Z" stroke="black" stroke-width="1.5" stroke-linecap="round" stroke-linejoin="round"/>
<path d="M6.56329 13.3467C4.34495 14.8317 4.34495 17.2517 6.56329 18.7275C9.08412 20.4142 13.2183 20.4142 15.7391 18.7275C17.9575 17.2425 17.9575 14.8225 15.7391 13.3467C13.2275 11.6692 9.09329 11.6692 6.56329 13.3467Z" stroke="black" stroke-width="1.5" stroke-linecap="round" stroke-linejoin="round"/>
</svg>
